<svg width="50" height="50" viewBox="0 0 50 50" fill="none" xmlns="http://www.w3.org/2000/svg">
<path fill-rule="evenodd" clip-rule="evenodd" d="M25.0002 0.753058C11.1948 0.753058 0 11.9454 0 25.7528C0 36.7986 7.16332 46.1697 17.0967 49.4756C18.3461 49.7069 18.8048 48.9331 18.8048 48.2728C18.8048 47.6767 18.7816 45.7073 18.7709 43.6183C11.8158 45.1306 10.3482 40.6686 10.3482 40.6686C9.21093 37.7789 7.57235 37.0106 7.57235 37.0106C5.30408 35.4589 7.74333 35.4908 7.74333 35.4908C10.2538 35.6667 11.5757 38.0671 11.5757 38.0671C13.8054 41.8891 17.4241 40.7841 18.8508 40.1453C19.0751 38.5299 19.723 37.4262 20.438 36.8023C14.8851 36.1702 9.04782 34.0265 9.04782 24.4471C9.04782 21.7177 10.0244 19.4875 11.6237 17.7367C11.3641 17.1066 10.5084 14.5643 11.8659 11.1207C11.8659 11.1207 13.9652 10.4488 18.7427 13.6833C20.7369 13.1294 22.8756 12.8516 25.0002 12.8421C27.1248 12.8516 29.2652 13.1294 31.2631 13.6833C36.0348 10.4488 38.1312 11.1207 38.1312 11.1207C39.492 14.5643 38.6359 17.1066 38.3763 17.7367C39.9793 19.4875 40.9493 21.7177 40.9493 24.4471C40.9493 34.0493 35.1008 36.1635 29.5338 36.7825C30.4306 37.5583 31.2296 39.0797 31.2296 41.4121C31.2296 44.7568 31.2006 47.449 31.2006 48.2728C31.2006 48.9381 31.6506 49.7176 32.9178 49.4722C42.8458 46.1627 50 36.7949 50 25.7528C50 11.9454 38.8069 0.753058 25.0002 0.753058" fill="white"/>
<path d="M9.46885 36.6474C9.41379 36.7721 9.2184 36.8089 9.04038 36.7236C8.85905 36.6421 8.7572 36.4727 8.81599 36.3481C8.86981 36.2202 9.06563 36.185 9.24655 36.2699C9.42829 36.3519 9.53178 36.5228 9.46885 36.6474" fill="white"/>
<path d="M10.4815 37.7768C10.3623 37.8874 10.1292 37.836 9.97106 37.6613C9.80753 37.487 9.77689 37.254 9.89778 37.1418C10.0207 37.0312 10.2468 37.083 10.4107 37.2573C10.5742 37.4336 10.6061 37.6651 10.4815 37.7768Z" fill="white"/>
<path d="M11.4671 39.2167C11.314 39.3231 11.0635 39.2234 10.9087 39.0011C10.7555 38.7787 10.7555 38.5121 10.912 38.4053C11.0672 38.2985 11.314 38.3946 11.4709 38.6152C11.6236 38.8408 11.6236 39.1079 11.4671 39.2167" fill="white"/>
<path d="M12.8176 40.6077C12.6806 40.7588 12.3887 40.7182 12.1751 40.5121C11.9565 40.3104 11.8956 40.0244 12.0331 39.8733C12.1718 39.7217 12.4653 39.7644 12.6806 39.9689C12.8975 40.1701 12.9637 40.4582 12.8176 40.6077Z" fill="white"/>
<path d="M14.6805 41.4155C14.6201 41.6113 14.339 41.7003 14.0558 41.6171C13.773 41.5314 13.588 41.3021 13.6451 41.1042C13.7039 40.9071 13.9862 40.8144 14.2715 40.9034C14.5538 40.9887 14.7393 41.2164 14.6805 41.4155" fill="white"/>
<path d="M16.7267 41.5653C16.7337 41.7714 16.4936 41.9424 16.1963 41.9457C15.8974 41.9528 15.6557 41.7859 15.6523 41.5831C15.6523 41.3748 15.8871 41.2055 16.186 41.2006C16.4832 41.1948 16.7267 41.3604 16.7267 41.5653Z" fill="white"/>
<path d="M18.6305 41.2412C18.6661 41.4424 18.4595 41.6489 18.1643 41.7036C17.8741 41.757 17.6054 41.6328 17.5686 41.4332C17.5326 41.2271 17.7429 41.0205 18.0327 40.9671C18.3283 40.9158 18.5928 41.0366 18.6305 41.2412Z" fill="white"/>
</svg>
