<svg width="500" height="500" viewBox="0 0 500 500" fill="none" xmlns="http://www.w3.org/2000/svg">
<rect x="1" y="1" width="498" height="498" fill="#D64E24" stroke="#E2A328" stroke-width="2"/>
<rect x="21.833" y="21.8333" width="456.333" height="456.333" stroke="#E2A328" stroke-width="2"/>
<path d="M282 202C282 246.183 246.183 282 202 282C157.817 282 122 246.183 122 202M282 202C282 180.196 273.277 160.43 259.131 146C244.612 131.189 224.379 122 202 122C157.817 122 122 157.817 122 202M282 202H234M122 202H170M234 202C234 219.673 219.673 234 202 234C184.327 234 170 219.673 170 202M234 202C234 193.884 230.979 186.474 226 180.833C220.136 174.19 211.558 170 202 170C184.327 170 170 184.327 170 202M258 218C254 242 230 262 202 262C174 262 150 242 146 218M258 186C254 162 230 142 202 142C174 142 150 162 146 186" stroke="#E2A328" stroke-width="2" stroke-linecap="round"/>
<path fill-rule="evenodd" clip-rule="evenodd" d="M378 298C378 342.183 342.183 378 298 378C253.817 378 218 342.183 218 298C218 253.817 253.817 218 298 218C320.379 218 340.612 227.189 355.131 242C369.277 256.43 378 276.196 378 298ZM298 330C315.673 330 330 315.673 330 298C330 289.884 326.979 282.474 322 276.833C316.136 270.19 307.558 266 298 266C280.327 266 266 280.327 266 298C266 315.673 280.327 330 298 330Z" fill="#D64E24"/>
<path d="M378 298C378 342.183 342.183 378 298 378C253.817 378 218 342.183 218 298M378 298C378 276.196 369.277 256.43 355.131 242C340.612 227.189 320.379 218 298 218C253.817 218 218 253.817 218 298M378 298H330M218 298H266M330 298C330 315.673 315.673 330 298 330C280.327 330 266 315.673 266 298M330 298C330 289.884 326.979 282.474 322 276.833C316.136 270.19 307.558 266 298 266C280.327 266 266 280.327 266 298M354 314C350 338 326 358 298 358C270 358 246 338 242 314M354 282C350 258 326 238 298 238C270 238 246 258 242 282" stroke="#E2A328" stroke-width="2" stroke-linecap="round"/>
<path d="M116.778 223.72C114.858 222.76 113.748 221.92 113.448 221.2C113.208 220.48 113.418 219.88 114.078 219.4C114.738 218.86 115.698 218.41 116.958 218.05C118.218 217.69 119.448 217.42 120.648 217.24C120.648 214.72 120.738 211.84 120.918 208.6C121.098 205.3 121.428 201.85 121.908 198.25C122.388 194.59 123.048 190.9 123.888 187.18C124.728 183.46 125.838 179.89 127.218 176.47C126.618 176.89 125.748 177.76 124.608 179.08C123.528 180.34 122.358 181.87 121.098 183.67C119.898 185.41 118.668 187.33 117.408 189.43C116.208 191.47 115.158 193.48 114.258 195.46C113.418 197.44 112.788 199.3 112.368 201.04C111.948 202.72 111.948 204.1 112.368 205.18C112.668 205.84 112.578 206.29 112.098 206.53C111.618 206.71 111.168 206.74 110.748 206.62C108.168 205.84 106.578 204.55 105.978 202.75C105.378 200.95 105.408 198.94 106.068 196.72C106.728 194.44 107.838 192.07 109.398 189.61C111.018 187.09 112.728 184.72 114.528 182.5C116.328 180.22 118.038 178.21 119.658 176.47C121.278 174.73 122.508 173.47 123.348 172.69C125.208 170.95 127.008 169.57 128.748 168.55C130.548 167.53 132.048 167.35 133.248 168.01C134.448 168.79 135.648 169.51 136.848 170.17C138.048 170.77 139.248 171.43 140.448 172.15C141.348 172.87 142.068 173.59 142.608 174.31C143.928 176.17 143.718 177.82 141.978 179.26C140.058 180.82 138.558 182.62 137.478 184.66C136.458 186.7 135.768 188.98 135.408 191.5C134.748 195.28 134.208 199.06 133.788 202.84C133.428 206.56 133.188 210.34 133.068 214.18C135.828 213.94 138.528 213.73 141.168 213.55C143.808 213.31 146.508 213.04 149.268 212.74C149.388 212.08 149.478 211.42 149.538 210.76C149.598 210.04 149.658 209.29 149.718 208.51C150.078 204.25 150.678 200.05 151.518 195.91C152.358 191.77 153.648 187.72 155.388 183.76C156.048 182.14 156.798 180.55 157.638 178.99C158.478 177.43 159.408 175.93 160.428 174.49C161.268 173.23 162.048 172.54 162.768 172.42C163.548 172.3 164.478 172.66 165.558 173.5C166.338 173.92 167.028 174.4 167.628 174.94C168.228 175.48 168.858 175.99 169.518 176.47C166.758 182.35 164.778 188.35 163.578 194.47C162.378 200.59 161.508 206.83 160.968 213.19C161.568 213.49 162.078 213.67 162.498 213.73C162.978 213.79 163.368 213.91 163.668 214.09C164.028 214.21 164.328 214.42 164.568 214.72C164.808 214.96 165.018 215.44 165.198 216.16H160.878C160.638 217.66 160.488 219.28 160.428 221.02C160.368 222.76 160.368 224.5 160.428 226.24C160.488 227.98 160.608 229.69 160.788 231.37C160.968 233.05 161.178 234.55 161.418 235.87C155.778 237.49 152.418 235.6 151.338 230.2C151.158 229.36 150.978 228.37 150.798 227.23C150.618 226.09 150.468 224.92 150.348 223.72C150.228 222.46 150.078 221.23 149.898 220.03C149.778 218.83 149.658 217.78 149.538 216.88C146.838 217 144.108 217.3 141.348 217.78C138.648 218.2 135.858 218.65 132.978 219.13C132.858 220.45 132.798 221.89 132.798 223.45C132.798 225.01 132.828 226.63 132.888 228.31C132.948 229.93 133.038 231.52 133.158 233.08C133.338 234.64 133.548 236.08 133.788 237.4C130.848 238.12 128.388 237.91 126.408 236.77C124.428 235.63 123.108 233.71 122.448 231.01C122.328 230.53 122.238 229.9 122.178 229.12C122.118 228.34 122.028 227.53 121.908 226.69C121.848 225.79 121.758 224.95 121.638 224.17C121.578 223.33 121.488 222.64 121.368 222.1C120.648 222.4 119.898 222.67 119.118 222.91C118.398 223.09 117.618 223.36 116.778 223.72ZM181.577 223.9C182.417 221.98 183.047 220.27 183.467 218.77C183.887 217.21 184.517 215.41 185.357 213.37C186.617 213.67 187.397 214.12 187.697 214.72C188.057 215.26 188.027 216.13 187.607 217.33C187.187 218.59 186.827 219.7 186.527 220.66C186.227 221.56 185.927 222.46 185.627 223.36C185.327 224.26 184.997 225.19 184.637 226.15C184.337 227.05 183.917 228.13 183.377 229.39C182.717 230.71 182.027 231.49 181.307 231.73C180.587 231.97 179.447 231.94 177.887 231.64C176.927 231.46 175.997 231.31 175.097 231.19C174.257 231.07 173.477 230.89 172.757 230.65C172.097 230.35 171.497 229.96 170.957 229.48C170.477 228.94 170.117 228.22 169.877 227.32C169.457 225.82 169.187 224.02 169.067 221.92C168.887 219.76 168.827 217.48 168.887 215.08C168.887 212.62 168.977 210.16 169.157 207.7C169.337 205.18 169.547 202.84 169.787 200.68C169.967 199.3 170.867 198.58 172.487 198.52C174.107 198.46 175.967 199.09 178.067 200.41C178.427 200.65 178.577 201.01 178.517 201.49C178.517 201.91 178.517 202.36 178.517 202.84C178.397 205.36 178.247 207.85 178.067 210.31C177.947 212.77 177.857 215.23 177.797 217.69C177.797 218.29 177.797 219.07 177.797 220.03C177.797 220.99 177.827 221.95 177.887 222.91C177.947 223.87 178.037 224.74 178.157 225.52C178.337 226.3 178.577 226.81 178.877 227.05C179.177 227.29 179.537 227.2 179.957 226.78C180.377 226.36 180.917 225.4 181.577 223.9ZM174.197 195.28C173.537 195.16 172.817 194.83 172.037 194.29C171.317 193.75 170.957 193.15 170.957 192.49C171.017 190.93 171.077 189.37 171.137 187.81C171.197 186.25 171.287 184.69 171.407 183.13C171.527 182.41 171.977 181.99 172.757 181.87C173.597 181.75 174.437 181.75 175.277 181.87C177.017 182.23 178.157 182.77 178.697 183.49C179.237 184.21 179.357 185.44 179.057 187.18C178.937 188.32 178.787 189.49 178.607 190.69C178.427 191.83 178.217 193 177.977 194.2C177.857 194.92 177.707 195.4 177.527 195.64C177.407 195.88 177.197 196 176.897 196C176.657 196 176.297 195.91 175.817 195.73C175.397 195.55 174.857 195.4 174.197 195.28ZM204.509 227.5C203.489 229.6 201.989 231.25 200.009 232.45C198.029 233.71 195.899 234.07 193.619 233.53C193.079 233.41 192.359 233.05 191.459 232.45C190.559 231.91 189.839 231.55 189.299 231.37C187.859 230.71 186.929 229.93 186.509 229.03C186.089 228.07 186.119 226.87 186.599 225.43C186.839 224.29 187.379 223.27 188.219 222.37C189.119 221.41 190.109 220.6 191.189 219.94C192.329 219.28 193.499 218.77 194.699 218.41C195.959 218.05 197.099 217.9 198.119 217.96C198.299 216.52 197.969 215.56 197.129 215.08C196.349 214.6 195.359 214.36 194.159 214.36C193.019 214.36 191.849 214.51 190.649 214.81C189.509 215.05 188.669 215.23 188.129 215.35C187.049 215.65 186.149 215.47 185.429 214.81C184.709 214.15 184.169 213.25 183.809 212.11C183.449 210.91 183.299 209.59 183.359 208.15C183.359 206.65 183.599 205.21 184.079 203.83C184.499 202.51 185.189 201.22 186.149 199.96C187.169 198.7 188.279 197.56 189.479 196.54C190.739 195.52 192.029 194.68 193.349 194.02C194.729 193.3 196.019 192.85 197.219 192.67C198.419 192.43 199.469 192.49 200.369 192.85C201.269 193.21 201.869 193.93 202.169 195.01C202.409 195.91 202.529 196.87 202.529 197.89C202.589 198.91 202.499 199.84 202.259 200.68C202.079 201.46 201.779 202.06 201.359 202.48C200.999 202.84 200.579 202.81 200.099 202.39C199.559 201.97 198.779 201.88 197.759 202.12C196.799 202.3 195.779 202.69 194.699 203.29C193.619 203.83 192.569 204.49 191.549 205.27C190.589 205.99 189.899 206.65 189.479 207.25C188.579 208.51 188.129 209.41 188.129 209.95C188.129 210.49 188.339 210.82 188.759 210.94C189.239 211.06 189.839 211.06 190.559 210.94C191.279 210.82 191.939 210.73 192.539 210.67C195.419 210.37 197.909 210.85 200.009 212.11C202.169 213.31 203.759 214.96 204.779 217.06C205.739 216.58 206.609 216.07 207.389 215.53C208.229 214.93 208.799 214.3 209.099 213.64C209.699 214 210.209 214.33 210.629 214.63C211.049 214.87 211.079 215.38 210.719 216.16C210.299 217 209.609 217.75 208.649 218.41C207.689 219.01 206.699 219.49 205.679 219.85C206.159 222.43 205.769 224.98 204.509 227.5ZM190.649 228.4C192.869 227.8 194.669 226.84 196.049 225.52C197.489 224.2 198.269 222.4 198.389 220.12C197.489 220.12 196.469 220.33 195.329 220.75C194.249 221.11 193.289 221.65 192.449 222.37C191.609 223.09 190.979 223.96 190.559 224.98C190.139 226 190.169 227.14 190.649 228.4ZM229.498 212.65C230.338 213.01 230.968 213.34 231.388 213.64C231.868 213.88 232.228 214.12 232.468 214.36C232.708 214.6 232.828 214.87 232.828 215.17C232.888 215.41 232.888 215.71 232.828 216.07C232.708 217.21 232.438 218.44 232.018 219.76C231.598 221.08 231.118 222.4 230.578 223.72C230.038 225.04 229.438 226.3 228.778 227.5C228.178 228.64 227.578 229.63 226.978 230.47C226.318 231.49 225.598 232.21 224.818 232.63C224.098 233.05 223.288 233.29 222.388 233.35C221.548 233.41 220.678 233.32 219.778 233.08C218.878 232.9 217.948 232.63 216.988 232.27C214.708 231.43 212.968 229.84 211.768 227.5C210.628 225.1 209.788 222.46 209.248 219.58C208.768 216.7 208.498 213.85 208.438 211.03C208.378 208.21 208.348 205.96 208.348 204.28C208.408 200.74 208.588 197.29 208.888 193.93C209.188 190.51 209.608 187.09 210.148 183.67C208.648 184.27 207.208 184.84 205.828 185.38C204.448 185.86 203.158 186.34 201.958 186.82C199.078 188.14 197.068 187.39 195.928 184.57C195.688 184.03 195.718 183.49 196.018 182.95C196.318 182.41 196.738 181.93 197.278 181.51C197.818 181.03 198.388 180.64 198.988 180.34C199.528 179.98 199.978 179.68 200.338 179.44C200.638 179.26 200.998 179.14 201.418 179.08C201.778 179.02 202.018 179.05 202.138 179.17C202.918 179.95 203.728 180.22 204.568 179.98C205.348 179.74 206.158 179.47 206.998 179.17C207.718 178.99 208.408 178.78 209.068 178.54C209.788 178.3 210.508 178.09 211.228 177.91C211.408 177.49 211.558 177.07 211.678 176.65C211.858 176.17 212.038 175.63 212.218 175.03C212.458 174.37 212.698 173.62 212.938 172.78C213.238 171.88 213.598 170.8 214.018 169.54C214.498 168.52 214.918 167.71 215.278 167.11C215.698 166.51 216.148 166.12 216.628 165.94C217.168 165.76 217.738 165.76 218.338 165.94C218.998 166.12 219.838 166.42 220.858 166.84C222.358 167.32 222.898 168.43 222.478 170.17C222.358 170.89 222.238 171.7 222.118 172.6C221.998 173.5 221.788 174.46 221.488 175.48C224.368 175.24 227.218 175.09 230.038 175.03C232.918 174.97 235.768 175 238.588 175.12C239.728 175.12 240.658 175.42 241.378 176.02C242.158 176.56 242.638 177.52 242.818 178.9C239.038 178.54 235.318 178.54 231.658 178.9C228.058 179.26 224.338 179.95 220.498 180.97C219.658 186.25 218.968 191.44 218.428 196.54C217.948 201.64 217.798 206.8 217.978 212.02C218.038 214.3 218.188 216.49 218.428 218.59C218.668 220.63 218.998 222.4 219.418 223.9C219.838 225.4 220.318 226.54 220.858 227.32C221.458 228.04 222.118 228.28 222.838 228.04C223.558 227.8 224.338 226.96 225.178 225.52C226.078 224.02 227.038 221.77 228.058 218.77C228.358 217.87 228.598 216.91 228.778 215.89C229.018 214.81 229.258 213.73 229.498 212.65ZM249.354 231.91C247.914 232.93 246.414 233.53 244.854 233.71C243.294 233.95 241.734 233.86 240.174 233.44C238.614 233.08 237.114 232.45 235.674 231.55C234.294 230.59 233.034 229.51 231.894 228.31C230.634 226.93 229.704 225.49 229.104 223.99C228.564 222.43 228.264 220.78 228.204 219.04C228.144 215.26 228.564 211.6 229.464 208.06C230.424 204.46 232.254 201.22 234.954 198.34C235.554 197.56 236.394 197.02 237.474 196.72C238.554 196.36 239.694 196.33 240.894 196.63C241.014 196.69 241.194 196.72 241.434 196.72C241.674 196.66 241.884 196.6 242.064 196.54C243.384 195.7 244.614 195.43 245.754 195.73C246.954 196.03 248.154 196.45 249.354 196.99C252.354 198.61 254.634 200.68 256.194 203.2C256.794 204.22 257.184 205.81 257.364 207.97C257.544 210.13 257.484 212.47 257.184 214.99C258.024 214.87 258.864 214.66 259.704 214.36C260.604 214.06 261.294 213.76 261.774 213.46C262.074 213.76 262.314 214.27 262.494 214.99C262.734 215.71 262.524 216.4 261.864 217.06C261.084 217.84 260.094 218.5 258.894 219.04C257.694 219.58 256.794 219.97 256.194 220.21C255.534 222.73 254.634 225.04 253.494 227.14C252.414 229.24 251.034 230.83 249.354 231.91ZM248.184 214.81C248.844 214.99 249.504 215.14 250.164 215.26C250.884 215.38 251.544 215.35 252.144 215.17C252.264 213.79 252.354 212.26 252.414 210.58C252.474 208.9 252.414 207.31 252.234 205.81C252.054 204.25 251.664 202.9 251.064 201.76C250.524 200.56 249.654 199.78 248.454 199.42C247.734 199.24 247.074 199.27 246.474 199.51C245.934 199.75 245.424 200.11 244.944 200.59C244.464 201.07 244.044 201.61 243.684 202.21C243.324 202.81 242.994 203.32 242.694 203.74C241.734 205.48 240.774 207.55 239.814 209.95C238.854 212.35 238.134 214.81 237.654 217.33C237.234 219.79 237.174 222.16 237.474 224.44C237.834 226.72 238.824 228.55 240.444 229.93C241.404 230.77 242.454 230.92 243.594 230.38C244.734 229.78 245.814 228.88 246.834 227.68C247.854 226.48 248.724 225.16 249.444 223.72C250.164 222.28 250.524 221.08 250.524 220.12C249.144 219.52 248.064 218.86 247.284 218.14C246.564 217.42 246.114 216.79 245.934 216.25C245.754 215.65 245.844 215.2 246.204 214.9C246.624 214.6 247.284 214.57 248.184 214.81ZM293.392 213.82C293.632 213.7 293.842 213.76 294.022 214C294.262 214.24 294.442 214.57 294.562 214.99C294.682 215.35 294.742 215.77 294.742 216.25C294.802 216.67 294.772 217 294.652 217.24C294.352 217.78 293.902 218.26 293.302 218.68C292.702 219.1 292.042 219.46 291.322 219.76C290.602 220 289.852 220.18 289.072 220.3C288.352 220.36 287.722 220.3 287.182 220.12C285.262 219.52 283.582 218.68 282.142 217.6C280.702 216.52 279.742 214.9 279.262 212.74C279.142 212.26 279.082 211.78 279.082 211.3C279.082 210.76 279.022 210.1 278.902 209.32C278.002 210.64 277.132 212.11 276.292 213.73C275.452 215.29 274.672 216.91 273.952 218.59C273.292 220.27 272.752 221.98 272.332 223.72C271.912 225.46 271.702 227.11 271.702 228.67C271.582 231.01 271.162 232.6 270.442 233.44C269.782 234.28 268.612 234.52 266.932 234.16C265.372 233.8 264.202 233.26 263.422 232.54C262.642 231.88 262.072 231.1 261.712 230.2C261.412 229.24 261.232 228.22 261.172 227.14C261.112 226 261.052 224.8 260.992 223.54C260.872 221.32 260.842 219.04 260.902 216.7C260.902 214.3 260.992 211.93 261.172 209.59C261.352 207.19 261.622 204.88 261.982 202.66C262.402 200.44 262.912 198.37 263.512 196.45C263.872 195.25 264.472 194.41 265.312 193.93C266.212 193.45 267.352 193.6 268.732 194.38C269.932 195.04 270.862 195.55 271.522 195.91C272.242 196.27 272.752 196.66 273.052 197.08C273.352 197.44 273.502 197.92 273.502 198.52C273.502 199.12 273.412 199.99 273.232 201.13C272.932 203.11 272.692 205.09 272.512 207.07C272.332 208.99 272.302 211 272.422 213.1C273.502 210.4 274.822 207.82 276.382 205.36C277.942 202.9 279.502 200.5 281.062 198.16C281.482 197.5 281.992 196.87 282.592 196.27C283.192 195.67 284.002 195.52 285.022 195.82C286.102 196.18 287.032 196.72 287.812 197.44C288.592 198.1 288.952 199.06 288.892 200.32C288.772 203.02 288.532 205.39 288.172 207.43C287.812 209.47 287.572 211.51 287.452 213.55C287.392 214.45 287.422 215.26 287.542 215.98C287.722 216.64 287.992 217.12 288.352 217.42C288.772 217.66 289.282 217.63 289.882 217.33C290.542 216.97 291.382 216.22 292.402 215.08L293.392 213.82ZM305.327 223.9C306.167 221.98 306.797 220.27 307.217 218.77C307.637 217.21 308.267 215.41 309.107 213.37C310.367 213.67 311.147 214.12 311.447 214.72C311.807 215.26 311.777 216.13 311.357 217.33C310.937 218.59 310.577 219.7 310.277 220.66C309.977 221.56 309.677 222.46 309.377 223.36C309.077 224.26 308.747 225.19 308.387 226.15C308.087 227.05 307.667 228.13 307.127 229.39C306.467 230.71 305.777 231.49 305.057 231.73C304.337 231.97 303.197 231.94 301.637 231.64C300.677 231.46 299.747 231.31 298.847 231.19C298.007 231.07 297.227 230.89 296.507 230.65C295.847 230.35 295.247 229.96 294.707 229.48C294.227 228.94 293.867 228.22 293.627 227.32C293.207 225.82 292.937 224.02 292.817 221.92C292.637 219.76 292.577 217.48 292.637 215.08C292.637 212.62 292.727 210.16 292.907 207.7C293.087 205.18 293.297 202.84 293.537 200.68C293.717 199.3 294.617 198.58 296.237 198.52C297.857 198.46 299.717 199.09 301.817 200.41C302.177 200.65 302.327 201.01 302.267 201.49C302.267 201.91 302.267 202.36 302.267 202.84C302.147 205.36 301.997 207.85 301.817 210.31C301.697 212.77 301.607 215.23 301.547 217.69C301.547 218.29 301.547 219.07 301.547 220.03C301.547 220.99 301.577 221.95 301.637 222.91C301.697 223.87 301.787 224.74 301.907 225.52C302.087 226.3 302.327 226.81 302.627 227.05C302.927 227.29 303.287 227.2 303.707 226.78C304.127 226.36 304.667 225.4 305.327 223.9ZM297.947 195.28C297.287 195.16 296.567 194.83 295.787 194.29C295.067 193.75 294.707 193.15 294.707 192.49C294.767 190.93 294.827 189.37 294.887 187.81C294.947 186.25 295.037 184.69 295.157 183.13C295.277 182.41 295.727 181.99 296.507 181.87C297.347 181.75 298.187 181.75 299.027 181.87C300.767 182.23 301.907 182.77 302.447 183.49C302.987 184.21 303.107 185.44 302.807 187.18C302.687 188.32 302.537 189.49 302.357 190.69C302.177 191.83 301.967 193 301.727 194.2C301.607 194.92 301.457 195.4 301.277 195.64C301.157 195.88 300.947 196 300.647 196C300.407 196 300.047 195.91 299.567 195.73C299.147 195.55 298.607 195.4 297.947 195.28ZM328.259 198.61C326.939 199.03 325.769 199.84 324.749 201.04C323.729 202.18 322.829 203.59 322.049 205.27C321.329 206.89 320.729 208.66 320.249 210.58C319.769 212.44 319.379 214.3 319.079 216.16C318.779 217.96 318.599 219.7 318.539 221.38C318.479 223 318.479 224.35 318.539 225.43C318.539 225.61 318.539 225.82 318.539 226.06C318.599 226.24 318.629 226.39 318.629 226.51C318.869 227.89 319.259 228.94 319.799 229.66C320.339 230.32 320.969 230.71 321.689 230.83C322.409 230.95 323.189 230.86 324.029 230.56C324.869 230.2 325.769 229.69 326.729 229.03C328.049 228.13 329.309 227.02 330.509 225.7C331.709 224.38 332.789 223 333.749 221.56C334.769 220.06 335.669 218.56 336.449 217.06C337.229 215.56 337.889 214.12 338.429 212.74C339.389 213.22 340.079 213.67 340.499 214.09C340.979 214.51 341.279 214.9 341.399 215.26C341.519 215.62 341.549 215.95 341.489 216.25C341.429 216.55 341.339 216.85 341.219 217.15C340.679 218.53 339.809 220.27 338.609 222.37C337.469 224.47 336.029 226.45 334.289 228.31C332.609 230.17 330.689 231.67 328.529 232.81C326.369 233.95 323.999 234.19 321.419 233.53C317.459 232.51 314.369 230.68 312.149 228.04C309.929 225.4 308.669 222.1 308.369 218.14C308.189 216.46 308.219 214.54 308.459 212.38C308.699 210.16 309.119 207.97 309.719 205.81C310.319 203.59 311.129 201.49 312.149 199.51C313.169 197.53 314.369 195.91 315.749 194.65C317.189 193.39 318.809 192.61 320.609 192.31C322.469 191.95 324.509 192.31 326.729 193.39C327.029 193.51 327.269 193.63 327.449 193.75C327.689 193.87 327.959 193.96 328.259 194.02C328.499 194.02 328.829 194.05 329.249 194.11C329.669 194.11 330.089 194.14 330.509 194.2C330.989 194.2 331.409 194.26 331.769 194.38C332.189 194.44 332.489 194.53 332.669 194.65C333.569 196.03 334.049 197.62 334.109 199.42C334.229 201.16 333.989 202.78 333.389 204.28C332.849 205.72 332.009 206.86 330.869 207.7C329.789 208.48 328.529 208.63 327.089 208.15C327.089 207.97 327.209 207.64 327.449 207.16C327.749 206.62 328.019 205.96 328.259 205.18C328.499 204.4 328.649 203.47 328.709 202.39C328.829 201.25 328.679 199.99 328.259 198.61ZM353.207 229.48C352.067 231.88 349.997 232.75 346.997 232.09C344.417 231.49 342.257 230.32 340.517 228.58C338.837 226.78 337.907 224.32 337.727 221.2C337.307 216.88 337.697 212.86 338.897 209.14C340.097 205.42 342.257 201.97 345.377 198.79C346.937 197.23 348.617 196.24 350.417 195.82C352.277 195.4 354.257 195.49 356.357 196.09C357.317 196.33 358.277 196.6 359.237 196.9C360.197 197.2 361.277 197.5 362.477 197.8C362.657 197.26 362.867 196.72 363.107 196.18C363.347 195.58 363.587 194.95 363.827 194.29C364.367 192.97 365.327 192.49 366.707 192.85C367.127 192.97 367.547 193.09 367.967 193.21C368.447 193.33 368.867 193.45 369.227 193.57C370.427 193.99 371.147 194.41 371.387 194.83C371.627 195.25 371.657 196.09 371.477 197.35C370.997 201.91 370.577 206.41 370.217 210.85C369.917 215.23 369.677 219.67 369.497 224.17C369.497 224.77 369.497 225.4 369.497 226.06C369.557 226.66 369.677 227.11 369.857 227.41C370.097 227.71 370.397 227.74 370.757 227.5C371.117 227.26 371.597 226.57 372.197 225.43C372.797 224.17 373.337 223.03 373.817 222.01C374.297 220.99 374.717 220.03 375.077 219.13C375.437 218.17 375.797 217.21 376.157 216.25C376.517 215.29 376.877 214.27 377.237 213.19C377.417 213.13 377.687 213.13 378.047 213.19C378.407 213.25 378.737 213.43 379.037 213.73C379.397 213.97 379.667 214.33 379.847 214.81C380.087 215.23 380.147 215.74 380.027 216.34C379.847 217.3 379.517 218.68 379.037 220.48C378.557 222.22 377.957 223.96 377.237 225.7C376.517 227.44 375.647 228.97 374.627 230.29C373.667 231.61 372.557 232.33 371.297 232.45C369.677 232.75 368.027 232.72 366.347 232.36C364.727 232.06 363.497 231.46 362.657 230.56C361.877 229.72 361.367 228.58 361.127 227.14C360.887 225.7 360.767 224.2 360.767 222.64C360.827 221.08 360.917 219.55 361.037 218.05C361.157 216.55 361.187 215.29 361.127 214.27C361.127 213.37 360.977 213.07 360.677 213.37C360.377 213.67 360.017 214.24 359.597 215.08C358.397 217.54 357.347 220 356.447 222.46C355.607 224.86 354.527 227.2 353.207 229.48ZM348.617 228.4C350.057 226.36 351.257 224.26 352.217 222.1C353.177 219.94 354.077 217.81 354.917 215.71C355.757 213.55 356.627 211.45 357.527 209.41C358.427 207.31 359.507 205.3 360.767 203.38C359.207 202.24 357.737 201.85 356.357 202.21C355.037 202.57 353.837 203.44 352.757 204.82C351.737 206.14 350.837 207.82 350.057 209.86C349.337 211.9 348.767 214.03 348.347 216.25C347.987 218.47 347.807 220.66 347.807 222.82C347.867 224.98 348.137 226.84 348.617 228.4ZM398.539 213.37C399.319 213.55 399.889 213.82 400.249 214.18C400.669 214.54 400.969 214.9 401.149 215.26C401.329 215.62 401.419 215.98 401.419 216.34C401.419 216.64 401.419 216.88 401.419 217.06C400.939 219.22 400.369 221.32 399.709 223.36C399.049 225.4 398.149 227.38 397.009 229.3C396.289 230.5 395.389 231.4 394.309 232C393.229 232.66 392.089 233.08 390.889 233.26C389.689 233.44 388.459 233.38 387.199 233.08C385.939 232.84 384.739 232.42 383.599 231.82C381.619 230.74 380.119 229.24 379.099 227.32C378.079 225.34 377.359 223.21 376.939 220.93C376.519 218.59 376.309 216.25 376.309 213.91C376.249 211.57 376.219 209.47 376.219 207.61C376.279 203.83 376.549 200.02 377.029 196.18C377.509 192.34 378.169 188.71 379.009 185.29C379.849 181.87 380.869 178.78 382.069 176.02C383.329 173.26 384.739 171.07 386.299 169.45C387.679 168.07 389.119 167.47 390.619 167.65C392.179 167.83 393.799 168.43 395.479 169.45C397.519 170.89 398.869 172.6 399.529 174.58C400.189 176.5 400.369 178.6 400.069 180.88C399.469 185.2 398.149 189.13 396.109 192.67C394.129 196.21 391.609 199.51 388.549 202.57C388.189 202.87 387.829 203.23 387.469 203.65C387.169 204.01 387.019 204.43 387.019 204.91C387.019 205.27 386.959 206.17 386.839 207.61C386.779 208.99 386.719 210.64 386.659 212.56C386.659 214.42 386.689 216.37 386.749 218.41C386.809 220.45 386.989 222.31 387.289 223.99C387.589 225.61 388.009 226.9 388.549 227.86C389.149 228.82 389.959 229.12 390.979 228.76C391.759 228.46 392.479 227.92 393.139 227.14C393.859 226.3 394.459 225.4 394.939 224.44C395.839 222.7 396.529 220.96 397.009 219.22C397.549 217.42 398.059 215.47 398.539 213.37ZM388.369 195.37C389.869 193.87 391.159 192.19 392.239 190.33C393.319 188.47 394.129 186.61 394.669 184.75C395.269 182.89 395.569 181.09 395.569 179.35C395.629 177.61 395.359 176.05 394.759 174.67C394.099 175.51 393.379 176.8 392.599 178.54C391.879 180.28 391.189 182.17 390.529 184.21C389.929 186.19 389.419 188.2 388.999 190.24C388.579 192.28 388.369 193.99 388.369 195.37ZM190.659 289.33C192.039 291.07 193.269 292.96 194.349 295C195.489 297.04 196.119 299.44 196.239 302.2C197.379 302.02 198.429 301.9 199.389 301.84C200.409 301.72 201.429 301.63 202.449 301.57C203.649 301.57 204.429 301.75 204.789 302.11C205.209 302.47 205.689 303.4 206.229 304.9C204.489 305.2 202.779 305.47 201.099 305.71C199.419 305.95 197.739 306.22 196.059 306.52C195.939 306.76 195.819 306.97 195.699 307.15C195.579 307.27 195.489 307.45 195.429 307.69C194.709 310.75 193.449 313.6 191.649 316.24C189.849 318.88 187.689 321.19 185.169 323.17C182.709 325.15 180.009 326.74 177.069 327.94C174.129 329.14 171.129 329.83 168.069 330.01C166.869 330.01 165.819 329.8 164.919 329.38C164.079 328.96 163.299 328.42 162.579 327.76C161.859 327.1 161.199 326.35 160.599 325.51C159.999 324.67 159.399 323.8 158.799 322.9C159.039 322.36 159.249 321.82 159.429 321.28C159.669 320.74 159.939 320.2 160.239 319.66C159.039 318.7 158.289 317.56 157.989 316.24C157.689 314.86 157.539 313.51 157.539 312.19C157.179 309.13 157.149 305.65 157.449 301.75C157.749 297.79 158.199 293.77 158.799 289.69C159.399 285.61 160.029 281.62 160.689 277.72C161.409 273.82 161.949 270.34 162.309 267.28C161.049 268.9 159.639 270.64 158.079 272.5C156.579 274.36 155.139 276.49 153.759 278.89C152.439 281.23 151.329 283.9 150.429 286.9C149.589 289.9 149.229 293.32 149.349 297.16C149.409 298 149.349 298.54 149.169 298.78C149.049 299.02 148.539 298.87 147.639 298.33C146.139 297.49 144.969 296.38 144.129 295C143.349 293.62 142.959 292.06 142.959 290.32C143.019 287.86 143.379 285.55 144.039 283.39C144.759 281.23 145.719 279.16 146.919 277.18C149.439 272.98 152.349 269.32 155.649 266.2C158.949 263.08 162.549 260.26 166.449 257.74C167.589 257.02 168.879 256.81 170.319 257.11C171.759 257.35 173.139 257.83 174.459 258.55C175.839 259.27 177.099 260.11 178.239 261.07C179.439 262.03 180.369 262.9 181.029 263.68C179.109 264.52 177.609 265.69 176.529 267.19C175.509 268.63 174.849 270.4 174.549 272.5C177.129 269.38 180.099 266.56 183.459 264.04C186.819 261.46 190.479 259.81 194.439 259.09C195.039 258.85 195.729 258.85 196.509 259.09C197.289 259.27 198.009 259.51 198.669 259.81C199.569 260.35 200.349 261.07 201.009 261.97C201.669 262.81 202.179 263.77 202.539 264.85C202.899 265.87 203.109 266.95 203.169 268.09C203.229 269.23 203.139 270.34 202.899 271.42C202.419 273.34 201.729 275.14 200.829 276.82C199.929 278.44 198.879 279.94 197.679 281.32C196.539 282.7 195.369 284.05 194.169 285.37C193.029 286.63 191.859 287.95 190.659 289.33ZM198.759 265.03C197.079 265.21 195.279 265.78 193.359 266.74C191.439 267.64 189.459 268.81 187.419 270.25C185.439 271.69 183.489 273.34 181.569 275.2C179.649 277.06 177.879 279.01 176.259 281.05C174.639 283.09 173.229 285.13 172.029 287.17C170.829 289.21 169.959 291.13 169.419 292.93C172.899 291.91 176.259 290.5 179.499 288.7C182.739 286.9 185.649 284.8 188.229 282.4C190.869 280 193.089 277.33 194.889 274.39C196.749 271.45 198.039 268.33 198.759 265.03ZM168.429 302.74C168.189 304.36 168.009 306.04 167.889 307.78C167.769 309.46 167.619 311.14 167.439 312.82C167.739 312.82 167.949 312.85 168.069 312.91C168.189 312.91 168.309 312.88 168.429 312.82C171.369 310.9 174.399 309.22 177.519 307.78C180.639 306.34 183.879 305.14 187.239 304.18C187.599 304.06 187.959 303.82 188.319 303.46C188.739 303.1 189.009 302.74 189.129 302.38C190.329 299.26 190.779 296.92 190.479 295.36C190.179 293.8 189.429 292.84 188.229 292.48C187.029 292.06 185.499 292.12 183.639 292.66C181.839 293.14 179.979 293.92 178.059 295C176.139 296.08 174.309 297.31 172.569 298.69C170.829 300.07 169.449 301.42 168.429 302.74ZM166.899 320.74C170.439 319.72 173.619 318.43 176.439 316.87C179.259 315.31 181.899 313.09 184.359 310.21C183.099 310.39 181.599 310.84 179.859 311.56C178.179 312.28 176.469 313.15 174.729 314.17C173.049 315.13 171.489 316.21 170.049 317.41C168.609 318.55 167.559 319.66 166.899 320.74ZM241.502 303.01C242.342 303.55 242.972 304.03 243.392 304.45C243.812 304.81 244.112 305.11 244.292 305.35C244.472 305.59 244.532 305.8 244.472 305.98C244.472 306.16 244.472 306.28 244.472 306.34C243.992 308.08 243.422 309.97 242.762 312.01C242.162 313.99 241.412 315.85 240.512 317.59C239.672 319.27 238.652 320.65 237.452 321.73C236.252 322.75 234.902 323.2 233.402 323.08C231.362 322.9 229.742 322.51 228.542 321.91C227.402 321.25 226.562 320.35 226.022 319.21C225.482 318.01 225.152 316.57 225.032 314.89C224.912 313.21 224.852 311.23 224.852 308.95C224.552 309.55 224.282 310.09 224.042 310.57C223.862 310.99 223.652 311.38 223.412 311.74C222.932 312.52 222.512 313.21 222.152 313.81C221.792 314.41 221.432 315.01 221.072 315.61C220.772 316.15 220.412 316.69 219.992 317.23C219.632 317.77 219.182 318.4 218.642 319.12C217.742 320.26 216.842 321.1 215.942 321.64C215.042 322.12 214.142 322.39 213.242 322.45C212.402 322.57 211.532 322.48 210.632 322.18C209.792 321.94 208.922 321.61 208.022 321.19C206.342 320.41 205.052 319.21 204.152 317.59C203.312 315.97 202.772 314.14 202.532 312.1C202.292 310 202.322 307.75 202.622 305.35C202.862 302.95 203.282 300.61 203.882 298.33C204.482 295.99 205.172 293.8 205.952 291.76C206.792 289.66 207.632 287.86 208.472 286.36C209.312 285.1 210.032 284.38 210.632 284.2C211.292 284.02 212.282 284.26 213.602 284.92C214.202 285.28 214.832 285.58 215.492 285.82C216.152 286 216.692 286.21 217.112 286.45C217.592 286.63 217.922 286.9 218.102 287.26C218.282 287.62 218.222 288.16 217.922 288.88C216.002 292.84 214.532 296.68 213.512 300.4C212.552 304.12 211.922 307.36 211.622 310.12C211.382 312.88 211.502 314.98 211.982 316.42C212.522 317.86 213.332 318.31 214.412 317.77C215.552 317.17 216.962 315.37 218.642 312.37C220.382 309.37 222.362 304.84 224.582 298.78C225.002 297.58 225.332 296.23 225.572 294.73C225.872 293.17 226.142 291.73 226.382 290.41C226.622 289.09 226.922 287.98 227.282 287.08C227.642 286.18 228.152 285.76 228.812 285.82C230.132 286.12 231.302 286.39 232.322 286.63C233.342 286.81 234.152 287.11 234.752 287.53C235.412 287.95 235.832 288.52 236.012 289.24C236.252 289.9 236.222 290.83 235.922 292.03C235.562 293.35 235.172 294.85 234.752 296.53C234.392 298.21 234.032 299.92 233.672 301.66C233.372 303.4 233.072 305.14 232.772 306.88C232.532 308.56 232.382 310.12 232.322 311.56C232.202 313.24 232.232 314.77 232.412 316.15C232.592 317.47 232.862 318.46 233.222 319.12C233.642 319.72 234.122 319.87 234.662 319.57C235.202 319.21 235.832 318.22 236.552 316.6C236.792 316 237.152 315.1 237.632 313.9C238.112 312.7 238.592 311.44 239.072 310.12C239.552 308.74 240.002 307.42 240.422 306.16C240.902 304.84 241.262 303.79 241.502 303.01ZM279.481 303.28C280.261 303.64 280.861 304.06 281.281 304.54C281.701 304.96 281.971 305.38 282.091 305.8C282.271 306.22 282.331 306.61 282.271 306.97C282.271 307.33 282.241 307.63 282.181 307.87C282.001 308.65 281.731 309.64 281.371 310.84C281.011 312.04 280.591 313.27 280.111 314.53C279.691 315.79 279.241 316.99 278.761 318.13C278.281 319.21 277.801 320.05 277.321 320.65C276.781 321.37 276.061 321.85 275.161 322.09C274.261 322.39 273.061 322.6 271.561 322.72C269.341 322.96 267.511 322.69 266.071 321.91C264.631 321.07 263.431 319.96 262.471 318.58C261.511 317.2 260.761 315.64 260.221 313.9C259.741 312.16 259.351 310.48 259.051 308.86C258.691 310.06 258.361 311.11 258.061 312.01C257.821 312.85 257.581 313.6 257.341 314.26C257.161 314.92 256.981 315.52 256.801 316.06C256.681 316.54 256.531 316.99 256.351 317.41C255.871 318.67 255.211 319.78 254.371 320.74C253.531 321.7 252.361 322.24 250.861 322.36C247.621 322.54 245.191 321.79 243.571 320.11C241.951 318.43 240.961 315.7 240.601 311.92C240.421 309.76 240.451 307.33 240.691 304.63C240.931 301.93 241.381 299.26 242.041 296.62C242.761 293.92 243.721 291.46 244.921 289.24C246.121 286.96 247.561 285.19 249.241 283.93C250.441 283.09 251.791 282.64 253.291 282.58C254.851 282.52 256.801 282.79 259.141 283.39C259.201 281.83 259.381 279.73 259.681 277.09C259.981 274.45 260.491 271.63 261.211 268.63C261.931 265.57 262.951 262.57 264.271 259.63C265.591 256.63 267.301 254.02 269.401 251.8C270.481 250.66 271.801 250.18 273.361 250.36C274.981 250.48 276.511 250.93 277.951 251.71C279.211 252.31 280.231 253.06 281.011 253.96C281.791 254.86 282.061 256.09 281.821 257.65C281.341 260.89 280.771 263.68 280.111 266.02C279.511 268.36 278.761 270.58 277.861 272.68C276.961 274.78 275.851 276.88 274.531 278.98C273.271 281.08 271.711 283.48 269.851 286.18C269.551 288.7 269.251 291.49 268.951 294.55C268.711 297.55 268.561 300.52 268.501 303.46C268.501 306.34 268.651 309.07 268.951 311.65C269.251 314.23 269.821 316.36 270.661 318.04C270.961 318.7 271.321 319.12 271.741 319.3C272.161 319.48 272.611 319.36 273.091 318.94C273.511 318.58 273.961 317.92 274.441 316.96C274.981 315.94 275.521 314.74 276.061 313.36C276.661 311.92 277.231 310.36 277.771 308.68C278.371 306.94 278.941 305.14 279.481 303.28ZM249.331 319.12C249.931 319.3 250.561 318.94 251.221 318.04C251.941 317.14 252.601 315.91 253.201 314.35C253.861 312.73 254.491 310.87 255.091 308.77C255.691 306.61 256.201 304.36 256.621 302.02C257.041 299.68 257.371 297.34 257.611 295C257.911 292.6 258.061 290.38 258.061 288.34C257.341 287.32 256.531 287.32 255.631 288.34C254.791 289.3 253.951 290.86 253.111 293.02C252.271 295.12 251.491 297.58 250.771 300.4C250.051 303.22 249.481 305.95 249.061 308.59C248.641 311.23 248.431 313.54 248.431 315.52C248.431 317.5 248.731 318.7 249.331 319.12ZM277.771 256.48C277.291 257.08 276.661 258.37 275.881 260.35C275.101 262.27 274.321 264.43 273.541 266.83C272.761 269.17 272.041 271.54 271.381 273.94C270.781 276.34 270.391 278.32 270.211 279.88C271.051 278.68 271.921 277.06 272.821 275.02C273.721 272.92 274.531 270.73 275.251 268.45C276.031 266.17 276.661 263.95 277.141 261.79C277.621 259.63 277.831 257.86 277.771 256.48ZM317.538 303.28C318.318 303.64 318.918 304.06 319.338 304.54C319.758 304.96 320.028 305.38 320.148 305.8C320.328 306.22 320.388 306.61 320.328 306.97C320.328 307.33 320.298 307.63 320.238 307.87C320.058 308.65 319.788 309.64 319.428 310.84C319.068 312.04 318.648 313.27 318.168 314.53C317.748 315.79 317.298 316.99 316.818 318.13C316.338 319.21 315.858 320.05 315.378 320.65C314.838 321.37 314.118 321.85 313.218 322.09C312.318 322.39 311.118 322.6 309.618 322.72C307.398 322.96 305.568 322.69 304.128 321.91C302.688 321.07 301.488 319.96 300.528 318.58C299.568 317.2 298.818 315.64 298.278 313.9C297.798 312.16 297.408 310.48 297.108 308.86C296.748 310.06 296.418 311.11 296.118 312.01C295.878 312.85 295.638 313.6 295.398 314.26C295.218 314.92 295.038 315.52 294.858 316.06C294.738 316.54 294.588 316.99 294.408 317.41C293.928 318.67 293.268 319.78 292.428 320.74C291.588 321.7 290.418 322.24 288.918 322.36C285.678 322.54 283.248 321.79 281.628 320.11C280.008 318.43 279.018 315.7 278.658 311.92C278.478 309.76 278.508 307.33 278.748 304.63C278.988 301.93 279.438 299.26 280.098 296.62C280.818 293.92 281.778 291.46 282.978 289.24C284.178 286.96 285.618 285.19 287.298 283.93C288.498 283.09 289.848 282.64 291.348 282.58C292.908 282.52 294.858 282.79 297.198 283.39C297.258 281.83 297.438 279.73 297.738 277.09C298.038 274.45 298.548 271.63 299.268 268.63C299.988 265.57 301.008 262.57 302.328 259.63C303.648 256.63 305.358 254.02 307.458 251.8C308.538 250.66 309.858 250.18 311.418 250.36C313.038 250.48 314.568 250.93 316.008 251.71C317.268 252.31 318.288 253.06 319.068 253.96C319.848 254.86 320.118 256.09 319.878 257.65C319.398 260.89 318.828 263.68 318.168 266.02C317.568 268.36 316.818 270.58 315.918 272.68C315.018 274.78 313.908 276.88 312.588 278.98C311.328 281.08 309.768 283.48 307.908 286.18C307.608 288.7 307.308 291.49 307.008 294.55C306.768 297.55 306.618 300.52 306.558 303.46C306.558 306.34 306.708 309.07 307.008 311.65C307.308 314.23 307.878 316.36 308.718 318.04C309.018 318.7 309.378 319.12 309.798 319.3C310.218 319.48 310.668 319.36 311.148 318.94C311.568 318.58 312.018 317.92 312.498 316.96C313.038 315.94 313.578 314.74 314.118 313.36C314.718 311.92 315.288 310.36 315.828 308.68C316.428 306.94 316.998 305.14 317.538 303.28ZM287.388 319.12C287.988 319.3 288.618 318.94 289.278 318.04C289.998 317.14 290.658 315.91 291.258 314.35C291.918 312.73 292.548 310.87 293.148 308.77C293.748 306.61 294.258 304.36 294.678 302.02C295.098 299.68 295.428 297.34 295.668 295C295.968 292.6 296.118 290.38 296.118 288.34C295.398 287.32 294.588 287.32 293.688 288.34C292.848 289.3 292.008 290.86 291.168 293.02C290.328 295.12 289.548 297.58 288.828 300.4C288.108 303.22 287.538 305.95 287.118 308.59C286.698 311.23 286.488 313.54 286.488 315.52C286.488 317.5 286.788 318.7 287.388 319.12ZM315.828 256.48C315.348 257.08 314.718 258.37 313.938 260.35C313.158 262.27 312.378 264.43 311.598 266.83C310.818 269.17 310.098 271.54 309.438 273.94C308.838 276.34 308.448 278.32 308.268 279.88C309.108 278.68 309.978 277.06 310.878 275.02C311.778 272.92 312.588 270.73 313.308 268.45C314.088 266.17 314.718 263.95 315.198 261.79C315.678 259.63 315.888 257.86 315.828 256.48ZM360.635 303.82C361.655 304.12 362.285 304.69 362.525 305.53C362.825 306.31 362.885 306.88 362.705 307.24C361.745 309.1 360.605 310.84 359.285 312.46C358.025 314.02 356.495 315.31 354.695 316.33C354.275 316.57 353.945 316.75 353.705 316.87C353.525 316.93 353.375 317.02 353.255 317.14C353.195 317.2 353.135 317.32 353.075 317.5C353.075 317.68 353.075 317.98 353.075 318.4C352.835 321.04 352.385 323.71 351.725 326.41C351.125 329.17 350.285 331.78 349.205 334.24C348.125 336.76 346.835 339.1 345.335 341.26C343.835 343.42 342.095 345.25 340.115 346.75C338.015 348.43 335.765 349.48 333.365 349.9C331.025 350.38 328.535 350.17 325.895 349.27C325.355 348.97 324.815 348.73 324.275 348.55C323.735 348.37 323.195 348.19 322.655 348.01C320.855 347.41 319.385 346.54 318.245 345.4C317.105 344.26 316.265 342.97 315.725 341.53C315.185 340.15 314.915 338.68 314.915 337.12C314.855 335.62 315.065 334.15 315.545 332.71C316.625 329.41 318.545 326.71 321.305 324.61C322.805 323.35 324.425 322.3 326.165 321.46C327.965 320.62 329.795 319.9 331.655 319.3C333.515 318.7 335.375 318.16 337.235 317.68C339.095 317.2 340.925 316.69 342.725 316.15C343.265 315.97 343.745 315.73 344.165 315.43C344.585 315.13 344.825 314.65 344.885 313.99C345.125 311.11 345.275 308.41 345.335 305.89C345.395 303.37 345.425 300.85 345.425 298.33C343.565 301.09 341.705 303.58 339.845 305.8C338.045 308.02 335.945 310.12 333.545 312.1C332.405 313.06 331.085 313.6 329.585 313.72C328.145 313.78 326.705 313.6 325.265 313.18C323.825 312.7 322.505 312.01 321.305 311.11C320.105 310.15 319.205 309.1 318.605 307.96C317.585 305.98 317.015 304.06 316.895 302.2C316.715 300.34 316.805 298.51 317.165 296.71C317.465 294.85 317.885 293.02 318.425 291.22C319.025 289.36 319.595 287.5 320.135 285.64C320.195 285.34 320.255 285.01 320.315 284.65C320.435 284.23 320.585 283.87 320.765 283.57C320.945 283.21 321.155 282.94 321.395 282.76C321.695 282.52 322.055 282.43 322.475 282.49C323.435 282.55 324.395 282.76 325.355 283.12C326.315 283.42 327.245 283.81 328.145 284.29C328.565 284.41 328.955 284.74 329.315 285.28C329.735 285.76 329.885 286.18 329.765 286.54C329.285 288.28 328.745 290.32 328.145 292.66C327.545 295 327.035 297.31 326.615 299.59C326.195 301.81 325.925 303.85 325.805 305.71C325.745 307.57 325.985 308.92 326.525 309.76C327.065 310.6 327.965 310.78 329.225 310.3C330.485 309.76 332.285 308.2 334.625 305.62C337.265 302.74 339.515 299.62 341.375 296.26C343.295 292.84 345.125 289.42 346.865 286C347.225 285.16 347.855 284.68 348.755 284.56C349.715 284.38 350.705 284.44 351.725 284.74C352.745 284.98 353.615 285.37 354.335 285.91C355.115 286.45 355.505 286.96 355.505 287.44C355.505 287.98 355.415 289.09 355.235 290.77C355.055 292.45 354.845 294.46 354.605 296.8C354.365 299.14 354.125 301.69 353.885 304.45C353.705 307.15 353.525 309.79 353.345 312.37C354.905 311.59 356.255 310.45 357.395 308.95C358.595 307.45 359.675 305.74 360.635 303.82ZM343.985 319.21C341.945 319.81 339.935 320.38 337.955 320.92C336.035 321.4 334.175 321.97 332.375 322.63C330.635 323.35 328.955 324.16 327.335 325.06C325.775 326.02 324.365 327.22 323.105 328.66C321.785 330.16 320.885 331.72 320.405 333.34C319.985 335.02 319.865 336.58 320.045 338.02C320.285 339.52 320.795 340.78 321.575 341.8C322.415 342.88 323.435 343.6 324.635 343.96C325.835 344.38 327.185 344.32 328.685 343.78C330.245 343.3 331.865 342.19 333.545 340.45C336.245 337.57 338.405 334.36 340.025 330.82C341.645 327.34 342.965 323.47 343.985 319.21Z" fill="white"/>
</svg>
