<svg width="157" height="150" viewBox="0 0 157 150" fill="none" xmlns="http://www.w3.org/2000/svg">
<path d="M83.7575 35.9386C80.4995 32.6806 93.5313 22.9068 113.079 16.3909C113.079 -3.15662 126.111 -6.4145 126.111 13.1331C142.4 16.3911 148.916 19.649 152.174 22.9069C154.76 25.4933 145.658 35.9387 139.142 26.1648C136.721 22.5323 132.254 21.1944 127.07 21.2693C122.068 21.3416 116.398 22.7293 111.254 24.6402C104.85 27.019 99.2612 30.2086 96.7892 32.6806C94.6172 33.7666 93.5313 48.9703 83.7575 35.9386Z" fill="#DA3F0F"/>
<path d="M103.305 48.9704C99.2392 51.0033 89.1434 52.7351 89.1434 70.9795C89.1434 77.4954 99.3955 76.1922 96.7892 70.9795C93.5312 64.4636 100.844 56.7166 103.305 55.4863C109.821 52.2283 130.056 49.3143 135.884 52.2283C142.4 55.4863 145.658 62.0021 142.4 65.2601C140.228 67.432 137.513 68.518 142.4 71.7759C145.658 73.9479 152.174 76.9886 152.174 71.7759C148.916 62.0021 148.228 48.6264 142.4 45.7125C140.141 44.5829 135.532 44.2366 130.203 44.402C124.007 44.5943 116.837 45.4783 111.254 46.6272C107.789 47.3402 104.935 48.1553 103.305 48.9704Z" fill="#DA3F0F"/>
<path fill-rule="evenodd" clip-rule="evenodd" d="M118.214 72.8932C118.509 72.8743 118.775 72.8572 119.005 72.8459C119.888 72.8023 120.989 72.8698 122.243 72.9466C124.525 73.0863 127.312 73.257 130.203 72.8459C134.682 72.2087 133.936 63.5141 132.07 59.7814C130.203 56.0487 121.468 59.1849 120.871 59.7814C120.275 60.3779 115.887 60.3959 115.272 59.7814C114.32 58.8289 107.087 57.635 105.941 61.6477C102.438 73.9063 113.725 73.1815 118.214 72.8932ZM113.406 66.2573C112.784 65.013 119.817 63.4546 122.452 64.3328C124.318 64.9549 123.945 67.562 122.452 69.0551C119.963 70.2993 114.899 69.2434 113.406 66.2573Z" fill="#DA3F0F"/>
<path fill-rule="evenodd" clip-rule="evenodd" d="M111.254 24.6402C109.914 29.4702 108.039 40.6296 111.254 46.6272C116.837 45.4783 124.007 44.5943 130.203 44.402C132.71 38.1409 129.159 26.3714 127.07 21.2693C122.068 21.3416 116.398 22.7293 111.254 24.6402ZM113.051 29.8616C112.419 29.23 112.498 28.3455 113.12 27.1013C114.987 25.235 125.203 25.235 125.203 25.235C125.203 25.235 127 26.6545 127 27.9953C127 29.8616 114.917 31.728 113.051 29.8616ZM112.636 35.9589C112.488 35.8139 112.429 34.8386 113.051 33.5944C114.917 31.728 126.111 31.728 126.111 31.728C126.111 31.728 127.562 32.7518 127.562 34.0926C127.562 35.9589 114.032 37.3271 112.636 35.9589ZM113.12 42.9261C112.489 42.2944 112.784 42.304 113.406 41.0598C115.272 39.1934 127.356 39.1934 127.356 39.1934C127.356 39.1934 129.631 39.5948 128.936 41.0598C128.051 42.9261 114.987 44.7925 113.12 42.9261Z" fill="#DA3F0F"/>
<path d="M53.0586 1.61454C51.8732 -1.34906 42.7453 -2.29741 15.7172 17.618C10.3827 21.1743 13.939 26.5088 17.4954 22.9524C18.5685 21.8793 35.0103 10.6386 38.8333 8.72715C42.3896 6.94899 51.2804 6.94899 49.5022 10.5053C47.7241 14.0616 39.7107 16.0955 32.1986 21.8131C29.9424 15.8398 21.0516 14.0616 27.464 25.4678C16.4399 34.1051 10.3827 35.3996 8.60449 44.2904C8.60449 49.6249 15.7172 49.6249 15.7171 44.2904C15.717 35.3996 53.0586 21.1743 56.6149 14.0616C58.393 10.5053 56.6149 6.94899 53.0586 1.61454Z" fill="#DA3F0F"/>
<path d="M63.7276 24.567C62.5422 21.6034 53.4143 20.655 26.3862 40.5705C21.0516 44.1267 24.608 49.4612 28.1644 45.9049C29.2375 44.8318 45.6793 33.5911 49.5022 31.6796C53.0586 29.9014 61.9494 29.9014 60.1712 33.4578C58.3931 37.0141 50.3797 39.0479 42.8676 44.7655C40.6114 38.7923 31.7206 37.0141 38.133 48.4202C27.1089 57.0575 17.4953 63.8502 15.7172 72.741C15.7172 78.0755 24.404 82.1864 22.8298 72.741C21.0516 62.072 63.7275 44.1267 67.2839 37.0141C69.062 33.4578 67.2839 29.9014 63.7276 24.567Z" fill="#DA3F0F"/>
<path fill-rule="evenodd" clip-rule="evenodd" d="M87.5247 130.686C83.9886 122.73 87.0042 104.296 95.3237 97.7965C103.643 91.2965 141.829 86.5834 149.954 96.9828C153.401 101.395 159.059 129.179 141.473 135.429C133.608 138.224 91.9448 140.63 87.5247 130.686ZM115.928 98.4461C120.659 98.5006 115.731 107.801 114.563 109.561C112.256 113.038 102.766 113.753 95.3565 112.844C93.5041 112.616 99.0286 98.2515 115.928 98.4461ZM123.826 110.698C121.77 108.067 121.001 98.0222 123.565 97.5035C135.135 95.1633 145.112 105.79 144.657 109.495C144.202 113.2 125.45 112.778 123.826 110.698ZM121.063 117.88C118.983 119.505 120.212 130.938 123.176 131.302C126.881 131.757 142.155 129.872 145.6 117.132C146.145 115.118 123.143 116.255 121.063 117.88ZM97.2418 128.118C92.9779 126.09 94.027 120.581 96.5266 118.628C98.6065 117.003 114.129 117.58 115.278 119.05C116.903 121.13 115.994 128.54 113.914 130.165C111.834 131.79 102.572 130.653 97.2418 128.118Z" fill="#DA3F0F"/>
<path d="M36.1315 82.003C32.0746 81.8613 32.6327 85.2657 32.5146 88.6465C25.753 88.4104 15.4927 91.437 12.0529 93.0093C7.18823 95.2329 7.78663 118.247 7.49148 126.699C7.19633 135.151 0.434782 134.915 0.375752 136.605C0.316722 138.296 0.959133 145.066 8.70963 140.281C13.8989 137.077 13.212 108.282 15.1385 101.579C17.065 94.8768 27.2664 93.5406 42.4798 94.0718C57.6933 94.6031 50.2825 112.961 53.132 128.293C55.9815 143.624 64.4925 142.229 71.254 142.465C78.0156 142.701 77.569 132.795 68.1093 135.586C62.9791 137.099 54.984 118.085 57.3982 103.055C59.5608 89.5909 46.1164 86.8649 39.3352 87.1922C38.8111 86.0456 40.1884 82.1447 36.1315 82.003Z" fill="#DA3F0F"/>
<path fill-rule="evenodd" clip-rule="evenodd" d="M43.5799 111.035C40.8139 113.614 28.1894 115.575 21.4868 113.648C19.1806 112.985 19.2818 111.481 19.6673 108.915C19.7667 108.253 18.7953 108.256 17.7752 108.258C16.8416 108.26 15.8672 108.263 15.6356 107.756C14.7821 105.889 16.9982 105.524 18.5182 105.274C19.2381 105.155 19.8018 105.062 19.8093 104.848C20.5138 102.779 21.6593 100.675 21.9477 100.146L21.9591 100.125C23.0767 98.0721 26.0638 98.0238 30.1918 97.957C32.7431 97.9158 35.7301 97.8675 38.981 97.3345C43.7389 96.5545 44.1784 98.2684 44.5371 99.6671C44.82 100.77 45.0526 101.678 47.3149 101.01C50.1207 100.183 50.5776 104.509 47.1378 106.082C46.3218 106.455 45.8626 107.367 45.3503 108.384C44.8967 109.285 44.4014 110.269 43.5799 111.035ZM30.0838 102.152C30.1056 101.527 22.1883 100.859 22.8597 104.954C22.9875 105.734 29.9816 105.08 30.0128 104.186L30.0838 102.152ZM28.8895 107.201C28.1044 106.359 24.4834 107.047 22.7532 108.005C21.4407 108.731 24.3413 111.114 25.6971 111.162C26.7138 111.197 28.9579 111.072 29.7997 110.287C30.852 109.306 29.8708 108.253 28.8895 107.201ZM34.0089 106.362C33.5381 107.703 32.8506 110.393 33.8669 110.429C35.1373 110.473 43.1246 107.698 42.0764 105.625C41.7133 104.907 36.1836 105.396 34.0089 106.362ZM40.2872 101.491C39.3059 100.438 35.2388 100.296 34.1865 101.278C34.0234 101.43 33.0987 103.276 34.1155 103.311C34.3837 103.321 34.8334 103.352 35.377 103.39C36.8944 103.495 39.1432 103.651 40.2162 103.524C41.6736 103.352 40.9749 102.228 40.2872 101.491Z" fill="#DA3F0F"/>
<path fill-rule="evenodd" clip-rule="evenodd" d="M19.8144 119.1C17.9067 125.142 15.9572 136.127 21.7235 137.492C22.8192 137.751 24.28 137.33 26.2742 136.756L26.8451 136.592C26.0482 139.978 25.2273 144.123 18.7613 144.891C16.0956 145.208 18.5659 150.487 26.4879 146.82C27.9295 146.153 28.3678 143.723 28.9999 141.199C29.4606 139.359 29.9617 137.358 30.8304 135.596C31.5531 135.496 33.4069 135.263 35.0402 135.135C34.5593 139.19 36.6558 147.175 41.7398 147.353C49.8741 147.637 49.0716 143.537 41.8818 143.286C39.8482 143.215 39.1895 138.102 39.3011 134.906C40.3863 134.943 41.5305 135.028 42.7371 135.171C49.8191 136.437 47.8735 119.299 42.2903 116.831C39.7901 115.726 19.9564 115.033 19.8144 119.1ZM25.3775 120.313C27.0612 118.743 34.2607 118.587 37.65 118.705C38.4635 118.734 39.9989 119.466 40.6649 119.829C41.5633 120.318 21.9418 123.517 23.2729 122.275L25.3775 120.313ZM23.1664 125.326C22.5652 125.886 22.5288 126.721 24.1557 126.778C24.9183 126.805 43.6058 125.092 42.5565 123.967L41.5752 122.914C40.7228 121.587 24.2187 124.344 23.1664 125.326ZM23.8991 133.495C22.2722 133.439 22.6144 131.415 22.9888 130.41C24.0766 128.412 40.4163 126.946 42.4399 127.304C44.7707 127.717 43.4631 130.693 41.2811 131.336C38.1952 132.246 27.3688 133.617 23.8991 133.495Z" fill="#DA3F0F"/>
</svg>
