<svg width="187" height="188" viewBox="0 0 187 188" fill="none" xmlns="http://www.w3.org/2000/svg">
<path d="M12.75 86.4453L11.2852 84.7852V74.2383L13.1406 72.1875L82.6719 72.2852L82.4766 66.5234L82.1836 66.3281H14.0195L13.1406 66.5234L11.1875 65.5469L11.0898 53.2422L12.457 51.6797L13.5312 51.3867L82.2812 51.1914L82.3789 35.7617H76.5195V42.4023L76.7148 43.3789L76.0312 44.8438L74.1758 45.5273H54.7422L53.2773 43.7695V42.5977L53.7656 41.6211L54.9375 41.0352H72.0273V36.7383L71.7344 35.7617H46.4414C46.7018 39.0169 46.5065 42.0443 45.8555 44.8438C43.8372 45.6901 36.3177 45.9831 23.2969 45.7227L21.832 44.3555V42.793L23.1016 41.3281H40.7773L41.6562 41.0352V35.7617H12.6523L11.1875 34.2969V32.7344L12.6523 30.9766H84.332L86.6758 32.1484C87.1966 33.9714 87.3919 37.5846 87.2617 42.9883C87.1315 48.3919 87.0664 52.4284 87.0664 55.0977L84.0391 55.9766H16.3633C15.9076 57.6042 15.7773 59.3945 15.9727 61.3477L16.3633 61.7383H85.7969L87.1641 62.9102L87.457 65.5469C87.5872 69.4531 87.4896 73.0339 87.1641 76.2891L85.3086 76.582H15.9727L15.875 81.9531H84.332L85.7969 82.6367L86.1875 85.1758L85.7969 85.8594L84.0391 86.6406L12.75 86.4453ZM2.78906 86.8359L1.03125 85.8594L0.738281 84.8828V22.3828L2.78906 20.0391L82.4766 20.1367V18.0859V5.19531L67.2422 5V5.48828V13.2031L66.3633 14.8633C64.5404 15.319 62.6198 15.4818 60.6016 15.3516C57.6068 15.1562 54.5794 15.0911 51.5195 15.1562C48.4596 15.2214 45.5625 14.8633 42.8281 14.082L42.5352 12.4219L43.1211 10.957C45.0091 10.5013 47.0599 10.3711 49.2734 10.5664H62.2617V5H36.7734L36.8711 15.5469C22.4831 15.9375 14.3451 15.6445 12.457 14.668L11.9688 13.1055L12.8477 11.6406C13.5638 11.1849 14.3776 10.9896 15.2891 11.0547L31.793 10.957L31.8906 5.48828L31.3047 5L2.30078 5.19531L0.835938 4.31641L0.445312 2.16797L1.8125 0.703125L3.76562 0.410156L84.918 0.214844L86.7734 1.67969C87.2292 4.9349 87.3919 8.32031 87.2617 11.8359C87.1966 15.3516 87.1966 18.8346 87.2617 22.2852L86.5781 23.6523L85.1133 24.5312L6.20703 24.6289C5.7513 25.4102 5.58854 26.224 5.71875 27.0703V79.1211C5.84896 80.8138 5.32812 83.2227 4.15625 86.3477L2.78906 86.8359ZM103.668 86.25L101.715 84.9805L101.422 83.8086V54.6094L102.691 52.2656L103.473 51.7773H184.234C185.341 52.1029 186.057 52.819 186.383 53.9258V84.5898L185.016 86.0547L184.234 86.25H153.18L151.812 84.8828V83.125L152.789 81.9531L153.375 81.6602H181.891V56.1719H106.012V81.6602H134.527L135.895 82.832L136.188 84.2969L135.406 85.7617L134.527 86.25H103.668ZM112.945 76.2891L111.676 74.9219L111.578 65.1562L112.848 62.2266L113.434 61.8359H174.469L176.129 63.3984L176.227 64.1797V74.1406L175.348 75.8984L174.664 76.2891H112.945ZM171.637 71.6992L171.832 66.8164L171.441 66.2305H116.07V71.7969H171.441L171.637 71.6992ZM102.887 46.2109L101.52 44.9414L101.422 44.2578V34.4922L102.496 32.1484L103.18 31.6602H184.43L186.383 33.8086V44.5508L185.016 46.0156L184.137 46.2109H102.887ZM181.891 41.5234V36.1523H106.012V41.6211L181.891 41.5234ZM103.473 26.0938L102.008 25.4102L101.422 23.9453V14.375L102.301 12.2266C102.887 11.6406 103.668 11.3477 104.645 11.3477H131.793V5.97656H103.863L102.105 4.90234L101.715 2.85156L102.984 1.48438L103.863 1.19141H133.16L135.504 1.97266L136.285 3.14453V13.3984L135.113 15.2539L133.746 16.0352H106.012V21.1133L106.402 21.6992H132.477L141.754 12.5195V3.4375L142.828 1.67969L144.879 1.48438L146.051 2.46094L146.344 3.14453V12.8125L155.328 21.6992H181.5C181.891 19.9414 182.021 18.0534 181.891 16.0352H154.254L152.301 14.5703L151.91 13.8867V2.85156L153.277 1.48438L154.938 1.19141H183.844L185.504 1.97266L186.188 3.73047L185.504 5.19531L184.039 5.97656H156.305V11.3477H183.258C184.234 11.3477 185.016 11.7383 185.602 12.5195L186.383 13.6914V24.3359L185.211 25.8008L184.43 26.0938H154.254C152.301 25.3125 150.478 24.0104 148.785 22.1875C147.158 20.2995 145.562 18.6393 144 17.207C141.982 18.7044 140.191 20.332 138.629 22.0898C137.066 23.7826 135.406 25.1172 133.648 26.0938H103.473ZM5.42578 186.543L2.49609 184.785L1.91016 184.199V104.512L1.8125 102.949L2.69141 101.582L4.35156 100.703H34.7227L36.1875 101.582L36.5781 104.121L36.1875 104.805L34.0391 105.488H6.40234V181.66C7.96484 182.116 9.65755 182.246 11.4805 182.051L11.7734 181.66V112.91L12.457 111.641L13.6289 110.859H41.9492C41.819 107.865 42.0469 105.065 42.6328 102.461L44.9766 102.07L46.3438 103.438V110.859H73.9805L75.6406 111.738L76.2266 112.52V182.148H81.4023V105.684H54.0586L52.3984 104.805L51.9102 102.656L53.082 101.289L53.7656 100.996H83.7461L85.4062 102.07L85.8945 102.656V182.637L86.1875 184.688L84.5273 186.641L73.6875 186.738C72.7109 186.543 72.0599 185.957 71.7344 184.98V115.742L71.2461 115.254H16.6562L16.168 115.742V183.223L15.1914 185.371C12.457 186.673 9.20182 187.064 5.42578 186.543ZM50.25 186.836L48.1992 185.664L47.418 184.199V173.652L48.1992 172.09L49.3711 171.309H61.4805C61.9362 169.811 62.099 168.216 61.9688 166.523C59.0391 166.654 56.2396 166.328 53.5703 165.547C50.901 164.766 49.013 163.333 47.9062 161.25L44 157.344L34.7227 165.938L26.6172 166.23V171.113H38.9219L40.2891 172.48L40.3867 183.125C40.582 184.492 40.224 185.404 39.3125 185.859L38.4336 186.543H22.2227L21.5391 185.957L20.9531 183.516L22.7109 182.148H35.8945V175.508H35.0156L24.7617 175.703L22.9062 174.824C22.0599 171.569 21.7669 168.086 22.0273 164.375L23.1992 162.129C25.8034 161.934 28.1146 161.836 30.1328 161.836C32.2161 161.771 34.8854 160.046 38.1406 156.66L38.4336 155.977H24.1758L22.8086 154.805V152.949L24.1758 151.582H41.5586L41.6562 146.504L41.168 146.016H23.8828C22.9714 145.82 22.3854 145.267 22.125 144.355V142.891L23.3945 141.621H41.5586L41.6562 136.543L41.168 135.957H23.7852C22.8737 135.697 22.2878 135.078 22.0273 134.102V123.848L23.2969 121.797L24.2734 121.309H35.6016L37.2617 122.773V124.629L36.6758 125.312L35.9922 125.703H26.8125C26.3568 127.396 26.2266 129.154 26.4219 130.977L26.8125 131.562H41.5586C41.6888 125.638 42.0794 122.22 42.7305 121.309L44.5859 120.625L45.9531 121.309L46.4414 121.992V131.562H61.2852V125.703C58.0951 125.898 55.1654 125.768 52.4961 125.312L51.8125 122.871L52.4961 121.797C55.7513 121.016 59.2995 120.788 63.1406 121.113L65.0938 121.992C65.7448 125.117 66.0052 128.405 65.875 131.855L64.7031 135.566L63.9219 135.957H46.4414V141.035L46.9297 141.621H64.6055L65.9727 142.891V144.355L64.8008 145.723L64.0195 146.016H46.4414V151.582H63.9219L65.2891 152.949V154.805L63.9219 155.977H49.957V156.465L54.9375 161.543H64.1172L65.875 162.91L66.3633 163.691V173.164L64.5078 175.508L63.8242 175.703H52.1055V182.148H64.3125L65.875 183.027L66.3633 185.078L65.1914 186.543L64.3125 186.836H50.25ZM102.594 186.738L101.227 185.371L101.129 184.395V103.633L102.008 102.168L104.059 100.996H184.332L185.992 102.168L186.871 103.633V184.98L185.504 186.445L184.82 186.738H102.594ZM111.09 182.051V175.41L111.871 173.262L113.434 172.188H171.734C172.125 170.69 172.223 168.997 172.027 167.109L171.734 166.621H113.043L111.383 164.766V154.316L112.262 152.559L113.043 152.07H171.734C172.125 150.378 172.223 148.522 172.027 146.504H105.816V182.051H111.09ZM182.184 182.051V146.504H176.617C177.073 150.085 176.878 152.884 176.031 154.902L174.469 156.465H115.875V162.129H174.469C175.38 162.65 176.096 163.398 176.617 164.375V175.117L175.445 176.582L174.664 176.777H115.875V182.051H182.184ZM171.93 141.621L172.027 136.25H113.434C112.392 135.924 111.708 135.208 111.383 134.102L111.48 124.238L112.262 122.09L114.605 121.699H171.734C172.125 119.941 172.223 118.053 172.027 116.035H113.629L112.262 115.254C111.22 114.668 110.829 111.608 111.09 106.074H105.816V141.816H171.734L171.93 141.621ZM182.184 141.914V105.977H115.875V111.25H173.492L175.641 112.031L176.617 113.789V123.945L175.836 125.41L174.664 126.094H115.875V131.27L116.266 131.758H174.957L176.422 132.93C176.812 135.404 176.943 138.398 176.812 141.914H182.184Z" fill="#D71709"/>
</svg>
