<svg width="500" height="500" viewBox="0 0 500 500" fill="none" xmlns="http://www.w3.org/2000/svg">
<mask id="mask0_915_94" style="mask-type:alpha" maskUnits="userSpaceOnUse" x="0" y="0" width="500" height="500">
<rect x="1" y="1" width="498" height="498" fill="#3C3C3C" stroke="#DFE245" stroke-width="2"/>
</mask>
<g mask="url(#mask0_915_94)">
<rect x="1" y="1" width="498" height="498" fill="#3C3C3C" stroke="#FF00C7" stroke-width="2"/>
<g filter="url(#filter0_f_915_94)">
<path d="M247.742 359.224C216.92 336.079 196.909 307.557 189.329 289.609L199.543 281.039C204.093 281.437 214.077 280.341 222.33 277.08M247.742 359.224C264.737 371.985 285.019 383.111 308.317 389.928C339.077 398.928 348.528 417.107 369.955 442.641L395.489 421.215M247.742 359.224L339.313 468.353L395.489 421.215M230.522 272.449C229.914 272.959 229.26 273.444 228.567 273.904M395.489 421.215L309.784 319.076M395.489 421.215L421.024 399.789M395.489 421.215C336.656 309.322 317.258 259.235 279.402 231.248M395.489 421.215C295.512 343.845 249.555 316.045 228.567 273.904M309.784 319.076L299.571 327.646M309.784 319.076L319.999 310.505M421.024 399.789C399.598 374.254 383.337 361.79 379.815 329.935C377.147 305.807 369.712 283.901 360.096 264.948M421.024 399.789L451.666 374.077L360.096 264.948M360.096 264.948C342.655 230.575 318.041 205.915 301.682 195.333L291.468 203.904C291.088 208.251 288.504 217.242 284.226 224.629M279.402 231.248C278.829 231.851 278.238 232.411 277.63 232.921C278.328 232.335 279.003 231.684 279.655 230.979M279.402 231.248C270.27 224.497 260.064 219.032 247.97 214.295C234.294 208.366 213.866 225.507 217.329 240.006C219.894 252.738 223.504 263.738 228.567 273.904M279.402 231.248C279.487 231.159 279.571 231.069 279.655 230.979M299.571 327.646L282.43 307.218L302.858 290.077L319.999 310.505M299.571 327.646L319.999 310.505M222.33 277.08C206.277 233.057 158.158 159.117 132.446 128.475C125.637 134.188 109.482 152.965 99.3391 182.363L73.6276 151.721C89.7709 129.474 161.268 69.4803 185.98 57.4461L211.692 88.0878C180.979 92.9721 159.683 105.621 152.873 111.334C178.585 141.976 243.046 202.204 283.613 225.657M222.33 277.08C224.587 276.188 226.715 275.134 228.567 273.904M283.613 225.657C283.821 225.318 284.026 224.975 284.226 224.629M283.613 225.657C282.413 227.611 281.09 229.426 279.655 230.979M379.683 462.763L396.824 483.191M396.824 483.191L381.503 496.047L398.674 525.153L500.813 439.448L473.429 418.912L458.108 431.768M396.824 483.191L458.108 431.768M458.108 431.768L440.967 411.34M284.226 224.629C282.868 226.974 281.339 229.157 279.655 230.979" stroke="#FF00C7" stroke-width="8"/>
<path d="M141.383 261.741L107.744 221.652C107.567 221.44 107.594 221.125 107.806 220.947L127.468 204.449C127.679 204.272 127.995 204.299 128.172 204.511L161.811 244.6C161.989 244.812 161.961 245.127 161.75 245.305L142.088 261.803C141.876 261.981 141.561 261.953 141.383 261.741Z" fill="url(#paint0_linear_915_94)" stroke="#FF00C7" stroke-width="8"/>
<path d="M263.95 158.897L230.311 118.808C230.133 118.596 230.161 118.281 230.372 118.103L250.034 101.605C250.246 101.428 250.561 101.455 250.739 101.667L284.378 141.756C284.555 141.968 284.528 142.283 284.316 142.461L264.654 158.959C264.443 159.137 264.127 159.109 263.95 158.897Z" fill="url(#paint1_linear_915_94)" stroke="#FF00C7" stroke-width="8"/>
<path d="M329.935 486.449L296.296 446.36C296.119 446.148 296.146 445.833 296.358 445.655L316.019 429.157C316.231 428.98 316.546 429.007 316.724 429.219L350.363 469.308C350.541 469.52 350.513 469.835 350.301 470.013L330.64 486.511C330.428 486.689 330.113 486.661 329.935 486.449Z" fill="url(#paint2_linear_915_94)" stroke="#FF00C7" stroke-width="8"/>
<path d="M452.502 383.605L418.862 343.515C418.685 343.304 418.713 342.988 418.924 342.811L438.586 326.313C438.797 326.135 439.113 326.163 439.29 326.374L472.929 366.464C473.107 366.676 473.079 366.991 472.868 367.168L453.206 383.667C452.995 383.844 452.679 383.817 452.502 383.605Z" fill="url(#paint3_linear_915_94)" stroke="#FF00C7" stroke-width="8"/>
</g>
<path d="M308.317 389.928C339.077 398.928 348.528 417.107 369.955 442.641L395.489 421.215C295.512 343.845 249.555 316.045 228.567 273.904C226.715 275.134 224.587 276.188 222.33 277.08C214.077 280.341 204.093 281.437 199.543 281.039L189.329 289.609C196.909 307.557 216.92 336.079 247.742 359.224C264.737 371.985 285.019 383.111 308.317 389.928Z" fill="url(#paint4_linear_915_94)"/>
<path d="M421.024 399.789C399.598 374.254 383.337 361.79 379.815 329.935C377.147 305.807 369.712 283.901 360.096 264.948C342.655 230.575 318.041 205.915 301.682 195.333L291.468 203.904C291.088 208.251 288.504 217.242 284.226 224.629C284.026 224.975 283.821 225.318 283.613 225.657C282.413 227.611 281.09 229.426 279.655 230.979C279.571 231.069 279.487 231.159 279.402 231.248C317.258 259.235 336.656 309.322 395.489 421.215L421.024 399.789Z" fill="url(#paint5_linear_915_94)"/>
<path d="M282.43 307.218L299.571 327.646L309.784 319.076L319.999 310.505L302.858 290.077L282.43 307.218Z" fill="url(#paint6_linear_915_94)"/>
<path d="M396.824 483.191L381.503 496.047L398.674 525.153L500.813 439.448L473.429 418.912L458.108 431.768L396.824 483.191Z" fill="url(#paint7_linear_915_94)"/>
<path d="M247.97 214.295C260.064 219.032 270.27 224.497 279.402 231.248C279.487 231.159 279.571 231.069 279.655 230.979C281.09 229.426 282.413 227.611 283.613 225.657C243.046 202.204 178.585 141.976 152.873 111.334C159.683 105.621 180.979 92.9721 211.692 88.0878L185.98 57.4461C161.268 69.4803 89.7709 129.474 73.6276 151.721L99.3391 182.363C109.482 152.965 125.637 134.188 132.446 128.475C158.158 159.117 206.277 233.057 222.33 277.08C224.587 276.188 226.715 275.134 228.567 273.904C223.504 263.738 219.894 252.738 217.329 240.006C213.866 225.507 234.294 208.366 247.97 214.295Z" fill="url(#paint8_linear_915_94)"/>
<path d="M247.742 359.224C216.92 336.079 196.909 307.557 189.329 289.609L199.543 281.039C204.093 281.437 214.077 280.341 222.33 277.08M247.742 359.224C264.737 371.985 285.019 383.111 308.317 389.928C339.077 398.928 348.528 417.107 369.955 442.641L395.489 421.215M247.742 359.224L339.313 468.353L395.489 421.215M228.567 273.904C249.555 316.045 295.512 343.845 395.489 421.215M228.567 273.904C226.715 275.134 224.587 276.188 222.33 277.08M228.567 273.904C223.504 263.738 219.894 252.738 217.329 240.006C213.866 225.507 234.294 208.366 247.97 214.295C260.064 219.032 270.27 224.497 279.402 231.248M395.489 421.215L309.784 319.076M395.489 421.215L421.024 399.789M395.489 421.215C336.656 309.322 317.258 259.235 279.402 231.248M309.784 319.076L299.571 327.646M309.784 319.076L319.999 310.505M421.024 399.789C399.598 374.254 383.337 361.79 379.815 329.935C377.147 305.807 369.712 283.901 360.096 264.948M421.024 399.789L451.666 374.077L360.096 264.948M360.096 264.948C342.655 230.575 318.041 205.915 301.682 195.333L291.468 203.904C291.088 208.251 288.504 217.242 284.226 224.629M279.402 231.248C279.487 231.159 279.571 231.069 279.655 230.979M279.402 231.248C280.1 230.663 279.003 231.684 279.655 230.979M299.571 327.646L282.43 307.218L302.858 290.077L319.999 310.505M299.571 327.646L319.999 310.505M222.33 277.08C206.277 233.057 158.158 159.117 132.446 128.475C125.637 134.188 109.482 152.965 99.3391 182.363L73.6276 151.721C89.7709 129.474 161.268 69.4803 185.98 57.4461L211.692 88.0878C180.979 92.9721 159.683 105.621 152.873 111.334C178.585 141.976 243.046 202.204 283.613 225.657M283.613 225.657C283.821 225.318 284.026 224.975 284.226 224.629M283.613 225.657C282.413 227.611 281.09 229.426 279.655 230.979M379.683 462.763L396.824 483.191M396.824 483.191L381.503 496.047L398.674 525.153L500.813 439.448L473.429 418.912L458.108 431.768M396.824 483.191L458.108 431.768M458.108 431.768L440.967 411.34M284.226 224.629C282.868 226.974 281.339 229.157 279.655 230.979" stroke="url(#paint9_linear_915_94)"/>
<path d="M141.383 261.741L107.744 221.652C107.567 221.44 107.594 221.125 107.806 220.947L127.468 204.449C127.679 204.272 127.995 204.299 128.172 204.511L161.811 244.6C161.989 244.812 161.961 245.127 161.75 245.305L142.088 261.803C141.876 261.981 141.561 261.953 141.383 261.741Z" fill="url(#paint10_linear_915_94)" stroke="url(#paint11_linear_915_94)"/>
<path d="M263.95 158.897L230.311 118.808C230.133 118.596 230.161 118.281 230.372 118.103L250.034 101.605C250.246 101.428 250.561 101.455 250.739 101.667L284.378 141.756C284.555 141.968 284.528 142.283 284.316 142.461L264.654 158.959C264.443 159.137 264.127 159.109 263.95 158.897Z" fill="url(#paint12_linear_915_94)" stroke="url(#paint13_linear_915_94)"/>
<path d="M329.935 486.449L296.296 446.36C296.119 446.148 296.146 445.833 296.358 445.655L316.019 429.157C316.231 428.98 316.546 429.007 316.724 429.219L350.363 469.308C350.541 469.52 350.513 469.835 350.301 470.013L330.64 486.511C330.428 486.689 330.113 486.661 329.935 486.449Z" fill="url(#paint14_linear_915_94)" stroke="url(#paint15_linear_915_94)"/>
<path d="M452.502 383.605L418.862 343.515C418.685 343.304 418.713 342.988 418.924 342.811L438.586 326.313C438.797 326.135 439.113 326.163 439.29 326.374L472.929 366.464C473.107 366.676 473.079 366.991 472.868 367.168L453.206 383.667C452.995 383.844 452.679 383.817 452.502 383.605Z" fill="url(#paint16_linear_915_94)" stroke="url(#paint17_linear_915_94)"/>
<rect x="21.832" y="21.833" width="456.333" height="456.333" stroke="#FF00C7" stroke-width="2"/>
<g filter="url(#filter1_f_915_94)">
<path d="M154.697 239H142.697C141.684 239 140.937 238.787 140.457 238.36C140.03 237.88 139.817 237.133 139.817 236.12V184.28C139.817 183.267 140.03 182.547 140.457 182.12C140.937 181.64 141.684 181.4 142.697 181.4H151.017C152.03 181.4 152.884 181.56 153.577 181.88C154.324 182.2 155.044 182.76 155.737 183.56L171.257 201.32V184.28C171.257 183.267 171.47 182.547 171.897 182.12C172.377 181.64 173.124 181.4 174.137 181.4H186.137C187.15 181.4 187.87 181.64 188.297 182.12C188.777 182.547 189.017 183.267 189.017 184.28V236.12C189.017 237.133 188.777 237.88 188.297 238.36C187.87 238.787 187.15 239 186.137 239H174.137C173.124 239 172.377 238.787 171.897 238.36C171.47 237.88 171.257 237.133 171.257 236.12V226.28L157.577 209.72V236.12C157.577 237.133 157.337 237.88 156.857 238.36C156.43 238.787 155.71 239 154.697 239ZM240.051 239H202.931C201.918 239 201.171 238.787 200.691 238.36C200.265 237.88 200.051 237.133 200.051 236.12V184.28C200.051 183.267 200.265 182.547 200.691 182.12C201.171 181.64 201.918 181.4 202.931 181.4H240.051C241.065 181.4 241.785 181.64 242.211 182.12C242.691 182.547 242.931 183.267 242.931 184.28V193.64C242.931 194.653 242.691 195.4 242.211 195.88C241.785 196.307 241.065 196.52 240.051 196.52H217.971V202.68H233.571C234.585 202.68 235.305 202.92 235.731 203.4C236.211 203.827 236.451 204.547 236.451 205.56V214.12C236.451 215.133 236.211 215.88 235.731 216.36C235.305 216.787 234.585 217 233.571 217H217.971V223.88H240.051C241.065 223.88 241.785 224.12 242.211 224.6C242.691 225.027 242.931 225.747 242.931 226.76V236.12C242.931 237.133 242.691 237.88 242.211 238.36C241.785 238.787 241.065 239 240.051 239ZM300.804 223.88C300.804 226.333 300.431 228.573 299.684 230.6C298.991 232.573 297.711 234.28 295.844 235.72C294.031 237.107 291.498 238.2 288.244 239C285.044 239.8 280.964 240.2 276.004 240.2C271.044 240.2 266.938 239.8 263.684 239C260.431 238.2 257.871 237.107 256.004 235.72C254.191 234.28 252.911 232.573 252.164 230.6C251.471 228.573 251.124 226.333 251.124 223.88V196.6C251.124 194.147 251.471 191.933 252.164 189.96C252.911 187.933 254.191 186.2 256.004 184.76C257.871 183.32 260.431 182.2 263.684 181.4C266.938 180.6 271.044 180.2 276.004 180.2C280.964 180.2 285.044 180.6 288.244 181.4C291.498 182.2 294.031 183.32 295.844 184.76C297.711 186.2 298.991 187.933 299.684 189.96C300.431 191.933 300.804 194.147 300.804 196.6V223.88ZM269.284 221C269.284 222.067 269.684 222.973 270.484 223.72C271.284 224.413 273.124 224.76 276.004 224.76C278.884 224.76 280.724 224.413 281.524 223.72C282.324 222.973 282.724 222.067 282.724 221V199.48C282.724 198.467 282.324 197.613 281.524 196.92C280.724 196.173 278.884 195.8 276.004 195.8C273.124 195.8 271.284 196.173 270.484 196.92C269.684 197.613 269.284 198.467 269.284 199.48V221ZM325.869 239H313.869C312.855 239 312.109 238.787 311.629 238.36C311.202 237.88 310.989 237.133 310.989 236.12V184.28C310.989 183.267 311.202 182.547 311.629 182.12C312.109 181.64 312.855 181.4 313.869 181.4H322.189C323.202 181.4 324.055 181.56 324.749 181.88C325.495 182.2 326.215 182.76 326.909 183.56L342.429 201.32V184.28C342.429 183.267 342.642 182.547 343.069 182.12C343.549 181.64 344.295 181.4 345.309 181.4H357.309C358.322 181.4 359.042 181.64 359.469 182.12C359.949 182.547 360.189 183.267 360.189 184.28V236.12C360.189 237.133 359.949 237.88 359.469 238.36C359.042 238.787 358.322 239 357.309 239H345.309C344.295 239 343.549 238.787 343.069 238.36C342.642 237.88 342.429 237.133 342.429 236.12V226.28L328.749 209.72V236.12C328.749 237.133 328.509 237.88 328.029 238.36C327.602 238.787 326.882 239 325.869 239ZM133.639 275.8V286.04H139.639C141.026 286.04 141.959 285.693 142.439 285C142.919 284.253 143.159 283.347 143.159 282.28V279.56C143.159 278.493 142.919 277.613 142.439 276.92C141.959 276.173 141.026 275.8 139.639 275.8H133.639ZM130.759 319H118.439C117.426 319 116.679 318.787 116.199 318.36C115.772 317.88 115.559 317.133 115.559 316.12V264.28C115.559 263.267 115.772 262.547 116.199 262.12C116.679 261.64 117.426 261.4 118.439 261.4H145.079C151.052 261.4 155.159 262.653 157.399 265.16C159.692 267.613 160.839 270.813 160.839 274.76V278.44C160.839 280.68 160.492 282.6 159.799 284.2C159.159 285.747 158.012 286.867 156.359 287.56C159.239 287.88 161.559 289.053 163.319 291.08C165.132 293.107 166.039 295.8 166.039 299.16V316.12C166.039 317.133 165.799 317.88 165.319 318.36C164.892 318.787 164.172 319 163.159 319H150.759C149.746 319 148.999 318.787 148.519 318.36C148.092 317.88 147.879 317.133 147.879 316.12V303.88C147.879 302.707 147.639 301.853 147.159 301.32C146.732 300.733 145.959 300.44 144.839 300.44H133.639V316.12C133.639 317.133 133.399 317.88 132.919 318.36C132.492 318.787 131.772 319 130.759 319ZM195.892 278.2L192.132 290.36H204.692L200.932 278.2C200.719 277.72 200.479 277.373 200.212 277.16C199.999 276.947 199.732 276.84 199.412 276.84H197.412C197.092 276.84 196.799 276.947 196.532 277.16C196.319 277.373 196.106 277.72 195.892 278.2ZM191.332 316.12C191.332 317.133 191.092 317.88 190.612 318.36C190.186 318.787 189.466 319 188.452 319H176.692C175.679 319 174.932 318.787 174.452 318.36C174.026 317.88 173.812 317.133 173.812 316.12V295C173.812 293.4 174.052 291.56 174.532 289.48C175.066 287.4 175.866 284.973 176.932 282.2L183.892 264.04C184.212 263.133 184.692 262.467 185.332 262.04C186.026 261.613 186.906 261.4 187.972 261.4H209.492C210.506 261.4 211.332 261.613 211.972 262.04C212.666 262.467 213.172 263.133 213.492 264.04L220.452 282.2C221.519 284.973 222.292 287.4 222.772 289.48C223.306 291.56 223.572 293.4 223.572 295V316.12C223.572 317.133 223.332 317.88 222.852 318.36C222.426 318.787 221.706 319 220.692 319H208.612C207.546 319 206.746 318.787 206.212 318.36C205.732 317.88 205.492 317.133 205.492 316.12V304.92H191.332V316.12ZM271.77 319H252.25C245.583 319 240.623 317.667 237.37 315C234.17 312.333 232.57 308.227 232.57 302.68V277.8C232.57 272.253 234.17 268.147 237.37 265.48C240.623 262.76 245.583 261.4 252.25 261.4H271.77C272.783 261.4 273.503 261.64 273.93 262.12C274.41 262.547 274.65 263.267 274.65 264.28V273.96C274.65 274.973 274.41 275.72 273.93 276.2C273.503 276.627 272.783 276.84 271.77 276.84H255.69C254.036 276.84 252.81 277.187 252.01 277.88C251.21 278.52 250.81 279.507 250.81 280.84V299.88C250.81 301.213 251.21 302.2 252.01 302.84C252.81 303.427 254.036 303.72 255.69 303.72H271.77C272.783 303.72 273.503 303.96 273.93 304.44C274.41 304.867 274.65 305.587 274.65 306.6V316.12C274.65 317.133 274.41 317.88 273.93 318.36C273.503 318.787 272.783 319 271.77 319ZM323.684 319H286.564C285.551 319 284.804 318.787 284.324 318.36C283.897 317.88 283.684 317.133 283.684 316.12V264.28C283.684 263.267 283.897 262.547 284.324 262.12C284.804 261.64 285.551 261.4 286.564 261.4H323.684C324.697 261.4 325.417 261.64 325.844 262.12C326.324 262.547 326.564 263.267 326.564 264.28V273.64C326.564 274.653 326.324 275.4 325.844 275.88C325.417 276.307 324.697 276.52 323.684 276.52H301.604V282.68H317.204C318.217 282.68 318.937 282.92 319.364 283.4C319.844 283.827 320.084 284.547 320.084 285.56V294.12C320.084 295.133 319.844 295.88 319.364 296.36C318.937 296.787 318.217 297 317.204 297H301.604V303.88H323.684C324.697 303.88 325.417 304.12 325.844 304.6C326.324 305.027 326.564 305.747 326.564 306.76V316.12C326.564 317.133 326.324 317.88 325.844 318.36C325.417 318.787 324.697 319 323.684 319ZM354.108 275.8V286.04H360.108C361.494 286.04 362.428 285.693 362.908 285C363.388 284.253 363.628 283.347 363.628 282.28V279.56C363.628 278.493 363.388 277.613 362.908 276.92C362.428 276.173 361.494 275.8 360.108 275.8H354.108ZM351.228 319H338.908C337.894 319 337.148 318.787 336.668 318.36C336.241 317.88 336.028 317.133 336.028 316.12V264.28C336.028 263.267 336.241 262.547 336.668 262.12C337.148 261.64 337.894 261.4 338.908 261.4H365.548C371.521 261.4 375.628 262.653 377.868 265.16C380.161 267.613 381.308 270.813 381.308 274.76V278.44C381.308 280.68 380.961 282.6 380.268 284.2C379.628 285.747 378.481 286.867 376.828 287.56C379.708 287.88 382.028 289.053 383.788 291.08C385.601 293.107 386.508 295.8 386.508 299.16V316.12C386.508 317.133 386.268 317.88 385.788 318.36C385.361 318.787 384.641 319 383.628 319H371.228C370.214 319 369.468 318.787 368.988 318.36C368.561 317.88 368.348 317.133 368.348 316.12V303.88C368.348 302.707 368.108 301.853 367.628 301.32C367.201 300.733 366.428 300.44 365.308 300.44H354.108V316.12C354.108 317.133 353.868 317.88 353.388 318.36C352.961 318.787 352.241 319 351.228 319Z" fill="#00FFFF"/>
</g>
<path d="M154.697 239H142.697C141.684 239 140.937 238.787 140.457 238.36C140.03 237.88 139.817 237.133 139.817 236.12V184.28C139.817 183.267 140.03 182.547 140.457 182.12C140.937 181.64 141.684 181.4 142.697 181.4H151.017C152.03 181.4 152.884 181.56 153.577 181.88C154.324 182.2 155.044 182.76 155.737 183.56L171.257 201.32V184.28C171.257 183.267 171.47 182.547 171.897 182.12C172.377 181.64 173.124 181.4 174.137 181.4H186.137C187.15 181.4 187.87 181.64 188.297 182.12C188.777 182.547 189.017 183.267 189.017 184.28V236.12C189.017 237.133 188.777 237.88 188.297 238.36C187.87 238.787 187.15 239 186.137 239H174.137C173.124 239 172.377 238.787 171.897 238.36C171.47 237.88 171.257 237.133 171.257 236.12V226.28L157.577 209.72V236.12C157.577 237.133 157.337 237.88 156.857 238.36C156.43 238.787 155.71 239 154.697 239ZM240.051 239H202.931C201.918 239 201.171 238.787 200.691 238.36C200.265 237.88 200.051 237.133 200.051 236.12V184.28C200.051 183.267 200.265 182.547 200.691 182.12C201.171 181.64 201.918 181.4 202.931 181.4H240.051C241.065 181.4 241.785 181.64 242.211 182.12C242.691 182.547 242.931 183.267 242.931 184.28V193.64C242.931 194.653 242.691 195.4 242.211 195.88C241.785 196.307 241.065 196.52 240.051 196.52H217.971V202.68H233.571C234.585 202.68 235.305 202.92 235.731 203.4C236.211 203.827 236.451 204.547 236.451 205.56V214.12C236.451 215.133 236.211 215.88 235.731 216.36C235.305 216.787 234.585 217 233.571 217H217.971V223.88H240.051C241.065 223.88 241.785 224.12 242.211 224.6C242.691 225.027 242.931 225.747 242.931 226.76V236.12C242.931 237.133 242.691 237.88 242.211 238.36C241.785 238.787 241.065 239 240.051 239ZM300.804 223.88C300.804 226.333 300.431 228.573 299.684 230.6C298.991 232.573 297.711 234.28 295.844 235.72C294.031 237.107 291.498 238.2 288.244 239C285.044 239.8 280.964 240.2 276.004 240.2C271.044 240.2 266.938 239.8 263.684 239C260.431 238.2 257.871 237.107 256.004 235.72C254.191 234.28 252.911 232.573 252.164 230.6C251.471 228.573 251.124 226.333 251.124 223.88V196.6C251.124 194.147 251.471 191.933 252.164 189.96C252.911 187.933 254.191 186.2 256.004 184.76C257.871 183.32 260.431 182.2 263.684 181.4C266.938 180.6 271.044 180.2 276.004 180.2C280.964 180.2 285.044 180.6 288.244 181.4C291.498 182.2 294.031 183.32 295.844 184.76C297.711 186.2 298.991 187.933 299.684 189.96C300.431 191.933 300.804 194.147 300.804 196.6V223.88ZM269.284 221C269.284 222.067 269.684 222.973 270.484 223.72C271.284 224.413 273.124 224.76 276.004 224.76C278.884 224.76 280.724 224.413 281.524 223.72C282.324 222.973 282.724 222.067 282.724 221V199.48C282.724 198.467 282.324 197.613 281.524 196.92C280.724 196.173 278.884 195.8 276.004 195.8C273.124 195.8 271.284 196.173 270.484 196.92C269.684 197.613 269.284 198.467 269.284 199.48V221ZM325.869 239H313.869C312.855 239 312.109 238.787 311.629 238.36C311.202 237.88 310.989 237.133 310.989 236.12V184.28C310.989 183.267 311.202 182.547 311.629 182.12C312.109 181.64 312.855 181.4 313.869 181.4H322.189C323.202 181.4 324.055 181.56 324.749 181.88C325.495 182.2 326.215 182.76 326.909 183.56L342.429 201.32V184.28C342.429 183.267 342.642 182.547 343.069 182.12C343.549 181.64 344.295 181.4 345.309 181.4H357.309C358.322 181.4 359.042 181.64 359.469 182.12C359.949 182.547 360.189 183.267 360.189 184.28V236.12C360.189 237.133 359.949 237.88 359.469 238.36C359.042 238.787 358.322 239 357.309 239H345.309C344.295 239 343.549 238.787 343.069 238.36C342.642 237.88 342.429 237.133 342.429 236.12V226.28L328.749 209.72V236.12C328.749 237.133 328.509 237.88 328.029 238.36C327.602 238.787 326.882 239 325.869 239ZM133.639 275.8V286.04H139.639C141.026 286.04 141.959 285.693 142.439 285C142.919 284.253 143.159 283.347 143.159 282.28V279.56C143.159 278.493 142.919 277.613 142.439 276.92C141.959 276.173 141.026 275.8 139.639 275.8H133.639ZM130.759 319H118.439C117.426 319 116.679 318.787 116.199 318.36C115.772 317.88 115.559 317.133 115.559 316.12V264.28C115.559 263.267 115.772 262.547 116.199 262.12C116.679 261.64 117.426 261.4 118.439 261.4H145.079C151.052 261.4 155.159 262.653 157.399 265.16C159.692 267.613 160.839 270.813 160.839 274.76V278.44C160.839 280.68 160.492 282.6 159.799 284.2C159.159 285.747 158.012 286.867 156.359 287.56C159.239 287.88 161.559 289.053 163.319 291.08C165.132 293.107 166.039 295.8 166.039 299.16V316.12C166.039 317.133 165.799 317.88 165.319 318.36C164.892 318.787 164.172 319 163.159 319H150.759C149.746 319 148.999 318.787 148.519 318.36C148.092 317.88 147.879 317.133 147.879 316.12V303.88C147.879 302.707 147.639 301.853 147.159 301.32C146.732 300.733 145.959 300.44 144.839 300.44H133.639V316.12C133.639 317.133 133.399 317.88 132.919 318.36C132.492 318.787 131.772 319 130.759 319ZM195.892 278.2L192.132 290.36H204.692L200.932 278.2C200.719 277.72 200.479 277.373 200.212 277.16C199.999 276.947 199.732 276.84 199.412 276.84H197.412C197.092 276.84 196.799 276.947 196.532 277.16C196.319 277.373 196.106 277.72 195.892 278.2ZM191.332 316.12C191.332 317.133 191.092 317.88 190.612 318.36C190.186 318.787 189.466 319 188.452 319H176.692C175.679 319 174.932 318.787 174.452 318.36C174.026 317.88 173.812 317.133 173.812 316.12V295C173.812 293.4 174.052 291.56 174.532 289.48C175.066 287.4 175.866 284.973 176.932 282.2L183.892 264.04C184.212 263.133 184.692 262.467 185.332 262.04C186.026 261.613 186.906 261.4 187.972 261.4H209.492C210.506 261.4 211.332 261.613 211.972 262.04C212.666 262.467 213.172 263.133 213.492 264.04L220.452 282.2C221.519 284.973 222.292 287.4 222.772 289.48C223.306 291.56 223.572 293.4 223.572 295V316.12C223.572 317.133 223.332 317.88 222.852 318.36C222.426 318.787 221.706 319 220.692 319H208.612C207.546 319 206.746 318.787 206.212 318.36C205.732 317.88 205.492 317.133 205.492 316.12V304.92H191.332V316.12ZM271.77 319H252.25C245.583 319 240.623 317.667 237.37 315C234.17 312.333 232.57 308.227 232.57 302.68V277.8C232.57 272.253 234.17 268.147 237.37 265.48C240.623 262.76 245.583 261.4 252.25 261.4H271.77C272.783 261.4 273.503 261.64 273.93 262.12C274.41 262.547 274.65 263.267 274.65 264.28V273.96C274.65 274.973 274.41 275.72 273.93 276.2C273.503 276.627 272.783 276.84 271.77 276.84H255.69C254.036 276.84 252.81 277.187 252.01 277.88C251.21 278.52 250.81 279.507 250.81 280.84V299.88C250.81 301.213 251.21 302.2 252.01 302.84C252.81 303.427 254.036 303.72 255.69 303.72H271.77C272.783 303.72 273.503 303.96 273.93 304.44C274.41 304.867 274.65 305.587 274.65 306.6V316.12C274.65 317.133 274.41 317.88 273.93 318.36C273.503 318.787 272.783 319 271.77 319ZM323.684 319H286.564C285.551 319 284.804 318.787 284.324 318.36C283.897 317.88 283.684 317.133 283.684 316.12V264.28C283.684 263.267 283.897 262.547 284.324 262.12C284.804 261.64 285.551 261.4 286.564 261.4H323.684C324.697 261.4 325.417 261.64 325.844 262.12C326.324 262.547 326.564 263.267 326.564 264.28V273.64C326.564 274.653 326.324 275.4 325.844 275.88C325.417 276.307 324.697 276.52 323.684 276.52H301.604V282.68H317.204C318.217 282.68 318.937 282.92 319.364 283.4C319.844 283.827 320.084 284.547 320.084 285.56V294.12C320.084 295.133 319.844 295.88 319.364 296.36C318.937 296.787 318.217 297 317.204 297H301.604V303.88H323.684C324.697 303.88 325.417 304.12 325.844 304.6C326.324 305.027 326.564 305.747 326.564 306.76V316.12C326.564 317.133 326.324 317.88 325.844 318.36C325.417 318.787 324.697 319 323.684 319ZM354.108 275.8V286.04H360.108C361.494 286.04 362.428 285.693 362.908 285C363.388 284.253 363.628 283.347 363.628 282.28V279.56C363.628 278.493 363.388 277.613 362.908 276.92C362.428 276.173 361.494 275.8 360.108 275.8H354.108ZM351.228 319H338.908C337.894 319 337.148 318.787 336.668 318.36C336.241 317.88 336.028 317.133 336.028 316.12V264.28C336.028 263.267 336.241 262.547 336.668 262.12C337.148 261.64 337.894 261.4 338.908 261.4H365.548C371.521 261.4 375.628 262.653 377.868 265.16C380.161 267.613 381.308 270.813 381.308 274.76V278.44C381.308 280.68 380.961 282.6 380.268 284.2C379.628 285.747 378.481 286.867 376.828 287.56C379.708 287.88 382.028 289.053 383.788 291.08C385.601 293.107 386.508 295.8 386.508 299.16V316.12C386.508 317.133 386.268 317.88 385.788 318.36C385.361 318.787 384.641 319 383.628 319H371.228C370.214 319 369.468 318.787 368.988 318.36C368.561 317.88 368.348 317.133 368.348 316.12V303.88C368.348 302.707 368.108 301.853 367.628 301.32C367.201 300.733 366.428 300.44 365.308 300.44H354.108V316.12C354.108 317.133 353.868 317.88 353.388 318.36C352.961 318.787 352.241 319 351.228 319Z" fill="#00FFFF"/>
</g>
<defs>
<filter id="filter0_f_915_94" x="58.5557" y="42.4824" width="458.689" height="498.77" filterUnits="userSpaceOnUse" color-interpolation-filters="sRGB">
<feFlood flood-opacity="0" result="BackgroundImageFix"/>
<feBlend mode="normal" in="SourceGraphic" in2="BackgroundImageFix" result="shape"/>
<feGaussianBlur stdDeviation="5" result="effect1_foregroundBlur_915_94"/>
</filter>
<filter id="filter1_f_915_94" x="95.5586" y="160.2" width="310.949" height="178.8" filterUnits="userSpaceOnUse" color-interpolation-filters="sRGB">
<feFlood flood-opacity="0" result="BackgroundImageFix"/>
<feBlend mode="normal" in="SourceGraphic" in2="BackgroundImageFix" result="shape"/>
<feGaussianBlur stdDeviation="10" result="effect1_foregroundBlur_915_94"/>
</filter>
<linearGradient id="paint0_linear_915_94" x1="117.637" y1="212.698" x2="151.919" y2="253.554" gradientUnits="userSpaceOnUse">
<stop stop-color="#3EC8C8"/>
<stop offset="1" stop-color="#FF00C7"/>
</linearGradient>
<linearGradient id="paint1_linear_915_94" x1="240.203" y1="109.854" x2="274.485" y2="150.71" gradientUnits="userSpaceOnUse">
<stop stop-color="#3EC8C8"/>
<stop offset="1" stop-color="#FF00C7"/>
</linearGradient>
<linearGradient id="paint2_linear_915_94" x1="306.189" y1="437.406" x2="340.471" y2="478.262" gradientUnits="userSpaceOnUse">
<stop stop-color="#3EC8C8"/>
<stop offset="1" stop-color="#FF00C7"/>
</linearGradient>
<linearGradient id="paint3_linear_915_94" x1="428.755" y1="334.562" x2="463.037" y2="375.418" gradientUnits="userSpaceOnUse">
<stop stop-color="#3EC8C8"/>
<stop offset="1" stop-color="#FF00C7"/>
</linearGradient>
<linearGradient id="paint4_linear_915_94" x1="126.59" y1="100.754" x2="447.984" y2="483.776" gradientUnits="userSpaceOnUse">
<stop stop-color="#3EC8C8"/>
<stop offset="1" stop-color="#FF00C7"/>
</linearGradient>
<linearGradient id="paint5_linear_915_94" x1="126.59" y1="100.754" x2="447.984" y2="483.776" gradientUnits="userSpaceOnUse">
<stop stop-color="#3EC8C8"/>
<stop offset="1" stop-color="#FF00C7"/>
</linearGradient>
<linearGradient id="paint6_linear_915_94" x1="126.59" y1="100.754" x2="447.984" y2="483.776" gradientUnits="userSpaceOnUse">
<stop stop-color="#3EC8C8"/>
<stop offset="1" stop-color="#FF00C7"/>
</linearGradient>
<linearGradient id="paint7_linear_915_94" x1="126.59" y1="100.754" x2="447.984" y2="483.776" gradientUnits="userSpaceOnUse">
<stop stop-color="#3EC8C8"/>
<stop offset="1" stop-color="#FF00C7"/>
</linearGradient>
<linearGradient id="paint8_linear_915_94" x1="126.59" y1="100.754" x2="447.984" y2="483.776" gradientUnits="userSpaceOnUse">
<stop stop-color="#3EC8C8"/>
<stop offset="1" stop-color="#FF00C7"/>
</linearGradient>
<linearGradient id="paint9_linear_915_94" x1="126.59" y1="100.754" x2="447.984" y2="483.776" gradientUnits="userSpaceOnUse">
<stop stop-color="#3EC8C8"/>
<stop offset="1" stop-color="#FF00C7"/>
</linearGradient>
<linearGradient id="paint10_linear_915_94" x1="117.637" y1="212.698" x2="151.919" y2="253.554" gradientUnits="userSpaceOnUse">
<stop stop-color="#3EC8C8"/>
<stop offset="1" stop-color="#FF00C7"/>
</linearGradient>
<linearGradient id="paint11_linear_915_94" x1="117.637" y1="212.698" x2="151.919" y2="253.554" gradientUnits="userSpaceOnUse">
<stop stop-color="#3EC8C8"/>
<stop offset="1" stop-color="#FF00C7"/>
</linearGradient>
<linearGradient id="paint12_linear_915_94" x1="240.203" y1="109.854" x2="274.485" y2="150.71" gradientUnits="userSpaceOnUse">
<stop stop-color="#3EC8C8"/>
<stop offset="1" stop-color="#FF00C7"/>
</linearGradient>
<linearGradient id="paint13_linear_915_94" x1="240.203" y1="109.854" x2="274.485" y2="150.71" gradientUnits="userSpaceOnUse">
<stop stop-color="#3EC8C8"/>
<stop offset="1" stop-color="#FF00C7"/>
</linearGradient>
<linearGradient id="paint14_linear_915_94" x1="306.189" y1="437.406" x2="340.471" y2="478.262" gradientUnits="userSpaceOnUse">
<stop stop-color="#3EC8C8"/>
<stop offset="1" stop-color="#FF00C7"/>
</linearGradient>
<linearGradient id="paint15_linear_915_94" x1="306.189" y1="437.406" x2="340.471" y2="478.262" gradientUnits="userSpaceOnUse">
<stop stop-color="#3EC8C8"/>
<stop offset="1" stop-color="#FF00C7"/>
</linearGradient>
<linearGradient id="paint16_linear_915_94" x1="428.755" y1="334.562" x2="463.037" y2="375.418" gradientUnits="userSpaceOnUse">
<stop stop-color="#3EC8C8"/>
<stop offset="1" stop-color="#FF00C7"/>
</linearGradient>
<linearGradient id="paint17_linear_915_94" x1="428.755" y1="334.562" x2="463.037" y2="375.418" gradientUnits="userSpaceOnUse">
<stop stop-color="#3EC8C8"/>
<stop offset="1" stop-color="#FF00C7"/>
</linearGradient>
</defs>
</svg>
