<svg width="500" height="500" viewBox="0 0 500 500" fill="none" xmlns="http://www.w3.org/2000/svg">
<rect x="1" y="1" width="498" height="498" fill="#EAB8B8" stroke="#D93B3B" stroke-width="2"/>
<rect x="21.832" y="21.833" width="456.333" height="456.333" stroke="#D93B3B" stroke-width="2"/>
<path d="M183.333 323C183.333 363 236.667 363 250 376.333C263.333 363 316.667 363 316.667 323L316.667 247.351L316.563 247.375C283.403 254.883 216.422 254.875 183.333 247.351V323Z" fill="white" fill-opacity="0.3"/>
<path d="M330 243C330 203 303.333 163 250 163C196.667 163 170 203 170 243C173.312 244.656 177.859 246.107 183.333 247.351C216.422 254.875 283.403 254.883 316.563 247.375L316.667 247.351C322.141 246.107 326.688 244.656 330 243Z" fill="#EAB8B8"/>
<path d="M250 163C236.667 149.667 236.667 149.667 250 123C263.333 149.667 263.333 149.667 250 163Z" fill="#EAB8B8"/>
<path d="M170 243H169C169 243.379 169.214 243.725 169.553 243.894L170 243ZM330 243L330.447 243.894C330.786 243.725 331 243.379 331 243L330 243ZM250 123L250.894 122.553C250.725 122.214 250.379 122 250 122C249.621 122 249.275 122.214 249.106 122.553L250 123ZM172.2 228.772C171.706 228.525 171.105 228.725 170.858 229.219C170.611 229.713 170.811 230.314 171.305 230.561L172.2 228.772ZM328.69 230.561C329.184 230.314 329.384 229.713 329.137 229.219C328.89 228.725 328.289 228.525 327.795 228.772L328.69 230.561ZM276.727 239.882C277.278 239.849 277.698 239.375 277.665 238.824C277.632 238.272 277.158 237.852 276.607 237.885L276.727 239.882ZM303.184 235.216C302.638 235.299 302.262 235.808 302.345 236.354C302.427 236.9 302.937 237.276 303.483 237.193L303.184 235.216ZM250 164C276.395 164 296.118 173.888 309.253 188.664C322.403 203.459 329 223.213 329 243L331 243C331 222.787 324.263 202.541 310.747 187.336C297.215 172.112 276.938 162 250 162V164ZM250.707 162.293C247.351 158.937 244.918 156.5 243.309 154.287C241.73 152.116 241 150.234 241 148C241 145.708 241.766 142.944 243.422 139.013C245.073 135.092 247.555 130.126 250.894 123.447L249.106 122.553C245.778 129.207 243.261 134.241 241.578 138.237C239.9 142.223 239 145.292 239 148C239 150.766 239.937 153.051 241.691 155.463C243.415 157.833 245.982 160.396 249.293 163.707L250.707 162.293ZM249.106 123.447C252.445 130.126 254.927 135.092 256.578 139.013C258.233 142.944 259 145.708 259 148C259 150.234 258.27 152.116 256.691 154.287C255.081 156.5 252.649 158.937 249.293 162.293L250.707 163.707C254.018 160.396 256.585 157.833 258.309 155.463C260.063 153.051 261 150.766 261 148C261 145.292 260.1 142.223 258.422 138.237C256.739 134.241 254.221 129.207 250.894 122.553L249.106 123.447ZM169.553 243.894C176.389 247.312 188.21 249.826 202.383 251.493C216.597 253.165 233.304 254 250 254C266.696 254 283.403 253.165 297.617 251.493C311.79 249.826 323.611 247.312 330.447 243.894L329.553 242.105C323.056 245.354 311.543 247.841 297.383 249.507C283.264 251.168 266.637 252 250 252C233.363 252 216.736 251.168 202.617 249.507C188.457 247.841 176.944 245.354 170.447 242.105L169.553 243.894ZM171.305 230.561C180.03 234.923 196.494 237.831 215.612 239.367C234.784 240.907 256.794 241.078 276.727 239.882L276.607 237.885C256.762 239.076 234.847 238.905 215.772 237.373C196.643 235.836 180.539 232.942 172.2 228.772L171.305 230.561ZM303.483 237.193C314.173 235.576 323.054 233.379 328.69 230.561L327.795 228.772C322.454 231.443 313.834 233.604 303.184 235.216L303.483 237.193ZM171 243C171 223.213 177.597 203.459 190.747 188.664C203.882 173.888 223.605 164 250 164V162C223.062 162 202.785 172.112 189.253 187.336C175.737 202.541 169 222.787 169 243H171Z" fill="#D93B3B"/>
<path d="M183.334 269.667V323C183.334 363 236.667 363 250.001 376.333C254.958 371.375 265.447 368.261 276.667 364.248M316.667 269.667V323C316.667 337.226 309.921 346.393 300.627 352.899" stroke="#D93B3B" stroke-width="2" stroke-linecap="round" stroke-linejoin="round"/>
<path d="M111.99 272.35C113.61 269.83 114.96 267.19 116.04 264.43C117.18 261.61 118.14 258.76 118.92 255.88C119.76 252.94 120.48 250 121.08 247.06C121.68 244.06 122.31 241.09 122.97 238.15L123.15 237.34L123.78 237.07C123.96 236.95 124.29 236.83 124.77 236.71C125.85 236.65 126.9 237.01 127.92 237.79C128.28 238.09 128.64 238.48 129 238.96C129.36 239.44 129.6 239.92 129.72 240.4C130.14 241.96 130.23 244.03 129.99 246.61C129.75 249.19 129.21 251.98 128.37 254.98C127.59 257.98 126.57 261.04 125.31 264.16C124.05 267.22 122.64 270.01 121.08 272.53C119.52 274.99 117.84 277.03 116.04 278.65C114.24 280.21 112.44 281.02 110.64 281.08C109.2 281.14 107.94 280.72 106.86 279.82C105.84 278.86 104.94 277.66 104.16 276.22C103.38 274.72 102.72 273.07 102.18 271.27C101.7 269.41 101.31 267.55 101.01 265.69C100.71 263.83 100.44 262.06 100.2 260.38C100.02 258.64 99.8698 257.2 99.7498 256.06C99.6898 255.4 99.5098 255.31 99.2098 255.79C98.9698 256.21 98.6398 256.96 98.2198 258.04C97.8598 259.12 97.4398 260.44 96.9598 262C96.5398 263.5 96.1198 265.03 95.6998 266.59C95.2798 268.09 94.8898 269.5 94.5298 270.82C94.1698 272.08 93.8698 273.01 93.6298 273.61C93.2098 274.63 92.7898 275.56 92.3698 276.4C92.0098 277.18 91.5298 277.84 90.9298 278.38C90.3298 278.92 89.6098 279.34 88.7698 279.64C87.9898 279.88 86.9698 280 85.7098 280C84.9298 280 84.3598 279.61 83.9998 278.83C83.5798 278.05 83.3398 277.24 83.2798 276.4C83.2198 274.96 83.4598 273.01 83.9998 270.55C84.5398 268.09 85.1698 265.57 85.8898 262.99C86.6698 260.41 87.4198 258.01 88.1398 255.79C88.8598 253.57 89.3698 252.01 89.6698 251.11C90.2698 249.43 90.8698 247.78 91.4698 246.16C92.1298 244.54 92.8498 242.95 93.6298 241.39C94.2898 240.01 95.3098 238.99 96.6898 238.33C97.1098 238.21 97.4998 238.09 97.8598 237.97C98.2198 237.85 98.6098 237.76 99.0298 237.7C99.5698 237.64 100.17 237.64 100.83 237.7C101.55 237.76 102.24 237.88 102.9 238.06C103.56 238.24 104.19 238.48 104.79 238.78C105.39 239.08 105.87 239.44 106.23 239.86C106.65 240.88 107.04 242.35 107.4 244.27C107.76 246.19 108.09 248.32 108.39 250.66C108.75 252.94 109.08 255.31 109.38 257.77C109.74 260.17 110.04 262.42 110.28 264.52C110.58 266.56 110.85 268.3 111.09 269.74C111.39 271.18 111.69 272.05 111.99 272.35ZM135.881 280.45C135.221 280.45 134.681 280.33 134.261 280.09C133.601 279.73 133.091 279.19 132.731 278.47C132.431 277.75 132.221 276.97 132.101 276.13C132.041 275.29 132.041 274.48 132.101 273.7C132.161 272.86 132.251 272.14 132.371 271.54C132.671 269.32 133.061 267.1 133.541 264.88C134.081 262.66 134.681 260.5 135.341 258.4C135.581 257.5 135.791 256.75 135.971 256.15C136.151 255.49 136.301 254.89 136.421 254.35C136.601 253.81 136.751 253.24 136.871 252.64C137.051 252.04 137.291 251.29 137.591 250.39C137.831 249.73 138.041 249.04 138.221 248.32C138.461 247.6 138.701 246.88 138.941 246.16C139.061 245.68 139.181 245.2 139.301 244.72C139.421 244.24 139.541 243.76 139.661 243.28C139.721 242.98 139.751 242.71 139.751 242.47C139.811 242.23 139.901 241.96 140.021 241.66C140.381 240.46 140.951 239.5 141.731 238.78C142.571 238 143.681 237.73 145.061 237.97C145.901 238.09 146.711 238.3 147.491 238.6C148.271 238.84 148.931 239.26 149.471 239.86C150.011 240.4 150.341 241.06 150.461 241.84C150.641 242.56 150.701 243.31 150.641 244.09C150.581 244.87 150.431 245.65 150.191 246.43C150.011 247.21 149.831 247.93 149.651 248.59L147.041 256.33C146.561 257.77 146.111 259.21 145.691 260.65C145.271 262.09 144.851 263.56 144.431 265.06C144.131 266.08 143.861 267.07 143.621 268.03C143.381 268.99 143.141 269.98 142.901 271C142.421 272.62 142.061 274.24 141.821 275.86V275.95L141.731 276.13C141.311 277.21 140.561 278.2 139.481 279.1C138.401 279.94 137.201 280.39 135.881 280.45ZM162.591 272.17C164.871 272.05 167.061 271.54 169.161 270.64C171.261 269.74 173.241 268.6 175.101 267.22C177.021 265.78 178.791 264.22 180.411 262.54C182.031 260.86 183.471 259.15 184.731 257.41L186.081 255.61L187.251 257.41C188.091 258.67 188.481 259.87 188.421 261.01C188.421 262.15 188.091 263.41 187.431 264.79C186.591 266.41 185.601 267.94 184.461 269.38C183.381 270.76 182.151 272.05 180.771 273.25C179.751 274.15 178.611 275.05 177.351 275.95C176.151 276.79 174.831 277.57 173.391 278.29C172.011 279.01 170.601 279.58 169.161 280C167.721 280.42 166.311 280.63 164.931 280.63C163.191 280.63 161.511 280.36 159.891 279.82C158.271 279.28 156.831 278.41 155.571 277.21C153.651 275.47 152.451 273.46 151.971 271.18C151.491 268.9 151.581 266.56 152.241 264.16C152.901 261.46 153.981 258.58 155.481 255.52C157.041 252.46 158.901 249.64 161.061 247.06C163.281 244.42 165.771 242.23 168.531 240.49C171.291 238.69 174.201 237.79 177.261 237.79C178.761 237.79 180.081 238.27 181.221 239.23C181.941 239.89 182.451 240.64 182.751 241.48C183.051 242.32 183.201 243.22 183.201 244.18V245.44L182.031 245.71C177.171 246.79 173.151 249.04 169.971 252.46C166.791 255.88 164.481 259.93 163.041 264.61C162.921 265.09 162.801 265.66 162.681 266.32C162.561 266.92 162.441 267.58 162.321 268.3C162.261 268.96 162.231 269.65 162.231 270.37C162.291 271.03 162.411 271.63 162.591 272.17ZM206.979 254.26C208.059 254.08 209.109 253.93 210.129 253.81C211.209 253.63 212.259 253.45 213.279 253.27L217.599 252.46C218.559 249.16 219.609 246.25 220.749 243.73C221.169 242.71 221.619 241.72 222.099 240.76C222.579 239.74 223.119 238.78 223.719 237.88C224.199 237.16 224.799 236.44 225.519 235.72C226.239 235 227.049 234.67 227.949 234.73C229.869 234.85 231.489 235.54 232.809 236.8C234.129 238 234.729 239.62 234.609 241.66C234.549 242.14 234.459 242.53 234.339 242.83C234.219 243.07 234.009 243.4 233.709 243.82C232.269 245.98 230.979 248.53 229.839 251.47C228.699 254.35 227.799 257.38 227.139 260.56C226.479 263.74 226.029 266.92 225.789 270.1C225.549 273.28 225.609 276.16 225.969 278.74C226.089 279.88 225.909 280.75 225.429 281.35C225.009 281.95 224.409 282.25 223.629 282.25C222.789 282.25 221.979 281.98 221.199 281.44C219.699 280.36 218.499 279.07 217.599 277.57C216.759 276.01 216.129 274.36 215.709 272.62C215.289 270.88 215.079 269.08 215.079 267.22C215.079 265.36 215.199 263.53 215.439 261.73C214.359 261.91 213.219 262.12 212.019 262.36C210.879 262.6 209.799 262.87 208.779 263.17C207.819 263.41 206.979 263.65 206.259 263.89C205.539 264.13 205.089 264.34 204.909 264.52C204.489 265.06 204.099 265.9 203.739 267.04C203.379 268.18 203.049 269.44 202.749 270.82C202.509 272.14 202.269 273.43 202.029 274.69C201.849 275.89 201.699 276.85 201.579 277.57C201.459 278.35 201.189 279.04 200.769 279.64C200.409 280.24 199.839 280.69 199.059 280.99C198.399 281.23 197.739 281.26 197.079 281.08C196.419 280.9 195.789 280.66 195.189 280.36C194.649 280.06 194.109 279.67 193.569 279.19C193.029 278.65 192.669 278.05 192.489 277.39C192.189 276.31 192.069 274.9 192.129 273.16C192.249 271.36 192.489 269.41 192.849 267.31C193.209 265.15 193.659 262.93 194.199 260.65C194.799 258.37 195.369 256.15 195.909 253.99C196.509 251.83 197.049 249.85 197.529 248.05C198.069 246.19 198.519 244.66 198.879 243.46C199.179 242.44 199.749 241.63 200.589 241.03C201.489 240.37 202.419 239.89 203.379 239.59C203.859 239.41 204.429 239.29 205.089 239.23C205.749 239.11 206.409 239.08 207.069 239.14C207.729 239.14 208.329 239.26 208.869 239.5C209.409 239.74 209.829 240.13 210.129 240.67C210.369 241.21 210.459 241.78 210.399 242.38C210.219 243.76 209.949 245.14 209.589 246.52C209.229 247.9 208.809 249.28 208.329 250.66C208.089 251.26 207.849 251.86 207.609 252.46C207.429 253.06 207.219 253.66 206.979 254.26ZM237.659 280.45C236.999 280.45 236.459 280.33 236.039 280.09C235.379 279.73 234.869 279.19 234.509 278.47C234.209 277.75 233.999 276.97 233.879 276.13C233.819 275.29 233.819 274.48 233.879 273.7C233.939 272.86 234.029 272.14 234.149 271.54C234.449 269.32 234.839 267.1 235.319 264.88C235.859 262.66 236.459 260.5 237.119 258.4C237.359 257.5 237.569 256.75 237.749 256.15C237.929 255.49 238.079 254.89 238.199 254.35C238.379 253.81 238.529 253.24 238.649 252.64C238.829 252.04 239.069 251.29 239.369 250.39C239.609 249.73 239.819 249.04 239.999 248.32C240.239 247.6 240.479 246.88 240.719 246.16C240.839 245.68 240.959 245.2 241.079 244.72C241.199 244.24 241.319 243.76 241.439 243.28C241.499 242.98 241.529 242.71 241.529 242.47C241.589 242.23 241.679 241.96 241.799 241.66C242.159 240.46 242.729 239.5 243.509 238.78C244.349 238 245.459 237.73 246.839 237.97C247.679 238.09 248.489 238.3 249.269 238.6C250.049 238.84 250.709 239.26 251.249 239.86C251.789 240.4 252.119 241.06 252.239 241.84C252.419 242.56 252.479 243.31 252.419 244.09C252.359 244.87 252.209 245.65 251.969 246.43C251.789 247.21 251.609 247.93 251.429 248.59L248.819 256.33C248.339 257.77 247.889 259.21 247.469 260.65C247.049 262.09 246.629 263.56 246.209 265.06C245.909 266.08 245.639 267.07 245.399 268.03C245.159 268.99 244.919 269.98 244.679 271C244.199 272.62 243.839 274.24 243.599 275.86V275.95L243.509 276.13C243.089 277.21 242.339 278.2 241.259 279.1C240.179 279.94 238.979 280.39 237.659 280.45ZM264.877 239.86C265.417 239.26 266.107 238.63 266.947 237.97C267.847 237.25 268.747 236.59 269.647 235.99C270.607 235.39 271.537 234.85 272.437 234.37C273.397 233.89 274.237 233.53 274.957 233.29C276.817 232.63 278.707 232.54 280.627 233.02C282.607 233.5 284.197 234.52 285.397 236.08C287.077 238.42 287.437 240.97 286.477 243.73C286.297 244.21 286.027 244.84 285.667 245.62C285.307 246.4 284.857 247.24 284.317 248.14C283.837 249.04 283.297 250 282.697 251.02C282.097 251.98 281.497 252.88 280.897 253.72C283.117 253.42 285.247 253.57 287.287 254.17C289.327 254.71 291.127 255.91 292.687 257.77C293.947 259.33 294.697 261.01 294.937 262.81C295.237 264.55 294.877 266.32 293.857 268.12C293.317 269.14 292.417 270.28 291.157 271.54C289.957 272.8 288.547 274.12 286.927 275.5C285.367 276.82 283.657 278.17 281.797 279.55C279.997 280.87 278.197 282.13 276.397 283.33C274.597 284.53 272.857 285.61 271.177 286.57C269.557 287.59 268.177 288.4 267.037 289C266.377 289.36 265.627 289.69 264.787 289.99C263.947 290.35 263.077 290.62 262.177 290.8C261.337 291.04 260.467 291.19 259.567 291.25C258.727 291.31 257.917 291.25 257.137 291.07C256.477 290.89 256.027 290.56 255.787 290.08C255.547 289.6 255.577 289.03 255.877 288.37C256.057 288.01 256.267 287.62 256.507 287.2C256.807 286.84 257.137 286.51 257.497 286.21C259.657 284.41 262.087 282.58 264.787 280.72C267.487 278.92 270.127 277.06 272.707 275.14C275.347 273.22 277.747 271.24 279.907 269.2C282.127 267.16 283.777 265.06 284.857 262.9C284.857 262.84 284.857 262.81 284.857 262.81C284.917 262.81 284.947 262.78 284.947 262.72C283.807 262.6 282.457 262.6 280.897 262.72C279.397 262.84 277.867 263.08 276.307 263.44C274.747 263.8 273.277 264.28 271.897 264.88C270.517 265.42 269.407 266.08 268.567 266.86C268.447 267.04 268.357 267.31 268.297 267.67C268.237 267.97 268.177 268.21 268.117 268.39C267.997 268.87 267.877 269.38 267.757 269.92C267.637 270.46 267.517 270.97 267.397 271.45C267.277 271.93 267.157 272.44 267.037 272.98C266.917 273.46 266.797 273.94 266.677 274.42C266.557 274.78 266.467 275.17 266.407 275.59C266.347 275.95 266.257 276.31 266.137 276.67C265.777 277.57 265.417 278.35 265.057 279.01C264.697 279.67 263.917 280 262.717 280C261.877 280 261.037 279.91 260.197 279.73C259.417 279.49 258.697 279.16 258.037 278.74C257.437 278.26 256.927 277.69 256.507 277.03C256.147 276.37 255.967 275.56 255.967 274.6C256.027 273.22 256.117 271.84 256.237 270.46C256.417 269.08 256.597 267.7 256.777 266.32C257.017 264.46 257.257 262.63 257.497 260.83C257.737 259.03 258.007 257.2 258.307 255.34C258.607 253.3 258.877 251.26 259.117 249.22C259.417 247.18 259.687 245.11 259.927 243.01C260.107 241.63 260.677 240.76 261.637 240.4C262.597 239.98 263.677 239.8 264.877 239.86ZM270.187 252.46C270.847 251.86 271.447 251.2 271.987 250.48C272.587 249.7 273.037 249.1 273.337 248.68C273.757 248.02 274.147 247.33 274.507 246.61C274.927 245.83 275.287 245.08 275.587 244.36C275.707 244.12 275.797 243.91 275.857 243.73C275.137 244.09 274.477 244.6 273.877 245.26C273.337 245.86 272.827 246.58 272.347 247.42C271.867 248.2 271.447 249.04 271.087 249.94C270.727 250.78 270.427 251.62 270.187 252.46ZM310.241 246.79C310.241 246.67 310.211 246.58 310.151 246.52C310.151 246.46 310.151 246.4 310.151 246.34C309.551 244.9 309.701 243.61 310.601 242.47C311.021 241.93 311.621 241.51 312.401 241.21C313.241 240.85 313.991 240.58 314.651 240.4C316.631 239.86 318.701 239.59 320.861 239.59C323.621 239.59 325.991 240.37 327.971 241.93C329.591 243.25 330.791 244.9 331.571 246.88C332.411 248.8 332.921 250.78 333.101 252.82C333.341 255.1 333.251 257.41 332.831 259.75C332.411 262.09 331.781 264.31 330.941 266.41C330.101 268.39 329.051 270.25 327.791 271.99C326.591 273.67 325.181 275.14 323.561 276.4C322.001 277.66 320.231 278.65 318.251 279.37C316.331 280.09 314.261 280.45 312.041 280.45C309.761 280.45 307.601 279.88 305.561 278.74C303.521 277.6 301.991 276.04 300.971 274.06C299.831 271.96 299.381 269.65 299.621 267.13C299.861 264.61 300.491 262.09 301.511 259.57C302.591 257.05 303.911 254.68 305.471 252.46C307.091 250.24 308.681 248.35 310.241 246.79ZM321.761 249.94C321.161 250.18 320.561 250.54 319.961 251.02C319.361 251.5 318.881 251.89 318.521 252.19C317.501 253.15 316.571 254.2 315.731 255.34C314.891 256.42 314.111 257.56 313.391 258.76C312.731 259.78 312.131 260.89 311.591 262.09C311.051 263.23 310.571 264.4 310.151 265.6C309.911 266.26 309.701 267.07 309.521 268.03C309.341 268.99 309.341 269.86 309.521 270.64C309.581 271 309.761 271.18 310.061 271.18C312.581 271.18 314.741 270.49 316.541 269.11C318.341 267.67 319.721 265.9 320.681 263.8C321.701 261.64 322.301 259.33 322.481 256.87C322.661 254.35 322.421 252.04 321.761 249.94ZM347.594 246.79C347.594 246.67 347.564 246.58 347.504 246.52C347.504 246.46 347.504 246.4 347.504 246.34C346.904 244.9 347.054 243.61 347.954 242.47C348.374 241.93 348.974 241.51 349.754 241.21C350.594 240.85 351.344 240.58 352.004 240.4C353.984 239.86 356.054 239.59 358.214 239.59C360.974 239.59 363.344 240.37 365.324 241.93C366.944 243.25 368.144 244.9 368.924 246.88C369.764 248.8 370.274 250.78 370.454 252.82C370.694 255.1 370.604 257.41 370.184 259.75C369.764 262.09 369.134 264.31 368.294 266.41C367.454 268.39 366.404 270.25 365.144 271.99C363.944 273.67 362.534 275.14 360.914 276.4C359.354 277.66 357.584 278.65 355.604 279.37C353.684 280.09 351.614 280.45 349.394 280.45C347.114 280.45 344.954 279.88 342.914 278.74C340.874 277.6 339.344 276.04 338.324 274.06C337.184 271.96 336.734 269.65 336.974 267.13C337.214 264.61 337.844 262.09 338.864 259.57C339.944 257.05 341.264 254.68 342.824 252.46C344.444 250.24 346.034 248.35 347.594 246.79ZM359.114 249.94C358.514 250.18 357.914 250.54 357.314 251.02C356.714 251.5 356.234 251.89 355.874 252.19C354.854 253.15 353.924 254.2 353.084 255.34C352.244 256.42 351.464 257.56 350.744 258.76C350.084 259.78 349.484 260.89 348.944 262.09C348.404 263.23 347.924 264.4 347.504 265.6C347.264 266.26 347.054 267.07 346.874 268.03C346.694 268.99 346.694 269.86 346.874 270.64C346.934 271 347.114 271.18 347.414 271.18C349.934 271.18 352.094 270.49 353.894 269.11C355.694 267.67 357.074 265.9 358.034 263.8C359.054 261.64 359.654 259.33 359.834 256.87C360.014 254.35 359.774 252.04 359.114 249.94ZM416.199 248.41C416.139 248.83 415.899 249.04 415.479 249.04C414.759 249.04 414.039 249.13 413.319 249.31C412.659 249.43 411.999 249.64 411.339 249.94C409.479 250.78 407.619 251.65 405.759 252.55C403.899 253.39 402.069 254.29 400.269 255.25C398.409 256.21 396.579 257.23 394.779 258.31C392.979 259.39 391.209 260.56 389.469 261.82C390.549 262.42 391.749 263.08 393.069 263.8C394.449 264.52 395.829 265.27 397.209 266.05C398.589 266.77 399.909 267.52 401.169 268.3C402.429 269.08 403.569 269.86 404.589 270.64C405.909 271.66 406.839 272.62 407.379 273.52C407.919 274.42 408.159 275.26 408.099 276.04C407.979 277.12 407.259 277.9 405.939 278.38C404.679 278.8 402.999 278.68 400.899 278.02C399.639 277.6 398.259 277.09 396.759 276.49C395.319 275.83 393.849 275.14 392.349 274.42C390.909 273.7 389.469 273.01 388.029 272.35C386.649 271.63 385.389 271 384.249 270.46C384.069 270.64 383.859 271 383.619 271.54C383.439 272.02 383.319 272.35 383.259 272.53C382.899 273.73 382.629 274.9 382.449 276.04C382.269 277.3 381.759 278.35 380.919 279.19C380.079 280.03 378.999 280.45 377.679 280.45C377.079 280.45 376.539 280.33 376.059 280.09C375.399 279.73 374.889 279.22 374.529 278.56C374.169 277.9 373.899 277.18 373.719 276.4C373.539 275.56 373.449 274.75 373.449 273.97C373.449 273.13 373.449 272.38 373.449 271.72C373.569 269.62 373.839 267.49 374.259 265.33C374.679 263.11 375.129 260.98 375.609 258.94C375.849 257.98 376.209 256.6 376.689 254.8C377.229 253 377.829 251.17 378.489 249.31C379.209 247.39 379.959 245.65 380.739 244.09C381.519 242.47 382.299 241.33 383.079 240.67L383.529 240.31H384.069C384.909 240.31 385.719 240.49 386.499 240.85C387.279 241.21 387.909 241.78 388.389 242.56C389.109 243.76 389.409 245.17 389.289 246.79C389.169 248.41 388.959 249.88 388.659 251.2L388.389 252.28C388.629 252.16 388.839 252.04 389.019 251.92C389.199 251.74 389.409 251.59 389.649 251.47C390.969 250.63 392.289 249.79 393.609 248.95C394.929 248.11 396.279 247.3 397.659 246.52C399.399 245.56 401.349 244.63 403.509 243.73C405.669 242.77 407.709 242.17 409.629 241.93C410.889 241.75 411.969 241.84 412.869 242.2C413.949 242.62 414.819 243.49 415.479 244.81C416.139 246.13 416.379 247.33 416.199 248.41Z" fill="white"/>
</svg>
