<svg width="500" height="500" viewBox="0 0 500 500" fill="none" xmlns="http://www.w3.org/2000/svg">
<rect x="1" y="1" width="498" height="498" fill="#B8E2DB" stroke="#E7A5D4" stroke-width="2"/>
<rect x="21.832" y="21.833" width="456.333" height="456.333" stroke="#E7A5D4" stroke-width="2"/>
<path d="M70.3059 404.079C84.5681 400.681 91.4879 393.555 94.0002 388.702C96.5124 393.555 103.432 400.681 117.694 404.079L118.556 404.284L118.864 403.453L121.543 396.216L129.254 395.905L130.139 395.869L130.21 394.986C131.386 380.372 126.747 371.588 122.908 367.699C128.3 366.81 137.215 362.431 144.854 349.916L145.316 349.16L144.62 348.611L138.565 343.827L140.652 336.397L140.891 335.544L140.073 335.204C126.538 329.569 116.751 331.267 111.866 333.717C112.686 328.314 111.276 318.481 101.735 307.349L101.158 306.676L100.421 307.168L93.9999 311.449L87.5788 307.168L86.8416 306.676L86.2649 307.349C76.7235 318.481 75.314 328.314 76.1342 333.717C71.2491 331.267 61.4622 329.569 47.927 335.204L47.1089 335.544L47.3485 336.397L49.4355 343.827L43.3801 348.611L42.6848 349.16L43.1464 349.916C50.7848 362.431 59.7008 366.81 65.0928 367.699C61.2534 371.588 56.6142 380.372 57.7903 394.986L57.8614 395.869L58.7468 395.905L66.4578 396.216L69.1363 403.453L69.4439 404.284L70.3059 404.079Z" stroke="#E7A5D4" stroke-width="2"/>
<path d="M157.821 296.054C168.474 285.98 170.903 276.349 170.652 270.89C175.255 273.837 184.81 276.548 198.861 272.359L199.71 272.106L199.561 271.233L198.262 263.626L204.784 259.501L205.533 259.027L205.153 258.227C198.864 244.983 190.455 239.696 185.186 238.247C189.41 234.781 194.942 226.531 195.3 211.874L195.322 210.988L194.445 210.86L186.809 209.745L184.901 202.267L184.682 201.408L183.804 201.522C169.265 203.41 161.638 209.774 158.632 214.338C156.64 209.249 150.503 201.439 136.675 196.569L135.839 196.275L135.446 197.069L132.026 203.987L124.324 203.49L123.44 203.433L123.277 204.304C120.58 218.715 124.276 227.935 127.687 232.204C122.232 232.525 112.907 235.948 104.003 247.595L103.464 248.299L104.098 248.918L109.621 254.309L106.769 261.48L106.441 262.303L107.219 262.727C120.091 269.746 130.002 269.08 135.117 267.155C133.736 272.442 134.11 282.369 142.436 294.437L142.939 295.166L143.723 294.754L150.557 291.168L156.495 296.097L157.177 296.663L157.821 296.054Z" stroke="#E7A5D4" stroke-width="2"/>
<path d="M156.135 453.137C162.819 453.911 167.247 452.196 169.615 450.402C170.276 453.298 172.566 457.459 178.183 461.162L178.923 461.65L179.496 460.974L181.777 458.286L185.135 459.357L185.979 459.626L186.348 458.821C189.149 452.704 188.887 447.962 187.912 445.155C190.871 445.422 195.535 444.53 200.793 440.332L201.486 439.779L201.02 439.025L199.168 436.026L201.225 433.162L201.742 432.443L201.09 431.843C196.137 427.289 191.547 426.073 188.576 426.133C189.744 423.401 190.337 418.689 187.97 412.392L187.658 411.562L186.797 411.772L183.372 412.606L181.284 409.765L180.76 409.051L179.988 409.486C174.126 412.789 171.551 416.779 170.69 419.623C168.453 417.668 164.155 415.648 157.434 415.954L156.549 415.994L156.482 416.877L156.217 420.393L152.87 421.5L152.029 421.778L152.204 422.647C153.534 429.242 156.533 432.924 158.972 434.622C156.421 436.145 153.172 439.609 151.386 446.095L151.15 446.95L151.97 447.286L155.231 448.624L155.25 452.15L155.255 453.036L156.135 453.137Z" stroke="#E7A5D4" stroke-width="2"/>
<path d="M334.129 103.296C344.202 113.949 353.834 116.378 359.293 116.127C356.346 120.73 353.634 130.286 357.823 144.336L358.076 145.185L358.95 145.036L366.557 143.737L370.682 150.259L371.155 151.008L371.956 150.628C385.2 144.34 390.487 135.93 391.935 130.661C395.402 134.885 403.652 140.417 418.309 140.775L419.195 140.797L419.323 139.92L420.438 132.284L427.916 130.377L428.774 130.158L428.66 129.279C426.772 114.74 420.408 107.113 415.844 104.107C420.933 102.116 428.744 95.9786 433.614 82.1496L433.908 81.3138L433.114 80.9211L426.196 77.5006L426.693 69.7995L426.75 68.9152L425.879 68.7522C411.468 66.0549 402.248 69.7506 397.978 73.1624C397.657 67.707 394.234 58.3823 382.587 49.4777L381.883 48.9395L381.264 49.5736L375.873 55.0958L368.703 52.2436L367.879 51.9161L367.455 52.6941C360.437 65.5663 361.102 75.4772 363.028 80.5916C357.74 79.2112 347.814 79.5851 335.746 87.9107L335.017 88.4139L335.428 89.1985L339.015 96.0319L334.086 101.97L333.52 102.652L334.129 103.296Z" stroke="#E7A5D4" stroke-width="2"/>
<path d="M306.192 85.4273C308.114 78.9798 307.195 74.3209 305.839 71.6771C308.806 71.5294 313.301 69.9966 317.923 65.1081L318.532 64.4643L317.966 63.7824L315.715 61.0697L317.353 57.9481L317.765 57.1635L317.036 56.6603C311.498 52.8398 306.782 52.2749 303.849 52.7474C304.626 49.8796 304.557 45.1312 301.336 39.2243L300.912 38.4463L300.088 38.7738L296.813 40.0767L294.35 37.5541L293.731 36.92L293.027 37.4582C287.682 41.5445 285.688 45.8543 285.231 48.7901C282.744 47.1654 278.206 45.7636 271.593 47.0014L270.722 47.1644L270.779 48.0487L271.006 51.5667L267.846 53.1291L267.052 53.5219L267.346 54.3577C269.581 60.7037 273.063 63.9321 275.714 65.274C273.4 67.1377 270.665 71.0197 269.799 77.6916L269.684 78.5703L270.543 78.7893L273.959 79.6607L274.468 83.1489L274.597 84.0257L275.482 84.0041C282.208 83.8399 286.355 81.5254 288.45 79.4189C289.508 82.1955 292.355 85.9965 298.432 88.8822L299.233 89.2623L299.706 88.5134L301.591 85.5339L305.065 86.1273L305.939 86.2765L306.192 85.4273Z" stroke="#E7A5D4" stroke-width="2"/>
<path d="M130.583 250V185.68H132.983V250H130.583ZM120.023 250V185.68H122.423V250H120.023ZM125.303 250V185.68H127.703V250H125.303ZM135.863 223.12V220.72H154.663C157.703 220.72 160.45 220.053 162.903 218.72C165.41 217.387 167.383 215.493 168.823 213.04C170.317 210.587 171.063 207.707 171.063 204.4C171.063 201.093 170.317 198.213 168.823 195.76C167.383 193.307 165.41 191.413 162.903 190.08C160.45 188.747 157.703 188.08 154.663 188.08H135.863V185.68H154.663C158.13 185.68 161.277 186.48 164.103 188.08C166.983 189.627 169.25 191.813 170.903 194.64C172.61 197.413 173.463 200.667 173.463 204.4C173.463 208.133 172.61 211.413 170.903 214.24C169.25 217.013 166.983 219.2 164.103 220.8C161.277 222.347 158.13 223.12 154.663 223.12H135.863ZM135.863 217.84V215.44H154.663C157.757 215.44 160.37 214.48 162.503 212.56C164.69 210.587 165.783 207.867 165.783 204.4C165.783 200.933 164.69 198.24 162.503 196.32C160.37 194.347 157.757 193.36 154.663 193.36H135.863V190.96H154.663C157.17 190.96 159.437 191.52 161.463 192.64C163.49 193.707 165.117 195.253 166.343 197.28C167.57 199.253 168.183 201.627 168.183 204.4C168.183 207.173 167.57 209.573 166.343 211.6C165.117 213.573 163.49 215.12 161.463 216.24C159.437 217.307 157.17 217.84 154.663 217.84H135.863ZM135.863 212.56V210.16H154.663C156.263 210.16 157.623 209.707 158.743 208.8C159.917 207.84 160.503 206.373 160.503 204.4C160.503 202.373 159.917 200.907 158.743 200C157.623 199.093 156.263 198.64 154.663 198.64H135.863V196.24H154.663C156.957 196.24 158.903 196.933 160.503 198.32C162.103 199.707 162.903 201.733 162.903 204.4C162.903 207.067 162.103 209.093 160.503 210.48C158.903 211.867 156.957 212.56 154.663 212.56H135.863ZM189.255 250V185.68H191.655V250H189.255ZM178.695 250V185.68H181.095V250H178.695ZM183.975 250V185.68H186.375V250H183.975ZM194.535 188.08V185.68H226.455V188.08H194.535ZM194.535 193.36V190.96H226.455V193.36H194.535ZM194.535 198.64V196.24H226.455V198.64H194.535ZM194.535 213.76V211.36H221.895V213.76H194.535ZM194.535 219.04V216.64H221.895V219.04H194.535ZM194.535 224.32V221.92H221.895V224.32H194.535ZM194.535 239.44V237.04H226.455V239.44H194.535ZM194.535 244.72V242.32H226.455V244.72H194.535ZM194.535 250V247.6H226.455V250H194.535ZM229.636 188.08V185.68H279.316V188.08H229.636ZM229.636 193.36V190.96H279.316V193.36H229.636ZM229.636 198.64V196.24H279.316V198.64H229.636ZM258.596 250V201.2H260.996V250H258.596ZM248.036 250V201.2H250.436V250H248.036ZM253.316 250V201.2H255.716V250H253.316ZM284.917 250L308.197 185.68H310.757L287.477 250H284.917ZM273.717 250L296.997 185.68H299.477L276.277 250H273.717ZM279.317 250L302.517 185.68H305.157L281.877 250H279.317ZM331.797 250L310.917 192.32L312.197 188.72L334.357 250H331.797ZM326.197 250L308.197 200.16L309.397 196.48L328.757 250H326.197ZM320.597 250L305.397 207.92L306.677 204.32L323.157 250H320.597ZM297.957 228.72L298.837 226.32H309.397L310.277 228.72H297.957ZM296.037 234.08L296.917 231.68H311.317L312.197 234.08H296.037ZM294.117 239.36L294.997 236.96H313.237L314.117 239.36H294.117ZM350.505 250V185.68H352.905V250H350.505ZM339.945 250V185.68H342.345V250H339.945ZM345.225 250V185.68H347.625V250H345.225ZM355.785 239.44V237.04H383.145V239.44H355.785ZM355.785 244.72V242.32H383.145V244.72H355.785ZM355.785 250V247.6H383.145V250H355.785ZM141.784 278.08V275.68H191.464V278.08H141.784ZM141.784 283.36V280.96H191.464V283.36H141.784ZM141.784 288.64V286.24H191.464V288.64H141.784ZM170.744 340V291.2H173.144V340H170.744ZM160.184 340V291.2H162.584V340H160.184ZM165.464 340V291.2H167.864V340H165.464ZM197.066 340L220.346 275.68H222.906L199.626 340H197.066ZM185.866 340L209.146 275.68H211.626L188.426 340H185.866ZM191.466 340L214.666 275.68H217.306L194.026 340H191.466ZM243.946 340L223.066 282.32L224.346 278.72L246.506 340H243.946ZM238.346 340L220.346 290.16L221.546 286.48L240.906 340H238.346ZM232.746 340L217.546 297.92L218.826 294.32L235.306 340H232.746ZM210.106 318.72L210.986 316.32H221.546L222.426 318.72H210.106ZM208.186 324.08L209.066 321.68H223.466L224.346 324.08H208.186ZM206.266 329.36L207.146 326.96H225.386L226.266 329.36H206.266ZM273.473 330.64C269.686 330.64 266.566 329.92 264.113 328.48C261.659 326.987 260.326 325.013 260.113 322.56L262.433 321.92C262.433 323.733 263.446 325.253 265.473 326.48C267.553 327.653 270.219 328.24 273.473 328.24C276.833 328.24 279.553 327.627 281.633 326.4C283.766 325.173 284.833 323.6 284.833 321.68C284.833 319.867 283.953 318.4 282.193 317.28C280.433 316.16 278.033 315.173 274.993 314.32L270.033 312.88C263.419 310.96 258.433 308.533 255.073 305.6C251.713 302.667 250.033 298.64 250.033 293.52C250.033 289.84 251.046 286.587 253.073 283.76C255.153 280.88 257.953 278.613 261.473 276.96C265.046 275.307 269.073 274.48 273.553 274.48C277.606 274.48 281.259 275.147 284.513 276.48C287.819 277.76 290.539 279.6 292.673 282C294.859 284.4 296.246 287.2 296.833 290.4L294.513 291.04C294.033 288.213 292.833 285.733 290.913 283.6C288.993 281.467 286.539 279.813 283.553 278.64C280.566 277.467 277.233 276.88 273.553 276.88C269.499 276.88 265.873 277.627 262.673 279.12C259.526 280.56 257.019 282.533 255.153 285.04C253.339 287.547 252.433 290.427 252.433 293.68C252.433 298.053 253.953 301.573 256.993 304.24C260.086 306.853 264.646 308.987 270.673 310.64L275.633 312C279.313 313.013 282.166 314.24 284.193 315.68C286.219 317.12 287.233 319.067 287.233 321.52C287.233 324.24 285.979 326.453 283.473 328.16C280.966 329.813 277.633 330.64 273.473 330.64ZM273.473 335.92C268.459 335.92 264.246 334.827 260.833 332.64C257.473 330.4 255.499 327.493 254.913 323.92L257.312 323.28C257.739 326.373 259.393 328.853 262.273 330.72C265.206 332.587 268.939 333.52 273.473 333.52C276.779 333.52 279.686 333.013 282.193 332C284.699 330.987 286.646 329.573 288.033 327.76C289.419 325.947 290.113 323.867 290.113 321.52C290.113 318.267 288.886 315.707 286.433 313.84C283.979 311.92 280.593 310.373 276.273 309.2L271.393 307.84C266.219 306.4 262.246 304.587 259.473 302.4C256.699 300.213 255.313 297.307 255.313 293.68C255.313 290.96 256.086 288.56 257.633 286.48C259.233 284.4 261.419 282.773 264.193 281.6C266.966 280.373 270.086 279.76 273.553 279.76C276.806 279.76 279.713 280.267 282.273 281.28C284.886 282.24 287.019 283.627 288.673 285.44C290.326 287.253 291.339 289.36 291.713 291.76L289.313 292.4C288.939 289.307 287.286 286.827 284.353 284.96C281.473 283.093 277.873 282.16 273.553 282.16C270.513 282.16 267.793 282.667 265.393 283.68C262.993 284.64 261.099 286 259.713 287.76C258.379 289.467 257.713 291.44 257.713 293.68C257.713 296.72 258.913 299.12 261.313 300.88C263.766 302.64 267.313 304.187 271.953 305.52L276.753 306.88C281.713 308.267 285.579 310.107 288.353 312.4C291.126 314.64 292.512 317.68 292.512 321.52C292.512 324.347 291.713 326.853 290.113 329.04C288.513 331.173 286.273 332.853 283.393 334.08C280.566 335.307 277.259 335.92 273.473 335.92ZM273.473 341.2C269.313 341.2 265.553 340.56 262.193 339.28C258.886 337.947 256.139 336.107 253.953 333.76C251.819 331.36 250.433 328.533 249.793 325.28L252.113 324.64C252.646 327.52 253.846 330.027 255.713 332.16C257.633 334.24 260.113 335.867 263.153 337.04C266.193 338.213 269.633 338.8 273.473 338.8C277.846 338.8 281.659 338.08 284.913 336.64C288.219 335.147 290.779 333.12 292.593 330.56C294.459 327.947 295.393 324.933 295.393 321.52C295.393 316.987 293.819 313.36 290.673 310.64C287.526 307.92 283.099 305.733 277.393 304.08L272.673 302.72C268.779 301.6 265.793 300.373 263.713 299.04C261.633 297.707 260.593 295.92 260.593 293.68C260.593 291.067 261.819 288.987 264.273 287.44C266.726 285.84 269.819 285.04 273.553 285.04C277.179 285.04 280.166 285.787 282.513 287.28C284.859 288.773 286.193 290.72 286.513 293.12L284.193 293.76C284.086 291.893 283.046 290.373 281.073 289.2C279.153 288.027 276.646 287.44 273.553 287.44C270.619 287.44 268.113 288 266.033 289.12C264.006 290.24 262.993 291.707 262.993 293.52C262.993 295.173 263.926 296.507 265.793 297.52C267.713 298.533 270.219 299.493 273.313 300.4L277.873 301.76C284.326 303.68 289.259 306.187 292.673 309.28C296.086 312.32 297.793 316.453 297.793 321.68C297.793 325.467 296.753 328.853 294.673 331.84C292.646 334.773 289.793 337.067 286.113 338.72C282.486 340.373 278.273 341.2 273.473 341.2ZM328.845 297.12L327.325 295.12L341.405 275.68H344.365L328.845 297.12ZM332.205 301.44L330.685 299.44L347.965 275.68H350.925L332.205 301.44ZM335.565 305.76L334.045 303.76L354.525 275.68H357.485L335.565 305.76ZM314.685 340V275.68H317.085V340H314.685ZM304.125 340V275.68H306.525V340H304.125ZM309.405 340V275.68H311.805V340H309.405ZM355.245 340L324.045 299.6L325.565 297.6L358.285 340H355.245ZM348.605 340L320.845 304.08L322.365 302L351.645 340H348.605ZM341.885 340L317.645 308.56L319.085 306.56L344.925 340H341.885Z" fill="white"/>
</svg>
