<svg width="500" height="500" viewBox="0 0 500 500" fill="none" xmlns="http://www.w3.org/2000/svg">
<mask id="mask0_915_81" style="mask-type:alpha" maskUnits="userSpaceOnUse" x="0" y="0" width="500" height="501">
<rect x="1" y="1.00024" width="498" height="498" fill="#D64E24" stroke="#E2A328" stroke-width="2"/>
</mask>
<g mask="url(#mask0_915_81)">
<rect x="1" y="1" width="498" height="498" fill="#A7D7D4" stroke="white" stroke-width="2"/>
<rect x="201.346" y="171.313" width="152.524" height="284.973" transform="rotate(70 201.346 171.313)" fill="#A7D7D4" fill-opacity="0.8" stroke="white" stroke-width="2"/>
<path d="M110.64 220.852L123.495 198.585L187.902 87.0299L436.428 230.516L359.166 364.338L227.407 288.267L110.64 220.852Z" fill="#62CBC4" fill-opacity="0.8"/>
<rect x="359.515" y="-101.656" width="152.524" height="284.973" transform="rotate(10 359.515 -101.656)" fill="#A7D7D4" fill-opacity="0.8" stroke="white" stroke-width="2"/>
<path d="M159.207 327.646L227.343 288.308L293.029 250.384L436.515 498.91L302.694 576.172L159.207 327.646Z" fill="#E1DE3D" fill-opacity="0.8"/>
<rect x="1" y="1" width="498" height="498" stroke="white" stroke-width="2"/>
<rect x="21.833" y="21.8335" width="456.333" height="456.333" stroke="white" stroke-width="2"/>
<path d="M67.5995 282V275.07C60.7595 275.01 56.1095 273.87 53.6495 271.65C51.1895 269.43 49.9595 266.52 49.9595 262.92V236.37C49.9595 232.77 51.2195 229.86 53.7395 227.64C56.2595 225.36 61.0295 224.22 68.0495 224.22C75.0695 224.22 79.8695 225.36 82.4495 227.64C85.0295 229.86 86.3195 232.77 86.3195 236.37V262.92C86.3195 266.52 85.0595 269.43 82.5395 271.65C80.0195 273.87 75.3395 275.01 68.4995 275.07V282H67.5995ZM50.8595 262.92C50.8595 266.28 52.0595 269.01 54.4595 271.11C56.8595 273.15 61.3895 274.17 68.0495 274.17C74.7095 274.17 79.2695 273.15 81.7295 271.11C84.1895 269.01 85.4195 266.28 85.4195 262.92V236.37C85.4195 233.01 84.1895 230.31 81.7295 228.27C79.2695 226.17 74.7095 225.12 68.0495 225.12C61.3895 225.12 56.8595 226.17 54.4595 228.27C52.0595 230.31 50.8595 233.01 50.8595 236.37V262.92ZM117.037 225.3H117.937V262.83C117.937 266.19 119.107 268.92 121.447 271.02C123.847 273.06 128.377 274.08 135.037 274.08C141.697 274.08 146.227 273.06 148.627 271.02C151.027 268.92 152.227 266.19 152.227 262.83V225.3H153.127V262.83C153.127 266.43 151.867 269.37 149.347 271.65C146.827 273.87 142.057 274.98 135.037 274.98C128.017 274.98 123.247 273.87 120.727 271.65C118.267 269.37 117.037 266.43 117.037 262.83V225.3ZM214.875 273V273.9H184.545V225.3H214.875V226.2H185.445V248.79H207.585V249.69H185.445V273H214.875ZM270.972 225.3V226.2H250.992C248.472 226.2 246.462 226.89 244.962 228.27C243.462 229.65 242.712 231.39 242.712 233.49V240.87C242.712 242.97 243.132 244.44 243.972 245.28C244.812 246.12 245.922 246.66 247.302 246.9L266.292 250.77C268.092 251.13 269.562 251.91 270.702 253.11C271.902 254.31 272.502 256.47 272.502 259.59V264.81C272.502 267.45 271.602 269.64 269.802 271.38C268.002 273.06 265.572 273.9 262.512 273.9H240.102V273H262.512C265.272 273 267.462 272.25 269.082 270.75C270.762 269.19 271.602 267.21 271.602 264.81V259.59C271.602 256.77 271.092 254.85 270.072 253.83C269.112 252.75 267.792 252.03 266.112 251.67L247.122 247.8C245.562 247.5 244.272 246.9 243.252 246C242.292 245.04 241.812 243.33 241.812 240.87V233.49C241.812 231.09 242.652 229.14 244.332 227.64C246.012 226.08 248.232 225.3 250.992 225.3H270.972ZM314.138 273.9V226.2H295.688V225.3H333.488V226.2H315.038V273.9H314.138ZM385.621 273.9H357.001V273H370.951V226.2H357.001V225.3H385.621V226.2H371.851V273H385.621V273.9ZM449.923 262.92C449.923 266.52 448.633 269.46 446.053 271.74C443.473 273.96 438.673 275.07 431.653 275.07C424.633 275.07 419.863 273.96 417.343 271.74C414.823 269.46 413.563 266.52 413.563 262.92V236.37C413.563 232.77 414.823 229.86 417.343 227.64C419.863 225.36 424.633 224.22 431.653 224.22C438.673 224.22 443.473 225.36 446.053 227.64C448.633 229.86 449.923 232.77 449.923 236.37V262.92ZM414.463 262.92C414.463 266.28 415.663 269.01 418.063 271.11C420.463 273.15 424.993 274.17 431.653 274.17C438.313 274.17 442.873 273.15 445.333 271.11C447.793 269.01 449.023 266.28 449.023 262.92V236.37C449.023 233.01 447.793 230.31 445.333 228.27C442.873 226.17 438.313 225.12 431.653 225.12C424.993 225.12 420.463 226.17 418.063 228.27C415.663 230.31 414.463 233.01 414.463 236.37V262.92Z" fill="white"/>
<path d="M67.5995 282H66.5995V283H67.5995V282ZM67.5995 275.07H68.5995V274.079L67.6083 274.07L67.5995 275.07ZM53.6495 271.65L54.3195 270.908L54.3195 270.908L53.6495 271.65ZM53.7395 227.64L54.4006 228.39L54.4104 228.382L53.7395 227.64ZM82.4495 227.64L81.7873 228.389L81.7973 228.398L82.4495 227.64ZM82.5395 271.65L81.8785 270.9L81.8785 270.9L82.5395 271.65ZM68.4995 275.07L68.4908 274.07L67.4995 274.079V275.07H68.4995ZM68.4995 282V283H69.4995V282H68.4995ZM54.4595 271.11L53.801 271.863L53.8064 271.867L53.8119 271.872L54.4595 271.11ZM81.7295 271.11L82.3679 271.88L82.3734 271.875L82.3788 271.871L81.7295 271.11ZM81.7295 228.27L81.0803 229.031L81.0857 229.035L81.0912 229.04L81.7295 228.27ZM54.4595 228.27L55.1072 229.032L55.1126 229.027L55.118 229.023L54.4595 228.27ZM68.5995 282V275.07H66.5995V282H68.5995ZM67.6083 274.07C60.7942 274.01 56.4836 272.861 54.3195 270.908L52.9796 272.392C55.7355 274.879 60.7249 276.01 67.5908 276.07L67.6083 274.07ZM54.3195 270.908C52.0891 268.895 50.9595 266.264 50.9595 262.92H48.9595C48.9595 266.776 50.2899 269.965 52.9796 272.392L54.3195 270.908ZM50.9595 262.92V236.37H48.9595V262.92H50.9595ZM50.9595 236.37C50.9595 233.034 52.113 230.406 54.4006 228.39L53.0785 226.89C50.3261 229.314 48.9595 232.506 48.9595 236.37H50.9595ZM54.4104 228.382C56.6303 226.373 61.055 225.22 68.0495 225.22V223.22C61.0041 223.22 55.8888 224.347 53.0686 226.898L54.4104 228.382ZM68.0495 225.22C75.0397 225.22 79.5039 226.371 81.7873 228.389L83.1117 226.891C80.2352 224.349 75.0993 223.22 68.0495 223.22V225.22ZM81.7973 228.398C84.1424 230.416 85.3195 233.042 85.3195 236.37H87.3195C87.3195 232.498 85.9167 229.304 83.1018 226.882L81.7973 228.398ZM85.3195 236.37V262.92H87.3195V236.37H85.3195ZM85.3195 262.92C85.3195 266.256 84.1661 268.884 81.8785 270.9L83.2006 272.4C85.953 269.976 87.3195 266.784 87.3195 262.92H85.3195ZM81.8785 270.9C79.6507 272.862 75.3005 274.01 68.4908 274.07L68.5083 276.07C75.3786 276.01 80.3884 274.878 83.2006 272.4L81.8785 270.9ZM67.4995 275.07V282H69.4995V275.07H67.4995ZM68.4995 281H67.5995V283H68.4995V281ZM49.8595 262.92C49.8595 266.551 51.1711 269.561 53.801 271.863L55.118 270.357C52.9479 268.459 51.8595 266.009 51.8595 262.92H49.8595ZM53.8119 271.872C55.1798 273.035 57.0837 273.851 59.4374 274.381C61.7981 274.912 64.6746 275.17 68.0495 275.17V273.17C64.7645 273.17 62.046 272.918 59.8767 272.429C57.7003 271.939 56.1393 271.225 55.1072 270.348L53.8119 271.872ZM68.0495 275.17C74.7332 275.17 79.6152 274.162 82.3679 271.88L81.0912 270.34C78.9238 272.138 74.6859 273.17 68.0495 273.17V275.17ZM82.3788 271.871C85.0711 269.572 86.4195 266.56 86.4195 262.92H84.4195C84.4195 266 83.308 268.448 81.0803 270.349L82.3788 271.871ZM86.4195 262.92V236.37H84.4195V262.92H86.4195ZM86.4195 236.37C86.4195 232.73 85.0701 229.741 82.3679 227.5L81.0912 229.04C83.3089 230.879 84.4195 233.29 84.4195 236.37H86.4195ZM82.3788 227.509C79.6245 225.158 74.7365 224.12 68.0495 224.12V226.12C74.6825 226.12 78.9146 227.182 81.0803 229.031L82.3788 227.509ZM68.0495 224.12C64.6732 224.12 61.7945 224.386 59.4312 224.933C57.0743 225.48 55.1686 226.321 53.801 227.517L55.118 229.023C56.1505 228.119 57.7098 227.385 59.8828 226.882C62.0496 226.379 64.7658 226.12 68.0495 226.12V224.12ZM53.8119 227.508C51.1719 229.752 49.8595 232.739 49.8595 236.37H51.8595C51.8595 233.281 52.9471 230.868 55.1072 229.032L53.8119 227.508ZM49.8595 236.37V262.92H51.8595V236.37H49.8595ZM117.037 225.3V224.3H116.037V225.3H117.037ZM117.937 225.3H118.937V224.3H117.937V225.3ZM121.447 271.02L120.779 271.764L120.789 271.773L120.799 271.782L121.447 271.02ZM148.627 271.02L149.275 271.782L149.28 271.777L149.285 271.773L148.627 271.02ZM152.227 225.3V224.3H151.227V225.3H152.227ZM153.127 225.3H154.127V224.3H153.127V225.3ZM149.347 271.65L150.008 272.4L150.018 272.392L149.347 271.65ZM120.727 271.65L120.047 272.383L120.056 272.392L120.066 272.4L120.727 271.65ZM117.037 226.3H117.937V224.3H117.037V226.3ZM116.937 225.3V262.83H118.937V225.3H116.937ZM116.937 262.83C116.937 266.452 118.212 269.46 120.779 271.764L122.115 270.276C120.002 268.38 118.937 265.928 118.937 262.83H116.937ZM120.799 271.782C122.167 272.945 124.071 273.761 126.425 274.291C128.786 274.822 131.662 275.08 135.037 275.08V273.08C131.752 273.08 129.033 272.828 126.864 272.339C124.688 271.849 123.127 271.135 122.095 270.258L120.799 271.782ZM135.037 275.08C138.412 275.08 141.288 274.822 143.649 274.291C146.003 273.761 147.907 272.945 149.275 271.782L147.979 270.258C146.947 271.135 145.386 271.849 143.21 272.339C141.041 272.828 138.322 273.08 135.037 273.08V275.08ZM149.285 271.773C151.915 269.471 153.227 266.461 153.227 262.83H151.227C151.227 265.919 150.139 268.369 147.968 270.267L149.285 271.773ZM153.227 262.83V225.3H151.227V262.83H153.227ZM152.227 226.3H153.127V224.3H152.227V226.3ZM152.127 225.3V262.83H154.127V225.3H152.127ZM152.127 262.83C152.127 266.166 150.973 268.83 148.676 270.908L150.018 272.392C152.761 269.91 154.127 266.694 154.127 262.83H152.127ZM148.686 270.9C147.594 271.862 145.945 272.64 143.653 273.174C141.366 273.706 138.501 273.98 135.037 273.98V275.98C138.593 275.98 141.622 275.699 144.106 275.121C146.583 274.545 148.58 273.658 150.008 272.4L148.686 270.9ZM135.037 273.98C131.573 273.98 128.707 273.706 126.421 273.174C124.128 272.64 122.48 271.862 121.388 270.9L120.066 272.4C121.494 273.658 123.49 274.545 125.968 275.121C128.451 275.699 131.481 275.98 135.037 275.98V273.98ZM121.407 270.917C119.167 268.841 118.037 266.174 118.037 262.83H116.037C116.037 266.686 117.367 269.899 120.047 272.383L121.407 270.917ZM118.037 262.83V225.3H116.037V262.83H118.037ZM214.875 273H215.875V272H214.875V273ZM214.875 273.9V274.9H215.875V273.9H214.875ZM184.545 273.9H183.545V274.9H184.545V273.9ZM184.545 225.3V224.3H183.545V225.3H184.545ZM214.875 225.3H215.875V224.3H214.875V225.3ZM214.875 226.2V227.2H215.875V226.2H214.875ZM185.445 226.2V225.2H184.445V226.2H185.445ZM185.445 248.79H184.445V249.79H185.445V248.79ZM207.585 248.79H208.585V247.79H207.585V248.79ZM207.585 249.69V250.69H208.585V249.69H207.585ZM185.445 249.69V248.69H184.445V249.69H185.445ZM185.445 273H184.445V274H185.445V273ZM213.875 273V273.9H215.875V273H213.875ZM214.875 272.9H184.545V274.9H214.875V272.9ZM185.545 273.9V225.3H183.545V273.9H185.545ZM184.545 226.3H214.875V224.3H184.545V226.3ZM213.875 225.3V226.2H215.875V225.3H213.875ZM214.875 225.2H185.445V227.2H214.875V225.2ZM184.445 226.2V248.79H186.445V226.2H184.445ZM185.445 249.79H207.585V247.79H185.445V249.79ZM206.585 248.79V249.69H208.585V248.79H206.585ZM207.585 248.69H185.445V250.69H207.585V248.69ZM184.445 249.69V273H186.445V249.69H184.445ZM185.445 274H214.875V272H185.445V274ZM270.972 225.3H271.972V224.3H270.972V225.3ZM270.972 226.2V227.2H271.972V226.2H270.972ZM243.972 245.28L244.679 244.573L244.679 244.573L243.972 245.28ZM247.302 246.9L247.502 245.92L247.488 245.917L247.473 245.915L247.302 246.9ZM266.292 250.77L266.092 251.75L266.096 251.751L266.292 250.77ZM270.702 253.11L269.977 253.799L269.986 253.808L269.995 253.817L270.702 253.11ZM269.802 271.38L270.484 272.111L270.491 272.105L270.497 272.099L269.802 271.38ZM240.102 273.9H239.102V274.9H240.102V273.9ZM240.102 273V272H239.102V273H240.102ZM269.082 270.75L269.762 271.484L269.763 271.483L269.082 270.75ZM270.072 253.83L269.325 254.494L269.344 254.516L269.365 254.537L270.072 253.83ZM266.112 251.67L266.322 250.692L266.312 250.69L266.112 251.67ZM247.122 247.8L247.322 246.82L247.311 246.818L247.122 247.8ZM243.252 246L242.545 246.707L242.567 246.729L242.59 246.75L243.252 246ZM244.332 227.64L244.998 228.386L245.005 228.379L245.013 228.373L244.332 227.64ZM269.972 225.3V226.2H271.972V225.3H269.972ZM270.972 225.2H250.992V227.2H270.972V225.2ZM250.992 225.2C248.283 225.2 246.011 225.946 244.285 227.534L245.639 229.006C246.913 227.834 248.661 227.2 250.992 227.2V225.2ZM244.285 227.534C242.572 229.11 241.712 231.12 241.712 233.49H243.712C243.712 231.66 244.352 230.19 245.639 229.006L244.285 227.534ZM241.712 233.49V240.87H243.712V233.49H241.712ZM241.712 240.87C241.712 243.048 242.137 244.859 243.265 245.987L244.679 244.573C244.127 244.021 243.712 242.892 243.712 240.87H241.712ZM243.265 245.987C244.275 246.997 245.585 247.616 247.131 247.885L247.473 245.915C246.259 245.704 245.349 245.243 244.679 244.573L243.265 245.987ZM247.102 247.88L266.092 251.75L266.492 249.79L247.502 245.92L247.102 247.88ZM266.096 251.751C267.717 252.075 268.994 252.764 269.977 253.799L271.427 252.421C270.13 251.056 268.467 250.185 266.488 249.789L266.096 251.751ZM269.995 253.817C270.902 254.724 271.502 256.534 271.502 259.59H273.502C273.502 256.406 272.902 253.896 271.409 252.403L269.995 253.817ZM271.502 259.59V264.81H273.502V259.59H271.502ZM271.502 264.81C271.502 267.195 270.701 269.121 269.107 270.661L270.497 272.099C272.504 270.159 273.502 267.705 273.502 264.81H271.502ZM269.12 270.649C267.547 272.117 265.383 272.9 262.512 272.9V274.9C265.761 274.9 268.457 274.003 270.484 272.111L269.12 270.649ZM262.512 272.9H240.102V274.9H262.512V272.9ZM241.102 273.9V273H239.102V273.9H241.102ZM240.102 274H262.512V272H240.102V274ZM262.512 274C265.458 274 267.913 273.195 269.762 271.484L268.403 270.016C267.011 271.305 265.086 272 262.512 272V274ZM269.763 271.483C271.657 269.724 272.602 267.473 272.602 264.81H270.602C270.602 266.947 269.867 268.656 268.402 270.017L269.763 271.483ZM272.602 264.81V259.59H270.602V264.81H272.602ZM272.602 259.59C272.602 256.727 272.1 254.444 270.779 253.123L269.365 254.537C270.084 255.256 270.602 256.813 270.602 259.59H272.602ZM270.82 253.166C269.693 251.898 268.169 251.088 266.322 250.692L265.903 252.648C267.415 252.972 268.531 253.602 269.325 254.494L270.82 253.166ZM266.312 250.69L247.322 246.82L246.922 248.78L265.912 252.65L266.312 250.69ZM247.311 246.818C245.897 246.546 244.779 246.013 243.914 245.25L242.59 246.75C243.766 247.787 245.228 248.454 246.933 248.782L247.311 246.818ZM243.959 245.293C243.291 244.624 242.812 243.261 242.812 240.87H240.812C240.812 243.399 241.294 245.456 242.545 246.707L243.959 245.293ZM242.812 240.87V233.49H240.812V240.87H242.812ZM242.812 233.49C242.812 231.354 243.546 229.683 244.998 228.386L243.666 226.894C241.758 228.597 240.812 230.826 240.812 233.49H242.812ZM245.013 228.373C246.471 227.018 248.43 226.3 250.992 226.3V224.3C248.034 224.3 245.553 225.142 243.652 226.907L245.013 228.373ZM250.992 226.3H270.972V224.3H250.992V226.3ZM314.138 273.9H313.138V274.9H314.138V273.9ZM314.138 226.2H315.138V225.2H314.138V226.2ZM295.688 226.2H294.688V227.2H295.688V226.2ZM295.688 225.3V224.3H294.688V225.3H295.688ZM333.488 225.3H334.488V224.3H333.488V225.3ZM333.488 226.2V227.2H334.488V226.2H333.488ZM315.038 226.2V225.2H314.038V226.2H315.038ZM315.038 273.9V274.9H316.038V273.9H315.038ZM315.138 273.9V226.2H313.138V273.9H315.138ZM314.138 225.2H295.688V227.2H314.138V225.2ZM296.688 226.2V225.3H294.688V226.2H296.688ZM295.688 226.3H333.488V224.3H295.688V226.3ZM332.488 225.3V226.2H334.488V225.3H332.488ZM333.488 225.2H315.038V227.2H333.488V225.2ZM314.038 226.2V273.9H316.038V226.2H314.038ZM315.038 272.9H314.138V274.9H315.038V272.9ZM385.621 273.9V274.9H386.621V273.9H385.621ZM357.001 273.9H356.001V274.9H357.001V273.9ZM357.001 273V272H356.001V273H357.001ZM370.951 273V274H371.951V273H370.951ZM370.951 226.2H371.951V225.2H370.951V226.2ZM357.001 226.2H356.001V227.2H357.001V226.2ZM357.001 225.3V224.3H356.001V225.3H357.001ZM385.621 225.3H386.621V224.3H385.621V225.3ZM385.621 226.2V227.2H386.621V226.2H385.621ZM371.851 226.2V225.2H370.851V226.2H371.851ZM371.851 273H370.851V274H371.851V273ZM385.621 273H386.621V272H385.621V273ZM385.621 272.9H357.001V274.9H385.621V272.9ZM358.001 273.9V273H356.001V273.9H358.001ZM357.001 274H370.951V272H357.001V274ZM371.951 273V226.2H369.951V273H371.951ZM370.951 225.2H357.001V227.2H370.951V225.2ZM358.001 226.2V225.3H356.001V226.2H358.001ZM357.001 226.3H385.621V224.3H357.001V226.3ZM384.621 225.3V226.2H386.621V225.3H384.621ZM385.621 225.2H371.851V227.2H385.621V225.2ZM370.851 226.2V273H372.851V226.2H370.851ZM371.851 274H385.621V272H371.851V274ZM384.621 273V273.9H386.621V273H384.621ZM446.053 271.74L446.705 272.498L446.715 272.489L446.053 271.74ZM417.343 271.74L416.672 272.482L416.682 272.49L417.343 271.74ZM417.343 227.64L418.004 228.39L418.014 228.382L417.343 227.64ZM446.053 227.64L445.391 228.389L445.401 228.398L446.053 227.64ZM418.063 271.11L417.405 271.863L417.41 271.867L417.415 271.872L418.063 271.11ZM445.333 271.11L445.971 271.88L445.977 271.875L445.982 271.871L445.333 271.11ZM445.333 228.27L444.684 229.031L444.689 229.035L444.695 229.04L445.333 228.27ZM418.063 228.27L418.711 229.032L418.716 229.027L418.722 229.023L418.063 228.27ZM448.923 262.92C448.923 266.248 447.745 268.91 445.391 270.991L446.715 272.489C449.521 270.01 450.923 266.792 450.923 262.92H448.923ZM445.401 270.982C443.116 272.948 438.647 274.07 431.653 274.07V276.07C438.699 276.07 443.83 274.972 446.705 272.498L445.401 270.982ZM431.653 274.07C428.189 274.07 425.324 273.796 423.037 273.264C420.745 272.73 419.096 271.952 418.004 270.99L416.682 272.49C418.11 273.748 420.107 274.635 422.584 275.211C425.068 275.789 428.097 276.07 431.653 276.07V274.07ZM418.014 270.998C415.717 268.92 414.563 266.256 414.563 262.92H412.563C412.563 266.784 413.929 270 416.672 272.482L418.014 270.998ZM414.563 262.92V236.37H412.563V262.92H414.563ZM414.563 236.37C414.563 233.034 415.716 230.406 418.004 228.39L416.682 226.89C413.93 229.314 412.563 232.506 412.563 236.37H414.563ZM418.014 228.382C420.234 226.373 424.659 225.22 431.653 225.22V223.22C424.608 223.22 419.492 224.347 416.672 226.898L418.014 228.382ZM431.653 225.22C438.643 225.22 443.107 226.371 445.391 228.389L446.715 226.891C443.839 224.349 438.703 223.22 431.653 223.22V225.22ZM445.401 228.398C447.746 230.416 448.923 233.042 448.923 236.37H450.923C450.923 232.498 449.52 229.304 446.705 226.882L445.401 228.398ZM448.923 236.37V262.92H450.923V236.37H448.923ZM413.463 262.92C413.463 266.551 414.775 269.561 417.405 271.863L418.722 270.357C416.551 268.459 415.463 266.009 415.463 262.92H413.463ZM417.415 271.872C418.783 273.035 420.687 273.851 423.041 274.381C425.402 274.912 428.278 275.17 431.653 275.17V273.17C428.368 273.17 425.649 272.918 423.48 272.429C421.304 271.939 419.743 271.225 418.711 270.348L417.415 271.872ZM431.653 275.17C438.337 275.17 443.219 274.162 445.971 271.88L444.695 270.34C442.527 272.138 438.289 273.17 431.653 273.17V275.17ZM445.982 271.871C448.675 269.572 450.023 266.56 450.023 262.92H448.023C448.023 266 446.912 268.448 444.684 270.349L445.982 271.871ZM450.023 262.92V236.37H448.023V262.92H450.023ZM450.023 236.37C450.023 232.73 448.674 229.741 445.971 227.5L444.695 229.04C446.912 230.879 448.023 233.29 448.023 236.37H450.023ZM445.982 227.509C443.228 225.158 438.34 224.12 431.653 224.12V226.12C438.286 226.12 442.518 227.182 444.684 229.031L445.982 227.509ZM431.653 224.12C428.277 224.12 425.398 224.386 423.035 224.933C420.678 225.48 418.772 226.321 417.405 227.517L418.722 229.023C419.754 228.119 421.313 227.385 423.486 226.882C425.653 226.379 428.369 226.12 431.653 226.12V224.12ZM417.415 227.508C414.775 229.752 413.463 232.739 413.463 236.37H415.463C415.463 233.281 416.551 230.868 418.711 229.032L417.415 227.508ZM413.463 236.37V262.92H415.463V236.37H413.463Z" fill="white"/>
</g>
</svg>
