<svg width="200" height="200" viewBox="0 0 200 200" fill="none" xmlns="http://www.w3.org/2000/svg">
<mask id="mask0_1509_14" style="mask-type:alpha" maskUnits="userSpaceOnUse" x="0" y="0" width="200" height="200">
<rect x="0.5" y="0.5" width="199" height="199" rx="4.5" fill="#D9D9D9" stroke="black"/>
</mask>
<g mask="url(#mask0_1509_14)">
<rect x="0.5" y="0.5" width="199" height="199" rx="4.5" stroke="#ECC30B"/>
<path d="M5.33323 200L42.1101 158.667M5.33323 200H-33.3334M5.33323 200V159.44M5.33323 200V194.667M233.333 183.333L209.41 168.589M123 115.333L129.333 119.237M123 115.333H109M123 115.333V114M150.667 100.667L146.667 100.763M150.667 100.667V96.6667M150.667 100.667V102.667M150.667 132.385L153.333 132V127.833M150.667 132.385L159.333 137.726M150.667 132.385L131.667 120.675M150.667 132.385V128.333M146.667 96.6667V100.763M146.667 96.6667H150.667M146.667 96.6667V90L143.333 90.6667V100.843M146.667 100.763L143.333 100.843M150.667 96.6667V89.3333L152.667 89V96.6667M150.667 96.6667H152.667M159.333 137.726L165.333 141.424M159.333 137.726V131.333M165.333 95.3333L159.333 95.6667V99.3333M165.333 95.3333H170V100.333M165.333 95.3333V100.333M165.333 141.424L170 139.999V134M165.333 141.424V134M165.333 141.424L201.333 163.611M129.333 101.181L130.667 101.149M129.333 101.181V102.667M129.333 101.181L126.667 101.245M129.333 119.237L131.667 120.675M129.333 119.237V116.333M130.667 101.149V106M130.667 101.149V89.3333M130.667 106H129.333M130.667 106H131.667M129.333 106V105.167M129.333 106V108M131.667 106V105.333M131.667 106V108.333M131.667 120.675V119.237M123 102.667V101.333L126.667 101.245M123 102.667H129.333M123 102.667V103.333M129.333 102.667V105.167M123 104.667L129.333 105.167M123 104.667V107M123 104.667V103.333M123 107L129.333 108M123 107V109.333M129.333 108V110.667M123 109.333L129.333 110.667M123 109.333V111.333M129.333 110.667V113.333M123 111.333L129.333 113.333M123 111.333V113.667M129.333 113.333V116.333M123 113.667L129.333 116.333M123 113.667V114M131.667 102.667V101.125L135 101.044M131.667 102.667H150.667M131.667 102.667V105.333M150.667 102.667V107M150.667 102.667H153.333M131.667 105.333L150.667 107M150.667 107V111M150.667 107H153.333M131.667 108.333L150.667 111M131.667 108.333V111M150.667 111V115.333M150.667 111H153.333M131.667 111L150.667 115.333M131.667 111V114M150.667 115.333V119.333M150.667 115.333H153.333M131.667 114L150.667 119.333M131.667 114V116.667M150.667 119.333V123.667M150.667 119.333H153.333M131.667 116.667L150.667 123.667M131.667 116.667V119.237M150.667 123.667V128.333M150.667 123.667L153.333 123.333M131.667 119.237L150.667 128.333M150.667 128.333L153.333 127.833M153.333 102.667V107M153.333 102.667V99.3333M153.333 107V111M153.333 111V115.333M153.333 115.333V119.333M153.333 119.333V123.333M153.333 123.333V127.833M153.333 123.333L159.333 125.333M159.333 131.333L165.333 134M159.333 131.333V126.333M165.333 134V128.333M165.333 134L170 132.333M159.333 126.333L165.333 128.333M159.333 126.333V125.333M165.333 128.333V123.333M165.333 128.333L170 126.667M159.333 121.667L165.333 123.333M159.333 121.667V116.667M159.333 121.667V123.333M165.333 123.333V118M165.333 123.333L170 121.667M159.333 116.667L165.333 118M159.333 116.667V112M165.333 118V112.667M165.333 118L170 116.667M159.333 112L165.333 112.667M159.333 112V107.333M165.333 112.667V107.667M165.333 112.667L170 112M159.333 107.333L165.333 107.667M159.333 107.333V102.667M165.333 107.667V102.667M165.333 107.667L170 107.333M159.333 102.667H165.333M159.333 102.667V100.843M165.333 102.667V100.333M165.333 102.667H170M159.333 100.333H165.333M159.333 100.333V99.3333M159.333 100.333V100.843M165.333 100.333H170M170 132.333V126.667M170 132.333V134M170 126.667V121.667M170 121.667V116.667M170 116.667V112M170 112V107.333M170 107.333V102.667M170 107.333H201.333V110.333M170 102.667V100.333M126.667 101.245V90.6667L130.667 89.3333M130.667 89.3333L135 88.0333M144 85.3333V83.6667M144 85.3333L148 84M144 85.3333L140.667 86.3333M144 83.6667L148 82.3333M144 83.6667H139.778M148 82.3333V80.3333L152 78.6667M148 82.3333L152 81M148 82.3333V84M152 78.6667H157.333M152 78.6667V81M157.333 78.6667L182.333 69.6667M157.333 78.6667V81M182.333 69.6667V73M182.333 69.6667L184 69.3333M182.333 75L157.333 82.6667M182.333 75V73M182.333 75V107.333H184M157.333 82.6667H152M157.333 82.6667V81M157.333 82.6667L156.667 82.8571M152 82.6667L148 84M152 82.6667V81M148 84H152.667L153.833 83.6667M152 81H157.333M157.333 81L182.333 73M135 88.0333V101.044M135 88.0333L136.667 87.5333M135 101.044L136.667 101.004M136.667 87.5333V101.004M136.667 87.5333L140.667 86.3333M136.667 101.004L143.333 100.843M184 107.333V69.3333M184 107.333H188.667V69.3333M184 69.3333H184.126M184 69.3333H167.333M188.667 69.3333H184.126M188.667 69.3333H195.333M169.333 62.3333V68.3333M169.333 62.3333L167.333 63.3333V69.3333M169.333 62.3333H177.333M169.333 68.3333L167.333 69.3333M169.333 68.3333H177.333M167.333 69.3333H184.126M177.333 62.3333L183.333 60M177.333 62.3333V66.3333M183.333 60V55.3333L186 54M183.333 60V62.6667M186 54V61.3333M186 54H201.333V61.3333M186 61.3333L183.333 62.6667M186 61.3333H201.333M183.333 62.6667H186M177.333 68.3333L191.667 62.6667H186M177.333 68.3333V66.3333M177.333 66.3333L186 62.6667M201.333 61.3333V67.3333L195.333 69.3333M195.333 69.3333V107.333M170 134L201.333 146.333V143.333M142.667 53.3333V78.6667M142.667 53.3333H131.667L148 33.0749M142.667 53.3333V50L152.667 40M142.667 53.3333H134.333L145.583 40M142.667 78.6667L131.333 84L134 86.3333M142.667 78.6667V82.3333L139.778 83.6667M134 86.3333H140.667M134 86.3333L139.778 83.6667M179.333 0H174.667L166 10.7494M179.333 0L160.771 22M179.333 0H194.333L171 22H166.667M152.667 40H145.583M152.667 40V37L166.667 22M145.583 40L160.771 22M166.667 22H160.771M152.667 96.6667H153.333V99.3333M153.833 83.6667V98.3333H156.667V82.8571M153.833 83.6667L156.667 82.8571M153.333 99.3333H159.333M233.333 143L220 139.333H216V128.667H233.333V70M233.333 70L216 74.3333M233.333 70V65L228.615 66.3333M233.333 61.3333H216V66.3333M216 66.3333V69.3333L228.615 66.3333M216 66.3333H228.615M42.1101 158.667V156.665M42.1101 158.667L53.9337 145.378V138.497M42.1101 145V144.079M42.1101 145L5.33323 176.667M42.1101 145V148.332M201.333 0V110.333M201.333 163.611C203 166.667 206.561 168.239 209.41 168.589M201.333 163.611V143.333M216 0V167.333M216 167.333C215.142 168.191 212.431 168.96 209.41 168.589M216 167.333L233.333 176.667M201.333 143.333V110.333M201.333 143.333L194 140.674V110.011L201.333 110.333M92.6666 102V109H91.3332M92.6666 102H102.333M92.6666 102H89.9999M79.5261 109H80.6666M109 115.333H80.6666L79.6666 116.457M109 115.333V114M91.3332 87H90.3332M91.3332 87H98.3332M91.3332 87V89.3333M91.3332 109V92.6667M91.3332 109H89.9999M98.9999 72.3333H90.3332V74.6667M98.9999 72.3333V78M98.9999 72.3333V70.6667M90.3332 87V74.6667M90.3332 87H87.4999M90.3332 87L87.4999 74.6667M81.9999 87H79.1116M81.9999 87V74.6667M81.9999 87H84.6666M81.9999 87L84.6666 74.6667M98.3332 87H98.9999V78M98.3332 87V89.6667H111.333M111.333 89.6667V78H104M111.333 89.6667L106.667 92.6667M98.9999 78H104M98.9999 67.6667H105M98.9999 67.6667V70.6667M98.9999 67.6667H78.7473M105 67.6667L104 69.6667M105 67.6667L105.432 66.803M104 69.6667H110.667M104 69.6667L104.667 68.6667H111.333M110.667 69.6667L111.333 68.6667M110.667 69.6667L106.667 76H104M111.333 68.6667L105.432 66.803M104 76V70.6667H98.9999M104 76V78M103.944 66.3333L79.6666 58.6667L78.584 59.0031M103.944 66.3333H105.667L105.432 66.803M103.944 66.3333H78.7222M91.3332 92.6667H102.333M91.3332 92.6667V89.3333M102.333 92.6667V102M102.333 92.6667C100.2 90.2667 94.111 89.4444 91.3332 89.3333M102.333 92.6667H106.667M102.333 102H106.667M106.667 92.6667V102M106.667 102H109V103.333M109 103.333H123M109 103.333V114M109 114H123M75.9999 28H77.9999M75.9999 28V59.4715V59.8063M75.9999 28L76.3332 26.6667M75.9999 28C73.0666 25.0667 69.6666 8.11111 68.3332 0M77.9999 28L77.6666 26.6667M77.9999 28L78.2009 38.6667M79.6666 116.457C79.9999 119 79.5261 121.333 75.9999 120.578M79.6666 116.457L79.3942 102M75.9999 66.3333V67.6667M75.9999 66.3333H54.9999M75.9999 66.3333V59.8063M78.7222 66.3333L78.7473 67.6667M78.7222 66.3333L78.584 59.0031M78.7473 67.6667L78.8352 72.3333M75.9999 67.6667V72.3333M75.9999 67.6667H54.9999M75.9999 72.3333H63.3332V87H75.9999M75.9999 72.3333V87M78.8352 72.3333H81.9999V74.6667M78.8352 72.3333L79.1116 87M75.9999 87V99M79.1116 87L79.3942 102M76.3332 26.6667H77.6666M76.3332 26.6667V22M77.6666 26.6667L77.3331 11.6667H76.6664M76.6664 11.6667L73.9999 0M76.6664 11.6667L76.3332 22M72.6666 99.3333V117.333V120.829V122.333M72.6666 99.3333L75.9999 99M72.6666 99.3333H68.6666H54.9999M72.6666 124.324H68.6666H47.9999M72.6666 124.324V122.333M72.6666 124.324L75.9999 120.578M75.9999 120.578V119M75.9999 99V119M72.6666 122.333H68.6666H47.9999M72.6666 122.333L75.9999 119M8.66657 21.6667L-13.6668 0H-11.3334L8.66657 19.6667M8.66657 21.6667V45.6667M8.66657 21.6667V19.6667M8.66657 21.6667H23.3332M8.66657 45.6667L-33.3334 15.6667V18M8.66657 45.6667V47M-33.3334 18L8.66657 47M-33.3334 18V29.6667M8.66657 47H23.3332M8.66657 47H-4.0001M8.66657 19.6667H13.9999V13.6667H7.66657L-5.0001 0H-3.66677L7.93079 12.6667H18.2906M23.3332 19.6667V21.6667M23.3332 19.6667H15.3332V13.6667H19.1294M23.3332 19.6667L23.8823 20.3333V19.3333M23.3332 21.6667V47M23.3332 21.6667L27.9999 27.3333M23.3332 47V54.6667M-4.0001 47V54.6667M-4.0001 47L-33.3334 29.6667M-4.0001 54.6667L-33.3334 38V29.6667M-4.0001 54.6667H23.3332M-4.0001 54.6667L24.9999 70M23.3332 54.6667L45.6666 70M27.9999 27.3333V25.3333L27.6666 24.9286L26.4326 23.4302L24.9999 21.6905V18.2923L26.4326 20.0997L29.7885 24.3333V45.9187L27.9999 44.3333V27.3333ZM42.6666 46V57.3333L39.9999 54.9697V46M42.6666 46L45.6666 49.3333V60V70M42.6666 46H42.2072M39.9999 46V37.2154L41.3332 38.8974V46M39.9999 46H41.3332M47.9999 21.6905L32.3332 0H7.66657L18.2906 12.6667M47.9999 21.6905H28.7505M47.9999 21.6905H50.4999M47.9999 21.6905V99.3333M45.6666 70H24.9999M24.9999 70L25.8961 114.721M42.2072 46V40L42.9999 41V39.6667L28.7505 21.6905M42.2072 46H41.3332M23.8823 19.3333V16.8824L21.3332 13.6667H19.1294M23.8823 19.3333L19.1294 13.6667M28.7505 21.6905L21.5975 12.6667H18.2906M-33.3334 200V192.333M-33.3334 200V194.667M50.4999 21.6905L51.6666 20.6667L44.6211 10.3333M50.4999 21.6905L35.3332 0M37.5757 0L42.6666 7.46666M-33.3334 192.333V152.667M-33.3334 192.333L-31.3742 190.667M-33.3334 192.333V190.667M54.9999 66.3333H53.3332L53.9999 67.6667H54.9999M54.9999 66.3333L75.9999 59.8063M78.584 59.0031L78.5822 58.9047L78.2009 38.6667M54.9999 67.6667V99.3333M5.33323 123.667L25.8961 114.721M5.33323 123.667L-33.3334 124.324V134.667M5.33323 123.667V134.667M25.8961 114.721L42.1101 107.667V115.333M5.33323 159.44V152.667M5.33323 159.44V162.667M42.1101 138.497V144.079M42.1101 138.497H47.9999M42.1101 138.497V135.667M42.1101 138.497L5.33323 166.667M42.1101 150.667V148.332M42.1101 150.667V153.665M42.1101 150.667L53.9337 138.497M42.1101 144.079L47.9999 138.497M47.9999 138.497V124.324M47.9999 138.497H53.9337M47.9999 99.3333V122.333M47.9999 99.3333H54.9999M47.9999 122.333V124.324M81.9999 74.6667L84.6666 87M81.9999 74.6667H84.6666M90.3332 74.6667H87.4999M90.3332 74.6667L87.4999 87M84.6666 87H87.4999M84.6666 87L87.4999 74.6667M84.6666 74.6667L87.4999 87M84.6666 74.6667H87.4999M79.3942 102H80.6666M80.6666 102V109M80.6666 102H81.9999M80.6666 109H81.9999M81.9999 109V102M81.9999 109H83.3332M81.9999 102H83.3332M83.3332 102V109M83.3332 102H84.6666M83.3332 109H84.6666M84.6666 109V102M84.6666 109H85.9999M84.6666 102H85.9999M85.9999 102V109M85.9999 102H87.3332M85.9999 109H87.3332M87.3332 109V102M87.3332 109H88.6666M87.3332 102H88.6666M88.6666 102V109M88.6666 102H89.9999M88.6666 109H89.9999M89.9999 109V102M-33.3334 134.667H5.33323M-33.3334 134.667V138.667M5.33323 134.667L42.1101 115.333M5.33323 134.667V138.667M42.1101 115.333V119M-33.3334 138.667H5.33323M-33.3334 138.667V148.667M5.33323 138.667V148.667M5.33323 138.667L42.1101 119M-33.3334 148.667H5.33323M-33.3334 148.667V152.667M5.33323 148.667V152.667M5.33323 148.667L42.1101 125.333M-33.3334 152.667H5.33323M-33.3334 152.667V162.667M5.33323 152.667V162.667M5.33323 152.667L42.1101 128.82M-33.3334 162.667H1.54074H5.33323M-33.3334 162.667H5.33323M-33.3334 162.667V166.667M5.33323 162.667V166.667M5.33323 162.667L42.1101 135.667M-33.3334 166.667V176.667M-33.3334 166.667H-3.16139H5.33323M5.33323 166.667V173.44V176.667M-33.3334 176.667H-14.9167M-33.3334 176.667H5.33323M-33.3334 176.667V180.667M5.33323 176.667H1.54074H-14.9167M5.33323 176.667V180.667M5.33323 176.667H-14.9167M-33.3334 180.667V190.667M-33.3334 180.667H-19.6189H5.33323M5.33323 180.667V187.44V190.667M5.33323 180.667L42.1101 148.332M-33.3334 190.667H-31.3742M-33.3334 190.667H5.33323M-33.3334 190.667V194.667M5.33323 190.667H1.54074H-31.3742M5.33323 190.667V194.667M5.33323 190.667L42.1101 153.665M-33.3334 194.667H5.33323M5.33323 194.667L42.1101 156.665M42.1101 119V125.333M42.1101 125.333V128.82M42.1101 128.82V135.667M42.1101 153.665V154.667V156.665M159.333 125.333V123.333M159.333 123.333L155 122V100.843H159.333M105 39.523C106.333 46.523 111.533 49.6 121.667 0M70.9999 0L76.3332 22M152 6.66667H153L153.121 9M152 6.66667V9M152 6.66667C118.133 9.6 64.9999 8.42222 42.6666 7.46666M152 28.1137V9M152 28.1137L166 10.7494M152 28.1137L148 33.0749M154 26L153.121 9M152 9C125.747 11.6667 67.5181 15.6667 44.6211 10.3333M44.6211 10.3333L42.6666 7.46666M153.121 9C155.969 9.94401 162.533 11.6155 166 10.7494M78.2009 38.6667C86.5783 40.1611 126.667 41 148 33.0749M216 145L233.333 151V145.667L216 140.333V145ZM171 109V132.333L174.333 133.542V109.147L171 109ZM175.333 133.905V109.19L179.667 109.381V135.476L175.333 133.905ZM180.667 135.839V109.425L186 109.659V137.773L180.667 135.839ZM187 109.703V138.136L193 140.311V109.967L187 109.703ZM31.0084 47V25.8723L33.2235 28.6667V48.9633L31.0084 47ZM37.7154 34.3333V52.9448L38.9999 54.0833V35.9538L37.7154 34.3333Z" stroke="#ECC30B"/>
<path d="M9.66668 77.0858L1.33334 74.6665V77.229M9.66668 77.0858L10.6667 77.3762M9.66668 77.0858V79.4215M9.66668 114.457L1.33334 115.666V113.104M9.66668 114.457L10.6667 114.312M9.66668 114.457V112.121M10.6667 77.3762L22 80.6665V112.666L10.6667 114.312M10.6667 77.3762V114.312M1.33334 95.1665L9.66668 95.7713M1.33334 95.1665V92.604M1.33334 95.1665V97.729M9.66668 95.7713V93.4356M9.66668 95.7713V98.107M1.33334 84.9165L9.66668 86.4286M1.33334 84.9165V82.354M1.33334 84.9165V87.479M9.66668 86.4286V84.0929M9.66668 86.4286V88.7643M1.33334 105.416L9.66668 105.114M1.33334 105.416V102.854M1.33334 105.416V107.979M9.66668 105.114V102.778M9.66668 105.114V107.45M1.33334 79.7915L9.66668 81.7572M1.33334 79.7915V77.229M1.33334 79.7915V82.354M9.66668 81.7572V79.4215M9.66668 81.7572V84.0929M1.33334 90.0415L9.66668 91.0999M1.33334 90.0415V87.479M1.33334 90.0415V92.604M9.66668 91.0999V88.7643M9.66668 91.0999V93.4356M1.33334 100.291L9.66668 100.443M1.33334 100.291V97.729M1.33334 100.291V102.854M9.66668 100.443V98.107M9.66668 100.443V102.778M1.33334 110.541L9.66668 109.785M1.33334 110.541V107.979M1.33334 110.541V113.104M9.66668 109.785V107.45M9.66668 109.785V112.121M1.33334 77.229L9.66668 79.4215M1.33334 82.354L9.66668 84.0929M1.33334 87.479L9.66668 88.7643M1.33334 92.604L9.66668 93.4356M1.33334 97.729L9.66668 98.107M1.33334 102.854L9.66668 102.778M1.33334 107.979L9.66668 107.45M1.33334 113.104L9.66668 112.121M-0.666656 72.6665V117.666L23.3333 113.666V79.6665L-0.666656 72.6665Z" stroke="#ECC30B"/>
<path d="M150 62V64L144 67.7895V66M150 62L146.2 64.5333M150 62V59.8333M144 66V50.4561L146.2 48.3333M144 66L146.2 64.5333M146.2 48.3333L150 44.6667V46.8333M146.2 48.3333V50.3583M146.2 64.5333V62.5083M146.2 56.4333L150 53.3333M146.2 56.4333V54.4083M146.2 56.4333V58.4583M150 53.3333V51.1667M150 53.3333V55.5M146.2 52.3833L150 49M146.2 52.3833V50.3583M146.2 52.3833V54.4083M150 49V46.8333M150 49V51.1667M146.2 60.4833L150 57.6667M146.2 60.4833V58.4583M146.2 60.4833V62.5083M150 57.6667V55.5M150 57.6667V59.8333M146.2 50.3583L150 46.8333M146.2 54.4083L150 51.1667M146.2 58.4583L150 55.5M146.2 62.5083L150 59.8333M168 26.6667V43.3333L170.667 41.3333V24.6667L168 26.6667ZM173.333 33.3333V59L176.333 57.6667V31L173.333 33.3333ZM156.667 38V52L161 49V34.3333L156.667 38ZM157.667 38.3333V49.6667L160 48V36.3333L157.667 38.3333ZM169 27.3333V41L170 40.3333V26.6667L169 27.3333ZM174.333 34L175.667 33V56.6667L174.333 57.3333V34Z" stroke="#ECC30B"/>
</g>
</svg>
