<svg width="500" height="500" viewBox="0 0 500 500" fill="none" xmlns="http://www.w3.org/2000/svg">
<rect x="1" y="1" width="498" height="498" fill="#DFAC48" stroke="#576DE0" stroke-width="2"/>
<rect x="21.832" y="21.833" width="456.333" height="456.333" stroke="#576DE0" stroke-width="2"/>
<path d="M221.232 159.082C229.42 130.306 270.08 130.306 278.268 159.082C282.661 174.517 298.472 183.673 313.997 179.77C342.938 172.495 363.268 207.812 342.515 229.311C331.383 240.844 331.383 259.156 342.515 270.689C363.268 292.188 342.938 327.505 313.997 320.229C298.472 316.326 282.661 325.482 278.268 340.919C270.08 369.694 229.42 369.694 221.232 340.919C216.839 325.482 201.028 316.326 185.503 320.229C156.562 327.505 136.232 292.188 156.985 270.689C168.117 259.156 168.117 240.844 156.985 229.311C136.232 207.812 156.562 172.495 185.503 179.77C201.028 183.673 216.839 174.518 221.232 159.082Z" stroke="#576DE0" stroke-width="2"/>
<path d="M288.381 250C288.381 270.835 271.085 287.725 249.75 287.725C228.415 287.725 211.119 270.835 211.119 250C211.119 229.165 228.415 212.275 249.75 212.275C271.085 212.275 288.381 229.165 288.381 250Z" stroke="#576DE0" stroke-width="2"/>
<path d="M122.019 233.56C118.125 233.56 114.605 232.893 111.459 231.56C108.365 230.227 105.912 228.307 104.099 225.8C102.285 223.293 101.352 220.333 101.299 216.92H113.299C113.459 219.213 114.259 221.027 115.699 222.36C117.192 223.693 119.219 224.36 121.779 224.36C124.392 224.36 126.445 223.747 127.939 222.52C129.432 221.24 130.179 219.587 130.179 217.56C130.179 215.907 129.672 214.547 128.659 213.48C127.645 212.413 126.365 211.587 124.819 211C123.325 210.36 121.245 209.667 118.579 208.92C114.952 207.853 111.992 206.813 109.699 205.8C107.459 204.733 105.512 203.16 103.859 201.08C102.259 198.947 101.459 196.12 101.459 192.6C101.459 189.293 102.285 186.413 103.939 183.96C105.592 181.507 107.912 179.64 110.899 178.36C113.885 177.027 117.299 176.36 121.139 176.36C126.899 176.36 131.565 177.773 135.139 180.6C138.765 183.373 140.765 187.267 141.139 192.28H128.819C128.712 190.36 127.885 188.787 126.339 187.56C124.845 186.28 122.845 185.64 120.339 185.64C118.152 185.64 116.392 186.2 115.059 187.32C113.779 188.44 113.139 190.067 113.139 192.2C113.139 193.693 113.619 194.947 114.579 195.96C115.592 196.92 116.819 197.72 118.259 198.36C119.752 198.947 121.832 199.64 124.499 200.44C128.125 201.507 131.085 202.573 133.379 203.64C135.672 204.707 137.645 206.307 139.299 208.44C140.952 210.573 141.779 213.373 141.779 216.84C141.779 219.827 141.005 222.6 139.459 225.16C137.912 227.72 135.645 229.773 132.659 231.32C129.672 232.813 126.125 233.56 122.019 233.56ZM242.129 177.16L226.529 233H213.329L202.849 193.24L191.889 233L178.769 233.08L163.729 177.16H175.729L185.569 220.52L196.929 177.16H209.409L220.129 220.28L230.049 177.16H242.129ZM276.642 177.16V233H265.442V177.16H276.642ZM338.188 177.16V186.2H314.908V200.52H332.748V209.4H314.908V233H303.708V177.16H338.188ZM400.129 177.16V186.2H385.249V233H374.049V186.2H359.169V177.16H400.129ZM129.716 267.16V301.72C129.716 305.507 130.703 308.413 132.676 310.44C134.65 312.413 137.423 313.4 140.996 313.4C144.623 313.4 147.423 312.413 149.396 310.44C151.37 308.413 152.356 305.507 152.356 301.72V267.16H163.636V301.64C163.636 306.387 162.596 310.413 160.516 313.72C158.49 316.973 155.743 319.427 152.276 321.08C148.863 322.733 145.05 323.56 140.836 323.56C136.676 323.56 132.89 322.733 129.476 321.08C126.116 319.427 123.45 316.973 121.476 313.72C119.503 310.413 118.516 306.387 118.516 301.64V267.16H129.716ZM228.458 267.16V276.2H213.578V323H202.378V276.2H187.498V267.16H228.458ZM263.829 267.16V323H252.629V267.16H263.829ZM302.095 314.12H320.495V323H290.895V267.16H302.095V314.12ZM362.894 323.56C359 323.56 355.48 322.893 352.334 321.56C349.24 320.227 346.787 318.307 344.974 315.8C343.16 313.293 342.227 310.333 342.174 306.92H354.174C354.334 309.213 355.134 311.027 356.574 312.36C358.067 313.693 360.094 314.36 362.654 314.36C365.267 314.36 367.32 313.747 368.814 312.52C370.307 311.24 371.054 309.587 371.054 307.56C371.054 305.907 370.547 304.547 369.534 303.48C368.52 302.413 367.24 301.587 365.694 301C364.2 300.36 362.12 299.667 359.454 298.92C355.827 297.853 352.867 296.813 350.574 295.8C348.334 294.733 346.387 293.16 344.734 291.08C343.134 288.947 342.334 286.12 342.334 282.6C342.334 279.293 343.16 276.413 344.814 273.96C346.467 271.507 348.787 269.64 351.774 268.36C354.76 267.027 358.174 266.36 362.014 266.36C367.774 266.36 372.44 267.773 376.014 270.6C379.64 273.373 381.64 277.267 382.014 282.28H369.694C369.587 280.36 368.76 278.787 367.214 277.56C365.72 276.28 363.72 275.64 361.214 275.64C359.027 275.64 357.267 276.2 355.934 277.32C354.654 278.44 354.014 280.067 354.014 282.2C354.014 283.693 354.494 284.947 355.454 285.96C356.467 286.92 357.694 287.72 359.134 288.36C360.627 288.947 362.707 289.64 365.374 290.44C369 291.507 371.96 292.573 374.254 293.64C376.547 294.707 378.52 296.307 380.174 298.44C381.827 300.573 382.654 303.373 382.654 306.84C382.654 309.827 381.88 312.6 380.334 315.16C378.787 317.72 376.52 319.773 373.534 321.32C370.547 322.813 367 323.56 362.894 323.56Z" fill="white"/>
</svg>
