<svg width="550" height="550" viewBox="0 0 550 550" fill="none" xmlns="http://www.w3.org/2000/svg">
<mask id="mask0_809_82" style="mask-type:alpha" maskUnits="userSpaceOnUse" x="0" y="0" width="550" height="550">
<rect x="0.5" y="0.5" width="549" height="549" fill="#D9D9D9" stroke="black"/>
</mask>
<g mask="url(#mask0_809_82)">
<rect x="0.5" y="0.5" width="549" height="549" stroke="#3CA693"/>
<path d="M14.6666 550L115.803 436.333M14.6666 550H-91.6667M14.6666 550V438.461M14.6666 550V535.333M641.667 504.167L575.878 463.62M338.25 317.167L355.667 327.901M338.25 317.167H299.75M338.25 317.167V313.5M414.333 276.833L403.333 277.098M414.333 276.833V265.833M414.333 276.833V282.333M414.333 364.058L421.667 363V351.542M414.333 364.058L438.167 378.747M414.333 364.058L362.083 331.855M414.333 364.058V352.917M403.333 265.833V277.098M403.333 265.833H414.333M403.333 265.833V247.5L394.167 249.333V277.319M403.333 277.098L394.167 277.319M414.333 265.833V245.667L419.833 244.75V265.833M414.333 265.833H419.833M438.167 378.747L454.667 388.916M438.167 378.747V361.167M454.667 262.167L438.167 263.083V273.167M454.667 262.167H467.5V275.917M454.667 262.167V275.917M454.667 388.916L467.5 384.996V368.5M454.667 388.916V368.5M454.667 388.916L553.667 449.931M355.667 278.247L359.333 278.159M355.667 278.247V282.333M355.667 278.247L348.333 278.424M355.667 327.901L362.083 331.855M355.667 327.901V319.917M359.333 278.159V291.5M359.333 278.159V245.667M359.333 291.5H355.667M359.333 291.5H362.083M355.667 291.5V289.208M355.667 291.5V297M362.083 291.5V289.667M362.083 291.5V297.917M362.083 331.855V327.901M338.25 282.333V278.667L348.333 278.424M338.25 282.333H355.667M338.25 282.333V284.167M355.667 282.333V289.208M338.25 287.833L355.667 289.208M338.25 287.833V294.25M338.25 287.833V284.167M338.25 294.25L355.667 297M338.25 294.25V300.667M355.667 297V304.333M338.25 300.667L355.667 304.333M338.25 300.667V306.167M355.667 304.333V311.667M338.25 306.167L355.667 311.667M338.25 306.167V312.583M355.667 311.667V319.917M338.25 312.583L355.667 319.917M338.25 312.583V313.5M362.083 282.333V278.092L371.25 277.871M362.083 282.333H414.333M362.083 282.333V289.667M414.333 282.333V294.25M414.333 282.333H421.667M362.083 289.667L414.333 294.25M414.333 294.25V305.25M414.333 294.25H421.667M362.083 297.917L414.333 305.25M362.083 297.917V305.25M414.333 305.25V317.167M414.333 305.25H421.667M362.083 305.25L414.333 317.167M362.083 305.25V313.5M414.333 317.167V328.167M414.333 317.167H421.667M362.083 313.5L414.333 328.167M362.083 313.5V320.833M414.333 328.167V340.083M414.333 328.167H421.667M362.083 320.833L414.333 340.083M362.083 320.833V327.901M414.333 340.083V352.917M414.333 340.083L421.667 339.167M362.083 327.901L414.333 352.917M414.333 352.917L421.667 351.542M421.667 282.333V294.25M421.667 282.333V273.167M421.667 294.25V305.25M421.667 305.25V317.167M421.667 317.167V328.167M421.667 328.167V339.167M421.667 339.167V351.542M421.667 339.167L438.167 344.667M438.167 361.167L454.667 368.5M438.167 361.167V347.417M454.667 368.5V352.917M454.667 368.5L467.5 363.917M438.167 347.417L454.667 352.917M438.167 347.417V344.667M454.667 352.917V339.167M454.667 352.917L467.5 348.333M438.167 334.583L454.667 339.167M438.167 334.583V320.833M438.167 334.583V339.167M454.667 339.167V324.5M454.667 339.167L467.5 334.583M438.167 320.833L454.667 324.5M438.167 320.833V308M454.667 324.5V309.833M454.667 324.5L467.5 320.833M438.167 308L454.667 309.833M438.167 308V295.167M454.667 309.833V296.083M454.667 309.833L467.5 308M438.167 295.167L454.667 296.083M438.167 295.167V282.333M454.667 296.083V282.333M454.667 296.083L467.5 295.167M438.167 282.333H454.667M438.167 282.333V277.319M454.667 282.333V275.917M454.667 282.333H467.5M438.167 275.917H454.667M438.167 275.917V273.167M438.167 275.917V277.319M454.667 275.917H467.5M467.5 363.917V348.333M467.5 363.917V368.5M467.5 348.333V334.583M467.5 334.583V320.833M467.5 320.833V308M467.5 308V295.167M467.5 295.167V282.333M467.5 295.167H553.667V303.417M467.5 282.333V275.917M348.333 278.424V249.333L359.333 245.667M359.333 245.667L371.25 242.092M396 234.667V230.083M396 234.667L407 231M396 234.667L386.833 237.417M396 230.083L407 226.417M396 230.083H384.389M407 226.417V220.917L418 216.333M407 226.417L418 222.75M407 226.417V231M418 216.333H432.667M418 216.333V222.75M432.667 216.333L501.417 191.583M432.667 216.333V222.75M501.417 191.583V200.75M501.417 191.583L506 190.667M501.417 206.25L432.667 227.333M501.417 206.25V200.75M501.417 206.25V295.167H506M432.667 227.333H418M432.667 227.333V222.75M432.667 227.333L430.833 227.857M418 227.333L407 231M418 227.333V222.75M407 231H419.833L423.042 230.083M418 222.75H432.667M432.667 222.75L501.417 200.75M371.25 242.092V277.871M371.25 242.092L375.833 240.717M371.25 277.871L375.833 277.761M375.833 240.717V277.761M375.833 240.717L386.833 237.417M375.833 277.761L394.167 277.319M506 295.167V190.667M506 295.167H518.833V190.667M506 190.667H506.346M506 190.667H460.167M518.833 190.667H506.346M518.833 190.667H537.167M465.667 171.417V187.917M465.667 171.417L460.167 174.167V190.667M465.667 171.417H487.667M465.667 187.917L460.167 190.667M465.667 187.917H487.667M460.167 190.667H506.346M487.667 171.417L504.167 165M487.667 171.417V182.417M504.167 165V152.167L511.5 148.5M504.167 165V172.333M511.5 148.5V168.667M511.5 148.5H553.667V168.667M511.5 168.667L504.167 172.333M511.5 168.667H553.667M504.167 172.333H511.5M487.667 187.917L527.083 172.333H511.5M487.667 187.917V182.417M487.667 182.417L511.5 172.333M553.667 168.667V185.167L537.167 190.667M537.167 190.667V295.167M467.5 368.5L553.667 402.417V394.167M392.333 146.667V216.333M392.333 146.667H362.083L407 90.9561M392.333 146.667V137.5L419.833 110M392.333 146.667H369.417L400.354 110M392.333 216.333L361.167 231L368.5 237.417M392.333 216.333V226.417L384.389 230.083M368.5 237.417H386.833M368.5 237.417L384.389 230.083M493.167 0H480.333L456.5 29.5607M493.167 0L442.12 60.5M493.167 0H534.417L470.25 60.5H458.333M419.833 110H400.354M419.833 110V101.75L458.333 60.5M400.354 110L442.12 60.5M458.333 60.5H442.12M419.833 265.833H421.667V273.167M423.042 230.083V270.417H430.833V227.857M423.042 230.083L430.833 227.857M421.667 273.167H438.167M641.667 393.25L605 383.167H594V353.833H641.667V192.5M641.667 192.5L594 204.417M641.667 192.5V178.75L628.692 182.417M641.667 168.667H594V182.417M594 182.417V190.667L628.692 182.417M594 182.417H628.692M115.803 436.333V430.83M115.803 436.333L148.318 399.79V380.867M115.803 398.75V396.218M115.803 398.75L14.6666 485.833M115.803 398.75V407.913M553.667 0V303.417M553.667 449.931C558.25 458.333 568.043 462.657 575.878 463.62M553.667 449.931V394.167M594 0V460.167M594 460.167C591.641 462.525 584.185 464.641 575.878 463.62M594 460.167L641.667 485.833M553.667 394.167V303.417M553.667 394.167L533.5 386.854V302.53L553.667 303.417M254.833 280.5V299.75H251.167M254.833 280.5H281.417M254.833 280.5H247.5M218.697 299.75H221.833M299.75 317.167H221.833L219.083 320.257M299.75 317.167V313.5M251.167 239.25H248.417M251.167 239.25H270.417M251.167 239.25V245.667M251.167 299.75V254.833M251.167 299.75H247.5M272.25 198.917H248.417V205.333M272.25 198.917V214.5M272.25 198.917V194.333M248.417 239.25V205.333M248.417 239.25H240.625M248.417 239.25L240.625 205.333M225.5 239.25H217.557M225.5 239.25V205.333M225.5 239.25H232.833M225.5 239.25L232.833 205.333M270.417 239.25H272.25V214.5M270.417 239.25V246.583H306.167M306.167 246.583V214.5H286M306.167 246.583L293.333 254.833M272.25 214.5H286M272.25 186.083H288.75M272.25 186.083V194.333M272.25 186.083H216.555M288.75 186.083L286 191.583M288.75 186.083L289.937 183.708M286 191.583H304.333M286 191.583L287.833 188.833H306.167M304.333 191.583L306.167 188.833M304.333 191.583L293.333 209H286M306.167 188.833L289.937 183.708M286 209V194.333H272.25M286 209V214.5M285.847 182.417L219.083 161.333L216.106 162.259M285.847 182.417H290.583L289.937 183.708M285.847 182.417H216.486M251.167 254.833H281.417M251.167 254.833V245.667M281.417 254.833V280.5M281.417 254.833C275.55 248.233 258.805 245.972 251.167 245.667M281.417 254.833H293.333M281.417 280.5H293.333M293.333 254.833V280.5M293.333 280.5H299.75V284.167M299.75 284.167H338.25M299.75 284.167V313.5M299.75 313.5H338.25M209 77H214.5M209 77V163.547V164.467M209 77L209.917 73.3333M209 77C200.933 68.9333 191.583 22.3056 187.917 0M214.5 77L213.583 73.3333M214.5 77L215.053 106.333M219.083 320.257C220 327.25 218.697 333.667 209 331.59M219.083 320.257L218.334 280.5M209 182.417V186.083M209 182.417H151.25M209 182.417V164.467M216.486 182.417L216.555 186.083M216.486 182.417L216.106 162.259M216.555 186.083L216.797 198.917M209 186.083V198.917M209 186.083H151.25M209 198.917H174.167V239.25H209M209 198.917V239.25M216.797 198.917H225.5V205.333M216.797 198.917L217.557 239.25M209 239.25V272.25M217.557 239.25L218.334 280.5M209.917 73.3333H213.583M209.917 73.3333V60.5M213.583 73.3333L212.666 32.0833H210.833M210.833 32.0833L203.5 0M210.833 32.0833L209.917 60.5M199.833 273.167V322.667V332.28V336.417M199.833 273.167L209 272.25M199.833 273.167H188.833H151.25M199.833 341.892H188.833H132M199.833 341.892V336.417M199.833 341.892L209 331.59M209 331.59V327.25M209 272.25V327.25M199.833 336.417H188.833H132M199.833 336.417L209 327.25M23.8332 59.5833L-37.5834 0H-31.1668L23.8332 54.0833M23.8332 59.5833V125.583M23.8332 59.5833V54.0833M23.8332 59.5833H64.1666M23.8332 125.583L-91.6667 43.0833V49.5M23.8332 125.583V129.25M-91.6667 49.5L23.8332 129.25M-91.6667 49.5V81.5833M23.8332 129.25H64.1666M23.8332 129.25H-11.0001M23.8332 54.0833H38.4999V37.5833H21.0832L-13.7501 0H-10.0834L21.8099 34.8333H50.2994M64.1666 54.0833V59.5833M64.1666 54.0833H42.1666V37.5833H52.606M64.1666 54.0833L65.6764 55.9167V53.1667M64.1666 59.5833V129.25M64.1666 59.5833L76.9999 75.1667M64.1666 129.25V150.333M-11.0001 129.25V150.333M-11.0001 129.25L-91.6667 81.5833M-11.0001 150.333L-91.6667 104.5V81.5833M-11.0001 150.333H64.1666M-11.0001 150.333L68.7499 192.5M64.1666 150.333L125.583 192.5M76.9999 75.1667V69.6667L76.0832 68.5536L72.6899 64.433L68.7499 59.6488V50.3038L72.6899 55.2742L81.9186 66.9167V126.276L76.9999 121.917V75.1667ZM117.333 126.5V157.667L110 151.167V126.5M117.333 126.5L125.583 135.667V165V192.5M117.333 126.5H116.07M110 126.5V102.342L113.667 106.968V126.5M110 126.5H113.667M132 59.6488L88.9166 0H21.0832L50.2994 34.8333M132 59.6488H79.064M132 59.6488H138.875M132 59.6488V273.167M125.583 192.5H68.7499M68.7499 192.5L71.2145 315.482M116.07 126.5V110L118.25 112.75V109.083L79.064 59.6488M116.07 126.5H113.667M65.6764 53.1667V46.4265L58.6666 37.5833H52.606M65.6764 53.1667L52.606 37.5833M79.064 59.6488L59.3932 34.8333H50.2994M-91.6667 550V528.917M-91.6667 550V535.333M138.875 59.6488L142.083 56.8333L122.708 28.4167M138.875 59.6488L97.1666 0M103.333 0L117.333 20.5333M-91.6667 528.917V419.833M-91.6667 528.917L-86.2789 524.333M-91.6667 528.917V524.333M151.25 182.417H146.667L148.5 186.083H151.25M151.25 182.417L209 164.467M216.106 162.259L216.101 161.988L215.053 106.333M151.25 186.083V273.167M14.6666 340.083L71.2145 315.482M14.6666 340.083L-91.6667 341.892V370.333M14.6666 340.083V370.333M71.2145 315.482L115.803 296.083V317.167M14.6666 438.461V419.833M14.6666 438.461V447.333M115.803 380.867V396.218M115.803 380.867H132M115.803 380.867V373.083M115.803 380.867L14.6666 458.333M115.803 414.333V407.913M115.803 414.333V422.58M115.803 414.333L148.318 380.867M115.803 396.218L132 380.867M132 380.867V341.892M132 380.867H148.318M132 273.167V336.417M132 273.167H151.25M132 336.417V341.892M225.5 205.333L232.833 239.25M225.5 205.333H232.833M248.417 205.333H240.625M248.417 205.333L240.625 239.25M232.833 239.25H240.625M232.833 239.25L240.625 205.333M232.833 205.333L240.625 239.25M232.833 205.333H240.625M218.334 280.5H221.833M221.833 280.5V299.75M221.833 280.5H225.5M221.833 299.75H225.5M225.5 299.75V280.5M225.5 299.75H229.167M225.5 280.5H229.167M229.167 280.5V299.75M229.167 280.5H232.833M229.167 299.75H232.833M232.833 299.75V280.5M232.833 299.75H236.5M232.833 280.5H236.5M236.5 280.5V299.75M236.5 280.5H240.167M236.5 299.75H240.167M240.167 299.75V280.5M240.167 299.75H243.833M240.167 280.5H243.833M243.833 280.5V299.75M243.833 280.5H247.5M243.833 299.75H247.5M247.5 299.75V280.5M-91.6667 370.333H14.6666M-91.6667 370.333V381.333M14.6666 370.333L115.803 317.167M14.6666 370.333V381.333M115.803 317.167V327.25M-91.6667 381.333H14.6666M-91.6667 381.333V408.833M14.6666 381.333V408.833M14.6666 381.333L115.803 327.25M-91.6667 408.833H14.6666M-91.6667 408.833V419.833M14.6666 408.833V419.833M14.6666 408.833L115.803 344.667M-91.6667 419.833H14.6666M-91.6667 419.833V447.333M14.6666 419.833V447.333M14.6666 419.833L115.803 354.255M-91.6667 447.333H4.23723H14.6666M-91.6667 447.333H14.6666M-91.6667 447.333V458.333M14.6666 447.333V458.333M14.6666 447.333L115.803 373.083M-91.6667 458.333V485.833M-91.6667 458.333H-8.69364H14.6666M14.6666 458.333V476.961V485.833M-91.6667 485.833H-41.0208M-91.6667 485.833H14.6666M-91.6667 485.833V496.833M14.6666 485.833H4.23723H-41.0208M14.6666 485.833V496.833M14.6666 485.833H-41.0208M-91.6667 496.833V524.333M-91.6667 496.833H-53.9517H14.6666M14.6666 496.833V515.461V524.333M14.6666 496.833L115.803 407.913M-91.6667 524.333H-86.2789M-91.6667 524.333H14.6666M-91.6667 524.333V535.333M14.6666 524.333H4.23723H-86.2789M14.6666 524.333V535.333M14.6666 524.333L115.803 422.58M-91.6667 535.333H14.6666M14.6666 535.333L115.803 430.83M115.803 327.25V344.667M115.803 344.667V354.255M115.803 354.255V373.083M115.803 422.58V425.333V430.83M438.167 344.667V339.167M438.167 339.167L426.25 335.5V277.319H438.167M288.75 108.688C292.417 127.938 306.717 136.4 334.583 0M195.25 0L209.917 60.5M418 18.3333H420.75L421.082 24.75M418 18.3333V24.75M418 18.3333C324.867 26.4 178.75 23.1611 117.333 20.5333M418 77.3127V24.75M418 77.3127L456.5 29.5607M418 77.3127L407 90.9561M423.5 71.5L421.082 24.75M418 24.75C345.805 32.0833 185.675 43.0833 122.708 28.4167M122.708 28.4167L117.333 20.5333M421.082 24.75C428.916 27.346 446.967 31.9426 456.5 29.5607M215.053 106.333C238.091 110.443 348.333 112.75 407 90.9561M594 398.75L641.667 415.25V400.583L594 385.917V398.75ZM470.25 299.75V363.917L479.417 367.241V300.153L470.25 299.75ZM482.167 368.238V300.274L494.083 300.798V372.56L482.167 368.238ZM496.833 373.557V300.919L511.5 301.563V378.875L496.833 373.557ZM514.25 301.684V379.873L530.75 385.856V302.409L514.25 301.684ZM85.2734 129.25V71.1489L91.3648 78.8333V134.649L85.2734 129.25ZM103.717 94.4167V145.598L107.25 148.729V98.8731L103.717 94.4167Z" stroke="#3CA693"/>
<path d="M26.5837 211.986L3.66699 205.333V212.38M26.5837 211.986L29.3337 212.785M26.5837 211.986V218.409M26.5837 314.756L3.66699 318.083V311.036M26.5837 314.756L29.3337 314.357M26.5837 314.756V308.333M29.3337 212.785L60.5003 221.833V309.833L29.3337 314.357M29.3337 212.785V314.357M3.66699 261.708L26.5837 263.371M3.66699 261.708V254.661M3.66699 261.708V268.755M26.5837 263.371V256.948M26.5837 263.371V269.794M3.66699 233.521L26.5837 237.679M3.66699 233.521V226.474M3.66699 233.521V240.567M26.5837 237.679V231.256M26.5837 237.679V244.102M3.66699 289.896L26.5837 289.064M3.66699 289.896V282.849M3.66699 289.896V296.942M26.5837 289.064V282.641M26.5837 289.064V295.487M3.66699 219.427L26.5837 224.833M3.66699 219.427V212.38M3.66699 219.427V226.474M26.5837 224.833V218.409M26.5837 224.833V231.256M3.66699 247.614L26.5837 250.525M3.66699 247.614V240.567M3.66699 247.614V254.661M26.5837 250.525V244.102M26.5837 250.525V256.948M3.66699 275.802L26.5837 276.218M3.66699 275.802V268.755M3.66699 275.802V282.849M26.5837 276.218V269.794M26.5837 276.218V282.641M3.66699 303.989L26.5837 301.91M3.66699 303.989V296.942M3.66699 303.989V311.036M26.5837 301.91V295.487M26.5837 301.91V308.333M3.66699 212.38L26.5837 218.409M3.66699 226.474L26.5837 231.256M3.66699 240.567L26.5837 244.102M3.66699 254.661L26.5837 256.948M3.66699 268.755L26.5837 269.794M3.66699 282.849L26.5837 282.641M3.66699 296.942L26.5837 295.487M3.66699 311.036L26.5837 308.333M-1.83301 199.833V323.583L64.167 312.583V219.083L-1.83301 199.833Z" stroke="#3CA693"/>
<path d="M412.5 170.5V176L396 186.421V181.5M412.5 170.5L402.05 177.467M412.5 170.5V164.542M396 181.5V138.754L402.05 132.917M396 181.5L402.05 177.467M402.05 132.917L412.5 122.833V128.792M402.05 132.917V138.485M402.05 177.467V171.898M402.05 155.192L412.5 146.667M402.05 155.192V149.623M402.05 155.192V160.76M412.5 146.667V140.708M412.5 146.667V152.625M402.05 144.054L412.5 134.75M402.05 144.054V138.485M402.05 144.054V149.623M412.5 134.75V128.792M412.5 134.75V140.708M402.05 166.329L412.5 158.583M402.05 166.329V160.76M402.05 166.329V171.898M412.5 158.583V152.625M412.5 158.583V164.542M402.05 138.485L412.5 128.792M402.05 149.623L412.5 140.708M402.05 160.76L412.5 152.625M402.05 171.898L412.5 164.542M462 73.3334V119.167L469.334 113.667V67.8334L462 73.3334ZM476.667 91.6667V162.25L484.917 158.583V85.25L476.667 91.6667ZM430.834 104.5V143L442.75 134.75V94.4167L430.834 104.5ZM433.584 105.417V136.583L440 132V99.9167L433.584 105.417ZM464.75 75.1667V112.75L467.5 110.917V73.3334L464.75 75.1667ZM479.417 93.5L483.084 90.75V155.833L479.417 157.667V93.5Z" stroke="#3CA693"/>
</g>
</svg>
