<svg width="140" height="140" viewBox="0 0 140 140" fill="none" xmlns="http://www.w3.org/2000/svg">
<mask id="mask0_870_34" style="mask-type:alpha" maskUnits="userSpaceOnUse" x="0" y="0" width="140" height="140">
<circle cx="70" cy="70" r="70" fill="#D9D9D9"/>
</mask>
<g mask="url(#mask0_870_34)">
<circle cx="70" cy="70" r="69.5" stroke="#ABDCD3" stroke-opacity="0.9"/>
<path d="M-3.12706 154L25.1912 122.173M-3.12706 154H-32.9004M-3.12706 154V122.769M-3.12706 154V149.893M172.433 141.167L154.012 129.814M87.4763 88.8067L92.3529 91.8122M87.4763 88.8067H76.6963M87.4763 88.8067V87.78M108.78 77.5133L105.7 77.5876M108.78 77.5133V74.4333M108.78 77.5133V79.0533M108.78 101.936L110.833 101.64V98.4317M108.78 101.936L115.453 106.049M108.78 101.936L94.1496 92.9195M108.78 101.936V98.8167M105.7 74.4333V77.5876M105.7 74.4333H108.78M105.7 74.4333V69.3L103.133 69.8133V77.6494M105.7 77.5876L103.133 77.6494M108.78 74.4333V68.7867L110.32 68.53V74.4333M108.78 74.4333H110.32M115.453 106.049L120.073 108.896M115.453 106.049V101.127M120.073 73.4067L115.453 73.6633V76.4867M120.073 73.4067H123.666V77.2567M120.073 73.4067V77.2567M120.073 108.896L123.666 107.799V103.18M120.073 108.896V103.18M120.073 108.896L147.793 125.981M92.3529 77.9092L93.3796 77.8844M92.3529 77.9092V79.0533M92.3529 77.9092L90.2996 77.9586M92.3529 91.8122L94.1496 92.9195M92.3529 91.8122V89.5767M93.3796 77.8844V81.62M93.3796 77.8844V68.7867M93.3796 81.62H92.3529M93.3796 81.62H94.1496M92.3529 81.62V80.9783M92.3529 81.62V83.16M94.1496 81.62V81.1067M94.1496 81.62V83.4167M94.1496 92.9195V91.8122M87.4763 79.0533V78.0267L90.2996 77.9586M87.4763 79.0533H92.3529M87.4763 79.0533V79.5667M92.3529 79.0533V80.9783M87.4763 80.5933L92.3529 80.9783M87.4763 80.5933V82.39M87.4763 80.5933V79.5667M87.4763 82.39L92.3529 83.16M87.4763 82.39V84.1867M92.3529 83.16V85.2133M87.4763 84.1867L92.3529 85.2133M87.4763 84.1867V85.7267M92.3529 85.2133V87.2667M87.4763 85.7267L92.3529 87.2667M87.4763 85.7267V87.5233M92.3529 87.2667V89.5767M87.4763 87.5233L92.3529 89.5767M87.4763 87.5233V87.78M94.1496 79.0533V77.8659L96.7163 77.804M94.1496 79.0533H108.78M94.1496 79.0533V81.1067M108.78 79.0533V82.39M108.78 79.0533H110.833M94.1496 81.1067L108.78 82.39M108.78 82.39V85.47M108.78 82.39H110.833M94.1496 83.4167L108.78 85.47M94.1496 83.4167V85.47M108.78 85.47V88.8067M108.78 85.47H110.833M94.1496 85.47L108.78 88.8067M94.1496 85.47V87.78M108.78 88.8067V91.8867M108.78 88.8067H110.833M94.1496 87.78L108.78 91.8867M94.1496 87.78V89.8333M108.78 91.8867V95.2233M108.78 91.8867H110.833M94.1496 89.8333L108.78 95.2233M94.1496 89.8333V91.8122M108.78 95.2233V98.8167M108.78 95.2233L110.833 94.9667M94.1496 91.8122L108.78 98.8167M108.78 98.8167L110.833 98.4317M110.833 79.0533V82.39M110.833 79.0533V76.4867M110.833 82.39V85.47M110.833 85.47V88.8067M110.833 88.8067V91.8867M110.833 91.8867V94.9667M110.833 94.9667V98.4317M110.833 94.9667L115.453 96.5067M115.453 101.127L120.073 103.18M115.453 101.127V97.2767M120.073 103.18V98.8167M120.073 103.18L123.666 101.897M115.453 97.2767L120.073 98.8167M115.453 97.2767V96.5067M120.073 98.8167V94.9667M120.073 98.8167L123.666 97.5333M115.453 93.6833L120.073 94.9667M115.453 93.6833V89.8333M115.453 93.6833V94.9667M120.073 94.9667V90.86M120.073 94.9667L123.666 93.6833M115.453 89.8333L120.073 90.86M115.453 89.8333V86.24M120.073 90.86V86.7533M120.073 90.86L123.666 89.8333M115.453 86.24L120.073 86.7533M115.453 86.24V82.6467M120.073 86.7533V82.9033M120.073 86.7533L123.666 86.24M115.453 82.6467L120.073 82.9033M115.453 82.6467V79.0533M120.073 82.9033V79.0533M120.073 82.9033L123.666 82.6467M115.453 79.0533H120.073M115.453 79.0533V77.6494M120.073 79.0533V77.2567M120.073 79.0533H123.666M115.453 77.2567H120.073M115.453 77.2567V76.4867M115.453 77.2567V77.6494M120.073 77.2567H123.666M123.666 101.897V97.5333M123.666 101.897V103.18M123.666 97.5333V93.6833M123.666 93.6833V89.8333M123.666 89.8333V86.24M123.666 86.24V82.6467M123.666 82.6467V79.0533M123.666 82.6467H147.793V84.9567M123.666 79.0533V77.2567M90.2996 77.9586V69.8133L93.3796 68.7867M93.3796 68.7867L96.7163 67.7857M103.646 65.7067V64.4233M103.646 65.7067L106.726 64.68M103.646 65.7067L101.08 66.4767M103.646 64.4233L106.726 63.3967M103.646 64.4233H100.395M106.726 63.3967V61.8567L109.806 60.5733M106.726 63.3967L109.806 62.37M106.726 63.3967V64.68M109.806 60.5733H113.913M109.806 60.5733V62.37M113.913 60.5733L133.163 53.6433M113.913 60.5733V62.37M133.163 53.6433V56.21M133.163 53.6433L134.446 53.3867M133.163 57.75L113.913 63.6533M133.163 57.75V56.21M133.163 57.75V82.6467H134.446M113.913 63.6533H109.806M113.913 63.6533V62.37M113.913 63.6533L113.4 63.8M109.806 63.6533L106.726 64.68M109.806 63.6533V62.37M106.726 64.68H110.32L111.218 64.4233M109.806 62.37H113.913M113.913 62.37L133.163 56.21M96.7163 67.7857V77.804M96.7163 67.7857L97.9996 67.4007M96.7163 77.804L97.9996 77.7731M97.9996 67.4007V77.7731M97.9996 67.4007L101.08 66.4767M97.9996 77.7731L103.133 77.6494M134.446 82.6467V53.3867M134.446 82.6467H138.04V53.3867M134.446 53.3867H134.543M134.446 53.3867H121.613M138.04 53.3867H134.543M138.04 53.3867H143.173M123.153 47.9967V52.6167M123.153 47.9967L121.613 48.7667V53.3867M123.153 47.9967H129.313M123.153 52.6167L121.613 53.3867M123.153 52.6167H129.313M121.613 53.3867H134.543M129.313 47.9967L133.933 46.2M129.313 47.9967V51.0767M133.933 46.2V42.6067L135.986 41.58M133.933 46.2V48.2533M135.986 41.58V47.2267M135.986 41.58H147.793V47.2267M135.986 47.2267L133.933 48.2533M135.986 47.2267H147.793M133.933 48.2533H135.986M129.313 52.6167L140.35 48.2533H135.986M129.313 52.6167V51.0767M129.313 51.0767L135.986 48.2533M147.793 47.2267V51.8467L143.173 53.3867M143.173 53.3867V82.6467M123.666 103.18L147.793 112.677V110.367M102.62 41.0667V60.5733M102.62 41.0667H94.1496L106.726 25.4677M102.62 41.0667V38.5L110.32 30.8M102.62 41.0667H96.2029L104.865 30.8M102.62 60.5733L93.8929 64.68L95.9463 66.4767M102.62 60.5733V63.3967L100.395 64.4233M95.9463 66.4767H101.08M95.9463 66.4767L100.395 64.4233M130.853 0H127.26L120.586 8.277M130.853 0L116.56 16.94M130.853 0H142.403L124.436 16.94H121.1M110.32 30.8H104.865M110.32 30.8V28.49L121.1 16.94M104.865 30.8L116.56 16.94M121.1 16.94H116.56M110.32 74.4333H110.833V76.4867M111.218 64.4233V75.7167H113.4V63.8M111.218 64.4233L113.4 63.8M110.833 76.4867H115.453M172.433 110.11L162.166 107.287H159.086V99.0733H172.433V53.9M172.433 53.9L159.086 57.2367M172.433 53.9V50.05L168.8 51.0767M172.433 47.2267H159.086V51.0767M159.086 51.0767V53.3867L168.8 51.0767M159.086 51.0767H168.8M25.1912 122.173V120.632M25.1912 122.173L34.2953 111.941V106.643M25.1912 111.65V110.941M25.1912 111.65L-3.12706 136.033M25.1912 111.65V114.216M147.793 0V84.9567M147.793 125.981C149.076 128.333 151.818 129.544 154.012 129.814M147.793 125.981V110.367M159.086 0V128.847M159.086 128.847C158.426 129.507 156.338 130.1 154.012 129.814M159.086 128.847L172.433 136.033M147.793 110.367V84.9567M147.793 110.367L142.146 108.319V84.7085L147.793 84.9567M64.1196 78.54V83.93H63.0929M64.1196 78.54H71.5629M64.1196 78.54H62.0663M54.0014 83.93H54.8796M76.6963 88.8067H54.8796L54.1096 89.6721M76.6963 88.8067V87.78M63.0929 66.99H62.3229M63.0929 66.99H68.4829M63.0929 66.99V68.7867M63.0929 83.93V71.3533M63.0929 83.93H62.0663M68.9963 55.6967H62.3229V57.4933M68.9963 55.6967V60.06M68.9963 55.6967V54.4133M62.3229 66.99V57.4933M62.3229 66.99H60.1413M62.3229 66.99L60.1413 57.4933M55.9063 66.99H53.6822M55.9063 66.99V57.4933M55.9063 66.99H57.9596M55.9063 66.99L57.9596 57.4933M68.4829 66.99H68.9963V60.06M68.4829 66.99V69.0433H78.4929M78.4929 69.0433V60.06H72.8463M78.4929 69.0433L74.8996 71.3533M68.9963 60.06H72.8463M68.9963 52.1033H73.6163M68.9963 52.1033V54.4133M68.9963 52.1033H53.4018M73.6163 52.1033L72.8463 53.6433M73.6163 52.1033L73.9488 51.4383M72.8463 53.6433H77.9796M72.8463 53.6433L73.3596 52.8733H78.4929M77.9796 53.6433L78.4929 52.8733M77.9796 53.6433L74.8996 58.52H72.8463M78.4929 52.8733L73.9488 51.4383M72.8463 58.52V54.4133H68.9963M72.8463 58.52V60.06M72.8035 51.0767L54.1096 45.1733L53.2761 45.4324M72.8035 51.0767H74.1296L73.9488 51.4383M72.8035 51.0767H53.3824M63.0929 71.3533H71.5629M63.0929 71.3533V68.7867M71.5629 71.3533V78.54M71.5629 71.3533C69.9203 69.5053 65.2318 68.8722 63.0929 68.7867M71.5629 71.3533H74.8996M71.5629 78.54H74.8996M74.8996 71.3533V78.54M74.8996 78.54H76.6963V79.5667M76.6963 79.5667H87.4763M76.6963 79.5667V87.78M76.6963 87.78H87.4763M51.2863 21.56H52.8263M51.2863 21.56V45.7931V46.0509M51.2863 21.56L51.5429 20.5333M51.2863 21.56C49.0276 19.3013 46.4096 6.24556 45.3829 0M52.8263 21.56L52.5696 20.5333M52.8263 21.56L52.981 29.7733M54.1096 89.6721C54.3663 91.63 54.0014 93.4267 51.2863 92.8452M54.1096 89.6721L53.8999 78.54M51.2863 51.0767V52.1033M51.2863 51.0767H35.1163M51.2863 51.0767V46.0509M53.3824 51.0767L53.4018 52.1033M53.3824 51.0767L53.2761 45.4324M53.4018 52.1033L53.4695 55.6967M51.2863 52.1033V55.6967M51.2863 52.1033H35.1163M51.2863 55.6967H41.5329V66.99H51.2863M51.2863 55.6967V66.99M53.4695 55.6967H55.9063V57.4933M53.4695 55.6967L53.6822 66.99M51.2863 66.99V76.23M53.6822 66.99L53.8999 78.54M51.5429 20.5333H52.5696M51.5429 20.5333V16.94M52.5696 20.5333L52.3128 8.98333H51.7995M51.7995 8.98333L49.7463 0M51.7995 8.98333L51.5429 16.94M48.7196 76.4867V90.3467V93.0383V94.1967M48.7196 76.4867L51.2863 76.23M48.7196 76.4867H45.6396H35.1163M48.7196 95.7298H45.6396H29.7263M48.7196 95.7298V94.1967M48.7196 95.7298L51.2863 92.8452M51.2863 92.8452V91.63M51.2863 76.23V91.63M48.7196 94.1967H45.6396H29.7263M48.7196 94.1967L51.2863 91.63M-0.560395 16.6833L-17.7571 0H-15.9604L-0.560395 15.1433M-0.560395 16.6833V35.1633M-0.560395 16.6833V15.1433M-0.560395 16.6833H10.7329M-0.560395 35.1633L-32.9004 12.0633V13.86M-0.560395 35.1633V36.19M-32.9004 13.86L-0.560395 36.19M-32.9004 13.86V22.8433M-0.560395 36.19H10.7329M-0.560395 36.19H-10.3137M-0.560395 15.1433H3.54627V10.5233H-1.3304L-11.0837 0H-10.0571L-1.12694 9.75333H6.85014M10.7329 15.1433V16.6833M10.7329 15.1433H4.57294V10.5233H7.49597M10.7329 15.1433L11.1557 15.6567V14.8867M10.7329 16.6833V36.19M10.7329 16.6833L14.3263 21.0467M10.7329 36.19V42.0933M-10.3137 36.19V42.0933M-10.3137 36.19L-32.9004 22.8433M-10.3137 42.0933L-32.9004 29.26V22.8433M-10.3137 42.0933H10.7329M-10.3137 42.0933L12.0163 53.9M10.7329 42.0933L27.9296 53.9M14.3263 21.0467V19.5067L14.0696 19.195L13.1195 18.0412L12.0163 16.7017V14.0851L13.1195 15.4768L15.7035 18.7367V35.3574L14.3263 34.1367V21.0467ZM25.6196 35.42V44.1467L23.5663 42.3267V35.42M25.6196 35.42L27.9296 37.9867V46.2V53.9M25.6196 35.42H25.2659M23.5663 35.42V28.6558L24.5929 29.951V35.42M23.5663 35.42H24.5929M29.7263 16.7017L17.6629 0H-1.3304L6.85014 9.75333M29.7263 16.7017H14.9042M29.7263 16.7017H31.6513M29.7263 16.7017V76.4867M27.9296 53.9H12.0163M12.0163 53.9L12.7064 88.3349M25.2659 35.42V30.8L25.8763 31.57V30.5433L14.9042 16.7017M25.2659 35.42H24.5929M11.1557 14.8867V12.9994L9.19294 10.5233H7.49597M11.1557 14.8867L7.49597 10.5233M14.9042 16.7017L9.39639 9.75333H6.85014M-32.9004 154V148.097M-32.9004 154V149.893M31.6513 16.7017L32.5496 15.9133L27.1246 7.95667M31.6513 16.7017L19.9729 0M21.6996 0L25.6196 5.74933M-32.9004 148.097V117.553M-32.9004 148.097L-31.3918 146.813M-32.9004 148.097V146.813M35.1163 51.0767H33.8329L34.3463 52.1033H35.1163M35.1163 51.0767L51.2863 46.0509M53.2761 45.4324L53.2746 45.3566L52.981 29.7733M35.1163 52.1033V76.4867M-3.12706 95.2233L12.7064 88.3349M-3.12706 95.2233L-32.9004 95.7298V103.693M-3.12706 95.2233V103.693M12.7064 88.3349L25.1912 82.9033V88.8067M-3.12706 122.769V117.553M-3.12706 122.769V125.253M25.1912 106.643V110.941M25.1912 106.643H29.7263M25.1912 106.643V104.463M25.1912 106.643L-3.12706 128.333M25.1912 116.013V114.216M25.1912 116.013V118.322M25.1912 116.013L34.2953 106.643M25.1912 110.941L29.7263 106.643M29.7263 106.643V95.7298M29.7263 106.643H34.2953M29.7263 76.4867V94.1967M29.7263 76.4867H35.1163M29.7263 94.1967V95.7298M55.9063 57.4933L57.9596 66.99M55.9063 57.4933H57.9596M62.3229 57.4933H60.1413M62.3229 57.4933L60.1413 66.99M57.9596 66.99H60.1413M57.9596 66.99L60.1413 57.4933M57.9596 57.4933L60.1413 66.99M57.9596 57.4933H60.1413M53.8999 78.54H54.8796M54.8796 78.54V83.93M54.8796 78.54H55.9063M54.8796 83.93H55.9063M55.9063 83.93V78.54M55.9063 83.93H56.9329M55.9063 78.54H56.9329M56.9329 78.54V83.93M56.9329 78.54H57.9596M56.9329 83.93H57.9596M57.9596 83.93V78.54M57.9596 83.93H58.9863M57.9596 78.54H58.9863M58.9863 78.54V83.93M58.9863 78.54H60.0129M58.9863 83.93H60.0129M60.0129 83.93V78.54M60.0129 83.93H61.0396M60.0129 78.54H61.0396M61.0396 78.54V83.93M61.0396 78.54H62.0663M61.0396 83.93H62.0663M62.0663 83.93V78.54M-32.9004 103.693H-3.12706M-32.9004 103.693V106.773M-3.12706 103.693L25.1912 88.8067M-3.12706 103.693V106.773M25.1912 88.8067V91.63M-32.9004 106.773H-3.12706M-32.9004 106.773V114.473M-3.12706 106.773V114.473M-3.12706 106.773L25.1912 91.63M-32.9004 114.473H-3.12706M-32.9004 114.473V117.553M-3.12706 114.473V117.553M-3.12706 114.473L25.1912 96.5067M-32.9004 117.553H-3.12706M-32.9004 117.553V125.253M-3.12706 117.553V125.253M-3.12706 117.553L25.1912 99.1914M-32.9004 125.253H-6.04728H-3.12706M-32.9004 125.253H-3.12706M-32.9004 125.253V128.333M-3.12706 125.253V128.333M-3.12706 125.253L25.1912 104.463M-32.9004 128.333V136.033M-32.9004 128.333H-9.66792H-3.12706M-3.12706 128.333V133.549V136.033M-32.9004 136.033H-18.7195M-32.9004 136.033H-3.12706M-32.9004 136.033V139.113M-3.12706 136.033H-6.04728H-18.7195M-3.12706 136.033V139.113M-3.12706 136.033H-18.7195M-32.9004 139.113V146.813M-32.9004 139.113H-22.3402H-3.12706M-3.12706 139.113V144.329V146.813M-3.12706 139.113L25.1912 114.216M-32.9004 146.813H-31.3918M-32.9004 146.813H-3.12706M-32.9004 146.813V149.893M-3.12706 146.813H-6.04728H-31.3918M-3.12706 146.813V149.893M-3.12706 146.813L25.1912 118.322M-32.9004 149.893H-3.12706M-3.12706 149.893L25.1912 120.632M25.1912 91.63V96.5067M25.1912 96.5067V99.1914M25.1912 99.1914V104.463M25.1912 118.322V119.093V120.632M115.453 96.5067V94.9667M115.453 94.9667L112.116 93.94V77.6494H115.453M73.6163 30.4327C74.6429 35.8227 78.6469 38.192 86.4496 0M47.4363 0L51.5429 16.94M109.806 5.13333H110.576L110.669 6.93M109.806 5.13333V6.93M109.806 5.13333C83.7289 7.392 42.8163 6.48511 25.6196 5.74933M109.806 21.6475V6.93M109.806 21.6475L120.586 8.277M109.806 21.6475L106.726 25.4677M111.346 20.02L110.669 6.93M109.806 6.93C89.5918 8.98333 44.7553 12.0633 27.1246 7.95667M27.1246 7.95667L25.6196 5.74933M110.669 6.93C112.863 7.65689 117.917 8.94394 120.586 8.277M52.981 29.7733C59.4317 30.924 90.2996 31.57 106.726 25.4677M159.086 111.65L172.433 116.27V112.163L159.086 108.057V111.65ZM124.436 83.93V101.897L127.003 102.827V84.0428L124.436 83.93ZM127.773 103.107V84.0767L131.11 84.2233V104.317L127.773 103.107ZM131.88 104.596V84.2572L135.986 84.4377V106.085L131.88 104.596ZM136.756 84.4715V106.364L141.376 108.04V84.6746L136.756 84.4715ZM16.6428 36.19V19.9217L18.3484 22.0733V37.7018L16.6428 36.19ZM21.8072 26.4367V40.7675L22.7963 41.6442V27.6845L21.8072 26.4367Z" stroke="#ABDCD3" stroke-opacity="0.9"/>
<path d="M0.209596 59.3563L-6.20707 57.4934V59.4665M0.209596 59.3563L0.979596 59.5798M0.209596 59.3563V61.1548M0.209596 88.1319L-6.20707 89.0634V87.0902M0.209596 88.1319L0.979596 88.0201M0.209596 88.1319V86.3334M0.979596 59.5798L9.70626 62.1134V86.7534L0.979596 88.0201M0.979596 59.5798V88.0201M-6.20707 73.2784L0.209596 73.7441M-6.20707 73.2784V71.3052M-6.20707 73.2784V75.2515M0.209596 73.7441V71.9456M0.209596 73.7441V75.5426M-6.20707 65.3859L0.209596 66.5502M-6.20707 65.3859V63.4127M-6.20707 65.3859V67.359M0.209596 66.5502V64.7517M0.209596 66.5502V68.3487M-6.20707 81.1709L0.209596 80.938M-6.20707 81.1709V79.1977M-6.20707 81.1709V83.144M0.209596 80.938V79.1395M0.209596 80.938V82.7365M-6.20707 61.4396L0.209596 62.9532M-6.20707 61.4396V59.4665M-6.20707 61.4396V63.4127M0.209596 62.9532V61.1548M0.209596 62.9532V64.7517M-6.20707 69.3321L0.209596 70.1471M-6.20707 69.3321V67.359M-6.20707 69.3321V71.3052M0.209596 70.1471V68.3487M0.209596 70.1471V71.9456M-6.20707 77.2246L0.209596 77.3411M-6.20707 77.2246V75.2515M-6.20707 77.2246V79.1977M0.209596 77.3411V75.5426M0.209596 77.3411V79.1395M-6.20707 85.1171L0.209596 84.535M-6.20707 85.1171V83.144M-6.20707 85.1171V87.0902M0.209596 84.535V82.7365M0.209596 84.535V86.3334M-6.20707 59.4665L0.209596 61.1548M-6.20707 63.4127L0.209596 64.7517M-6.20707 67.359L0.209596 68.3487M-6.20707 71.3052L0.209596 71.9456M-6.20707 75.2515L0.209596 75.5426M-6.20707 79.1977L0.209596 79.1395M-6.20707 83.144L0.209596 82.7365M-6.20707 87.0902L0.209596 86.3334M-7.74707 55.9534V90.6034L10.7329 87.5234V61.3434L-7.74707 55.9534Z" stroke="#ABDCD3" stroke-opacity="0.9"/>
<path d="M108.266 47.7401V49.2801L103.646 52.198V50.8201M108.266 47.7401L105.34 49.6907M108.266 47.7401V46.0717M103.646 50.8201V38.8513L105.34 37.2167M103.646 50.8201L105.34 49.6907M105.34 37.2167L108.266 34.3934V36.0617M105.34 37.2167V38.776M105.34 49.6907V48.1315M105.34 43.4537L108.266 41.0667M105.34 43.4537V41.8945M105.34 43.4537V45.013M108.266 41.0667V39.3984M108.266 41.0667V42.7351M105.34 40.3352L108.266 37.7301M105.34 40.3352V38.776M105.34 40.3352V41.8945M108.266 37.7301V36.0617M108.266 37.7301V39.3984M105.34 46.5722L108.266 44.4034M105.34 46.5722V45.013M105.34 46.5722V48.1315M108.266 44.4034V42.7351M108.266 44.4034V46.0717M105.34 38.776L108.266 36.0617M105.34 41.8945L108.266 39.3984M105.34 45.013L108.266 42.7351M105.34 48.1315L108.266 46.0717M122.126 20.5334V33.3667L124.18 31.8267V18.9934L122.126 20.5334ZM126.233 25.6667V45.4301L128.543 44.4034V23.8701L126.233 25.6667ZM113.4 29.2601V40.0401L116.736 37.7301V26.4367L113.4 29.2601ZM114.17 29.5167V38.2434L115.966 36.9601V27.9767L114.17 29.5167ZM122.896 21.0467V31.5701L123.666 31.0567V20.5334L122.896 21.0467ZM127.003 26.1801L128.03 25.4101V43.6334L127.003 44.1467V26.1801Z" stroke="#ABDCD3" stroke-opacity="0.9"/>
</g>
</svg>
